<?xml version="1.0" encoding="UTF-8" standalone="no"?>
<!DOCTYPE svg PUBLIC "-//W3C//DTD SVG 1.1//EN"
 "http://www.w3.org/Graphics/SVG/1.1/DTD/svg11.dtd">
<!-- Generated by graphviz version 2.40.1 (20161225.0304)
 -->
<!-- Title: annotation_versions Pages: 1 -->
<svg width="1605pt" height="1139pt"
 viewBox="0.00 0.00 1605.00 1139.00" xmlns="http://www.w3.org/2000/svg" xmlns:xlink="http://www.w3.org/1999/xlink">
<g id="graph0" class="graph" transform="scale(1 1) rotate(0) translate(4 1135)">
<title>annotation_versions</title>
<polygon fill="#ffffff" stroke="transparent" points="-4,4 -4,-1135 1601,-1135 1601,4 -4,4"/>
<!-- annotation_versions -->
<g id="node1" class="node">
<title>annotation_versions</title>
<polygon fill="#efefef" stroke="transparent" points="486,-562.5 486,-597.5 788,-597.5 788,-562.5 486,-562.5"/>
<polygon fill="none" stroke="#000000" points="486,-562.5 486,-597.5 788,-597.5 788,-562.5 486,-562.5"/>
<text text-anchor="start" x="492.6894" y="-575.3" font-family="Arial Bold" font-size="18.00" fill="#000000">annotation_versions</text>
<text text-anchor="start" x="653.7426" y="-575.3" font-family="Arial" font-size="14.00" fill="#000000">    </text>
<text text-anchor="start" x="687.9474" y="-575.3" font-family="Arial" font-size="14.00" fill="#666666">[BASE TABLE]</text>
<polygon fill="none" stroke="#000000" points="486,-532.5 486,-562.5 788,-562.5 788,-532.5 486,-532.5"/>
<text text-anchor="start" x="493" y="-543.9" font-family="Arial" font-size="14.00" fill="#000000">id </text>
<text text-anchor="start" x="507.7798" y="-543.9" font-family="Arial" font-size="14.00" fill="#666666">[binary(16)]</text>
<polygon fill="none" stroke="#000000" points="486,-502.5 486,-532.5 788,-532.5 788,-502.5 486,-502.5"/>
<text text-anchor="start" x="493" y="-513.9" font-family="Arial" font-size="14.00" fill="#000000">genome_version_id </text>
<text text-anchor="start" x="619.0336" y="-513.9" font-family="Arial" font-size="14.00" fill="#666666">[binary(16)]</text>
<polygon fill="none" stroke="#000000" points="486,-472.5 486,-502.5 788,-502.5 788,-472.5 486,-472.5"/>
<text text-anchor="start" x="493" y="-483.9" font-family="Arial" font-size="14.00" fill="#000000">major_version </text>
<text text-anchor="start" x="584.7812" y="-483.9" font-family="Arial" font-size="14.00" fill="#666666">[int]</text>
<polygon fill="none" stroke="#000000" points="486,-442.5 486,-472.5 788,-472.5 788,-442.5 486,-442.5"/>
<text text-anchor="start" x="493" y="-453.9" font-family="Arial" font-size="14.00" fill="#000000">minor_version </text>
<text text-anchor="start" x="584.7812" y="-453.9" font-family="Arial" font-size="14.00" fill="#666666">[int]</text>
<polygon fill="none" stroke="#000000" points="486,-412.5 486,-442.5 788,-442.5 788,-412.5 486,-412.5"/>
<text text-anchor="start" x="493" y="-423.9" font-family="Arial" font-size="14.00" fill="#000000">patch_version </text>
<text text-anchor="start" x="584.0266" y="-423.9" font-family="Arial" font-size="14.00" fill="#666666">[int]</text>
<polygon fill="none" stroke="#000000" stroke-width="3" points="484.5,-411.5 484.5,-599.5 789.5,-599.5 789.5,-411.5 484.5,-411.5"/>
</g>
<!-- genome_versions -->
<g id="node6" class="node">
<title>genome_versions</title>
<polygon fill="#efefef" stroke="transparent" points="495,-252.5 495,-287.5 778,-287.5 778,-252.5 495,-252.5"/>
<polygon fill="none" stroke="#000000" points="495,-252.5 495,-287.5 778,-287.5 778,-252.5 495,-252.5"/>
<text text-anchor="start" x="501.6988" y="-265.3" font-family="Arial Bold" font-size="18.00" fill="#000000">genome_versions</text>
<text text-anchor="start" x="643.7332" y="-265.3" font-family="Arial" font-size="14.00" fill="#000000">    </text>
<text text-anchor="start" x="677.938" y="-265.3" font-family="Arial" font-size="14.00" fill="#666666">[BASE TABLE]</text>
<polygon fill="none" stroke="#000000" points="495,-222.5 495,-252.5 778,-252.5 778,-222.5 495,-222.5"/>
<text text-anchor="start" x="502" y="-233.9" font-family="Arial" font-size="14.00" fill="#000000">id    </text>
<text text-anchor="start" x="547.094" y="-233.9" font-family="Arial" font-size="14.00" fill="#666666">[binary(16)]</text>
<polygon fill="none" stroke="#000000" points="495,-192.5 495,-222.5 778,-222.5 778,-192.5 495,-192.5"/>
<text text-anchor="start" x="502" y="-203.9" font-family="Arial" font-size="14.00" fill="#000000">taxonomy_id    </text>
<text text-anchor="start" x="615.5582" y="-203.9" font-family="Arial" font-size="14.00" fill="#666666">[int unsigned]</text>
<polygon fill="none" stroke="#000000" points="495,-162.5 495,-192.5 778,-192.5 778,-162.5 495,-162.5"/>
<text text-anchor="start" x="502" y="-173.9" font-family="Arial" font-size="14.00" fill="#000000">major_version    </text>
<text text-anchor="start" x="624.0954" y="-173.9" font-family="Arial" font-size="14.00" fill="#666666">[int]</text>
<polygon fill="none" stroke="#000000" points="495,-132.5 495,-162.5 778,-162.5 778,-132.5 495,-132.5"/>
<text text-anchor="start" x="502" y="-143.9" font-family="Arial" font-size="14.00" fill="#000000">minor_version    </text>
<text text-anchor="start" x="624.0954" y="-143.9" font-family="Arial" font-size="14.00" fill="#666666">[int]</text>
<polygon fill="none" stroke="#000000" points="495,-102.5 495,-132.5 778,-132.5 778,-102.5 495,-102.5"/>
<text text-anchor="start" x="502" y="-113.9" font-family="Arial" font-size="14.00" fill="#000000">patch_version    </text>
<text text-anchor="start" x="623.3408" y="-113.9" font-family="Arial" font-size="14.00" fill="#666666">[int]</text>
<polygon fill="none" stroke="#000000" points="495,-72.5 495,-102.5 778,-102.5 778,-72.5 495,-72.5"/>
<text text-anchor="start" x="502" y="-83.9" font-family="Arial" font-size="14.00" fill="#000000">fasta_uri    </text>
<text text-anchor="start" x="589.8836" y="-83.9" font-family="Arial" font-size="14.00" fill="#666666">[varchar(255)]</text>
<polygon fill="none" stroke="#000000" points="495,-42.5 495,-72.5 778,-72.5 778,-42.5 495,-42.5"/>
<text text-anchor="start" x="502" y="-53.9" font-family="Arial" font-size="14.00" fill="#000000">fasta_index_uri    </text>
<text text-anchor="start" x="631.1206" y="-53.9" font-family="Arial" font-size="14.00" fill="#666666">[varchar(255)]</text>
</g>
<!-- annotation_versions&#45;&gt;genome_versions -->
<g id="edge6" class="edge">
<title>annotation_versions:genome_version_id&#45;&gt;genome_versions:id</title>
<path fill="none" stroke="#000000" d="M475.8177,-516.6239C421.6457,-506.67 444.1137,-414.3675 486,-367 572.6202,-269.0448 691.3798,-428.9552 778,-331 805.5278,-299.8699 819.5556,-237.5 778,-237.5"/>
<polygon fill="#000000" stroke="#000000" points="476.0368,-516.6427 485.6142,-521.9834 481.0184,-517.0713 486,-517.5 486,-517.5 486,-517.5 481.0184,-517.0713 486.3858,-513.0166 476.0368,-516.6427 476.0368,-516.6427"/>
<text text-anchor="start" x="144.484" y="-527.5" font-family="Arial" font-size="10.00" fill="#000000">FOREIGN KEY (genome_version_id) REFERENCES genome_versions (id)</text>
</g>
<!-- gene_cross_references -->
<g id="node2" class="node">
<title>gene_cross_references</title>
<polygon fill="#efefef" stroke="transparent" points="76,-947.5 76,-982.5 405,-982.5 405,-947.5 76,-947.5"/>
<polygon fill="none" stroke="#000000" points="76,-947.5 76,-982.5 405,-982.5 405,-947.5 76,-947.5"/>
<text text-anchor="start" x="82.6894" y="-960.3" font-family="Arial Bold" font-size="18.00" fill="#000000">gene_cross_references</text>
<text text-anchor="start" x="270.7426" y="-960.3" font-family="Arial" font-size="14.00" fill="#000000">    </text>
<text text-anchor="start" x="304.9474" y="-960.3" font-family="Arial" font-size="14.00" fill="#666666">[BASE TABLE]</text>
<polygon fill="none" stroke="#000000" points="76,-917.5 76,-947.5 405,-947.5 405,-917.5 76,-917.5"/>
<text text-anchor="start" x="83" y="-928.9" font-family="Arial" font-size="14.00" fill="#000000">source_gene_id    </text>
<text text-anchor="start" x="216.798" y="-928.9" font-family="Arial" font-size="14.00" fill="#666666">[binary(16)]</text>
<polygon fill="none" stroke="#000000" points="76,-887.5 76,-917.5 405,-917.5 405,-887.5 76,-887.5"/>
<text text-anchor="start" x="83" y="-898.9" font-family="Arial" font-size="14.00" fill="#000000">source_annotation_version_id    </text>
<text text-anchor="start" x="303.9312" y="-898.9" font-family="Arial" font-size="14.00" fill="#666666">[binary(16)]</text>
<polygon fill="none" stroke="#000000" points="76,-857.5 76,-887.5 405,-887.5 405,-857.5 76,-857.5"/>
<text text-anchor="start" x="83" y="-868.9" font-family="Arial" font-size="14.00" fill="#000000">target_gene_id    </text>
<text text-anchor="start" x="210.5792" y="-868.9" font-family="Arial" font-size="14.00" fill="#666666">[binary(16)]</text>
<polygon fill="none" stroke="#000000" points="76,-827.5 76,-857.5 405,-857.5 405,-827.5 76,-827.5"/>
<text text-anchor="start" x="83" y="-838.9" font-family="Arial" font-size="14.00" fill="#000000">target_annotation_version_id    </text>
<text text-anchor="start" x="297.7124" y="-838.9" font-family="Arial" font-size="14.00" fill="#666666">[binary(16)]</text>
</g>
<!-- gene_cross_references&#45;&gt;annotation_versions -->
<g id="edge1" class="edge">
<title>gene_cross_references:source_annotation_version_id&#45;&gt;annotation_versions:id</title>
<path fill="none" stroke="#000000" d="M414.9549,-900.4152C478.9804,-871.3218 408.7186,-547.5 486,-547.5"/>
<polygon fill="#000000" stroke="#000000" points="414.7877,-900.4502 404.0776,-898.0955 409.8938,-901.4751 405,-902.5 405,-902.5 405,-902.5 409.8938,-901.4751 405.9224,-906.9045 414.7877,-900.4502 414.7877,-900.4502"/>
<text text-anchor="start" x="7.1355" y="-912.5" font-family="Arial" font-size="10.00" fill="#000000">FOREIGN KEY (source_annotation_version_id) REFERENCES annotation_versions (id)</text>
</g>
<!-- gene_cross_references&#45;&gt;annotation_versions -->
<g id="edge2" class="edge">
<title>gene_cross_references:target_annotation_version_id&#45;&gt;annotation_versions:id</title>
<path fill="none" stroke="#000000" d="M414.7653,-840.1254C467.5268,-812.2071 421.6031,-547.5 486,-547.5"/>
<polygon fill="#000000" stroke="#000000" points="414.7169,-840.1371 403.9367,-838.1274 409.8584,-841.3186 405,-842.5 405,-842.5 405,-842.5 409.8584,-841.3186 406.0633,-846.8726 414.7169,-840.1371 414.7169,-840.1371"/>
<text text-anchor="start" x="11.3565" y="-852.5" font-family="Arial" font-size="10.00" fill="#000000">FOREIGN KEY (target_annotation_version_id) REFERENCES annotation_versions (id)</text>
</g>
<!-- genes -->
<g id="node3" class="node">
<title>genes</title>
<polygon fill="#efefef" stroke="transparent" points="509,-932.5 509,-967.5 764,-967.5 764,-932.5 509,-932.5"/>
<polygon fill="none" stroke="#000000" points="509,-932.5 509,-967.5 764,-967.5 764,-932.5 509,-932.5"/>
<text text-anchor="start" x="548.2036" y="-945.3" font-family="Arial Bold" font-size="18.00" fill="#000000">genes</text>
<text text-anchor="start" x="597.2284" y="-945.3" font-family="Arial" font-size="14.00" fill="#000000">    </text>
<text text-anchor="start" x="631.4332" y="-945.3" font-family="Arial" font-size="14.00" fill="#666666">[BASE TABLE]</text>
<polygon fill="none" stroke="#000000" points="509,-902.5 509,-932.5 764,-932.5 764,-902.5 509,-902.5"/>
<text text-anchor="start" x="516" y="-913.9" font-family="Arial" font-size="14.00" fill="#000000">id    </text>
<text text-anchor="start" x="561.094" y="-913.9" font-family="Arial" font-size="14.00" fill="#666666">[binary(16)]</text>
<polygon fill="none" stroke="#000000" points="509,-872.5 509,-902.5 764,-902.5 764,-872.5 509,-872.5"/>
<text text-anchor="start" x="516" y="-883.9" font-family="Arial" font-size="14.00" fill="#000000">gene_id    </text>
<text text-anchor="start" x="600.007" y="-883.9" font-family="Arial" font-size="14.00" fill="#666666">[varchar(255)]</text>
<polygon fill="none" stroke="#000000" points="509,-842.5 509,-872.5 764,-872.5 764,-842.5 509,-842.5"/>
<text text-anchor="start" x="515.5386" y="-853.9" font-family="Arial" font-size="14.00" fill="#000000">annotation_version_id    </text>
<text text-anchor="start" x="686.6788" y="-853.9" font-family="Arial" font-size="14.00" fill="#666666">[binary(16)]</text>
</g>
<!-- genes&#45;&gt;annotation_versions -->
<g id="edge3" class="edge">
<title>genes:annotation_version_id&#45;&gt;annotation_versions:id</title>
<path fill="none" stroke="#000000" d="M636.6673,-832.4761C629.854,-732.62 520.3045,-745.7562 486,-644 472.2988,-603.3585 443.1111,-547.5 486,-547.5"/>
<polygon fill="#000000" stroke="#000000" points="636.6682,-832.5055 632.5025,-842.6493 636.8341,-837.5028 637,-842.5 637,-842.5 637,-842.5 636.8341,-837.5028 641.4975,-842.3507 636.6682,-832.5055 636.6682,-832.5055"/>
<text text-anchor="start" x="458.918" y="-826.5" font-family="Arial" font-size="10.00" fill="#000000">FOREIGN KEY (annotation_version_id) REFERENCES annotation_versions (id)</text>
</g>
<!-- gff_records -->
<g id="node4" class="node">
<title>gff_records</title>
<polygon fill="#efefef" stroke="transparent" points="868,-1052.5 868,-1087.5 1123,-1087.5 1123,-1052.5 868,-1052.5"/>
<polygon fill="none" stroke="#000000" points="868,-1052.5 868,-1087.5 1123,-1087.5 1123,-1052.5 868,-1052.5"/>
<text text-anchor="start" x="886.7061" y="-1065.3" font-family="Arial Bold" font-size="18.00" fill="#000000">gff_records</text>
<text text-anchor="start" x="976.7259" y="-1065.3" font-family="Arial" font-size="14.00" fill="#000000">    </text>
<text text-anchor="start" x="1010.9307" y="-1065.3" font-family="Arial" font-size="14.00" fill="#666666">[BASE TABLE]</text>
<polygon fill="none" stroke="#000000" points="868,-1022.5 868,-1052.5 1123,-1052.5 1123,-1022.5 868,-1022.5"/>
<text text-anchor="start" x="875" y="-1033.9" font-family="Arial" font-size="14.00" fill="#000000">id    </text>
<text text-anchor="start" x="920.094" y="-1033.9" font-family="Arial" font-size="14.00" fill="#666666">[binary(16)]</text>
<polygon fill="none" stroke="#000000" points="868,-992.5 868,-1022.5 1123,-1022.5 1123,-992.5 868,-992.5"/>
<text text-anchor="start" x="874.5386" y="-1003.9" font-family="Arial" font-size="14.00" fill="#000000">annotation_version_id    </text>
<text text-anchor="start" x="1045.6788" y="-1003.9" font-family="Arial" font-size="14.00" fill="#666666">[binary(16)]</text>
<polygon fill="none" stroke="#000000" points="868,-962.5 868,-992.5 1123,-992.5 1123,-962.5 868,-962.5"/>
<text text-anchor="start" x="875" y="-973.9" font-family="Arial" font-size="14.00" fill="#000000">seqname    </text>
<text text-anchor="start" x="966.7784" y="-973.9" font-family="Arial" font-size="14.00" fill="#666666">[varchar(255)]</text>
<polygon fill="none" stroke="#000000" points="868,-932.5 868,-962.5 1123,-962.5 1123,-932.5 868,-932.5"/>
<text text-anchor="start" x="875" y="-943.9" font-family="Arial" font-size="14.00" fill="#000000">source    </text>
<text text-anchor="start" x="951.2132" y="-943.9" font-family="Arial" font-size="14.00" fill="#666666">[varchar(255)]</text>
<polygon fill="none" stroke="#000000" points="868,-902.5 868,-932.5 1123,-932.5 1123,-902.5 868,-902.5"/>
<text text-anchor="start" x="875" y="-913.9" font-family="Arial" font-size="14.00" fill="#000000">type    </text>
<text text-anchor="start" x="935.6606" y="-913.9" font-family="Arial" font-size="14.00" fill="#666666">[varchar(255)]</text>
<polygon fill="none" stroke="#000000" points="868,-872.5 868,-902.5 1123,-902.5 1123,-872.5 868,-872.5"/>
<text text-anchor="start" x="875" y="-883.9" font-family="Arial" font-size="14.00" fill="#000000">start    </text>
<text text-anchor="start" x="936.4292" y="-883.9" font-family="Arial" font-size="14.00" fill="#666666">[int]</text>
<polygon fill="none" stroke="#000000" points="868,-842.5 868,-872.5 1123,-872.5 1123,-842.5 868,-842.5"/>
<text text-anchor="start" x="875" y="-853.9" font-family="Arial" font-size="14.00" fill="#000000">end    </text>
<text text-anchor="start" x="932.5526" y="-853.9" font-family="Arial" font-size="14.00" fill="#666666">[int]</text>
<polygon fill="none" stroke="#000000" points="868,-812.5 868,-842.5 1123,-842.5 1123,-812.5 868,-812.5"/>
<text text-anchor="start" x="875" y="-823.9" font-family="Arial" font-size="14.00" fill="#000000">score    </text>
<text text-anchor="start" x="943.4306" y="-823.9" font-family="Arial" font-size="14.00" fill="#666666">[float]</text>
<polygon fill="none" stroke="#000000" points="868,-782.5 868,-812.5 1123,-812.5 1123,-782.5 868,-782.5"/>
<text text-anchor="start" x="875" y="-793.9" font-family="Arial" font-size="14.00" fill="#000000">strand    </text>
<text text-anchor="start" x="948.1038" y="-793.9" font-family="Arial" font-size="14.00" fill="#666666">[char(1)]</text>
<polygon fill="none" stroke="#000000" points="868,-752.5 868,-782.5 1123,-782.5 1123,-752.5 868,-752.5"/>
<text text-anchor="start" x="875" y="-763.9" font-family="Arial" font-size="14.00" fill="#000000">phase    </text>
<text text-anchor="start" x="947.3352" y="-763.9" font-family="Arial" font-size="14.00" fill="#666666">[char(1)]</text>
<polygon fill="none" stroke="#000000" points="868,-722.5 868,-752.5 1123,-752.5 1123,-722.5 868,-722.5"/>
<text text-anchor="start" x="875" y="-733.9" font-family="Arial" font-size="14.00" fill="#000000">attributes    </text>
<text text-anchor="start" x="966.7742" y="-733.9" font-family="Arial" font-size="14.00" fill="#666666">[json]</text>
</g>
<!-- gff_records&#45;&gt;annotation_versions -->
<g id="edge4" class="edge">
<title>gff_records:annotation_version_id&#45;&gt;annotation_versions:id</title>
<path fill="none" stroke="#000000" d="M857.8943,-1005.8343C772.9233,-975.7248 888.1089,-547.5 788,-547.5"/>
<polygon fill="#000000" stroke="#000000" points="858.1331,-1005.8736 867.2681,-1011.9401 863.0666,-1006.6868 868,-1007.5 868,-1007.5 868,-1007.5 863.0666,-1006.6868 868.7319,-1003.0599 858.1331,-1005.8736 858.1331,-1005.8736"/>
<text text-anchor="start" x="504.918" y="-1017.5" font-family="Arial" font-size="10.00" fill="#000000">FOREIGN KEY (annotation_version_id) REFERENCES annotation_versions (id)</text>
</g>
<!-- transcripts -->
<g id="node5" class="node">
<title>transcripts</title>
<polygon fill="#efefef" stroke="transparent" points="1227,-1007.5 1227,-1042.5 1482,-1042.5 1482,-1007.5 1227,-1007.5"/>
<polygon fill="none" stroke="#000000" points="1227,-1007.5 1227,-1042.5 1482,-1042.5 1482,-1007.5 1227,-1007.5"/>
<text text-anchor="start" x="1249.2152" y="-1020.3" font-family="Arial Bold" font-size="18.00" fill="#000000">transcripts</text>
<text text-anchor="start" x="1332.2168" y="-1020.3" font-family="Arial" font-size="14.00" fill="#000000">    </text>
<text text-anchor="start" x="1366.4216" y="-1020.3" font-family="Arial" font-size="14.00" fill="#666666">[BASE TABLE]</text>
<polygon fill="none" stroke="#000000" points="1227,-977.5 1227,-1007.5 1482,-1007.5 1482,-977.5 1227,-977.5"/>
<text text-anchor="start" x="1234" y="-988.9" font-family="Arial" font-size="14.00" fill="#000000">id    </text>
<text text-anchor="start" x="1279.094" y="-988.9" font-family="Arial" font-size="14.00" fill="#666666">[binary(16)]</text>
<polygon fill="none" stroke="#000000" points="1227,-947.5 1227,-977.5 1482,-977.5 1482,-947.5 1227,-947.5"/>
<text text-anchor="start" x="1234" y="-958.9" font-family="Arial" font-size="14.00" fill="#000000">transcript_id    </text>
<text text-anchor="start" x="1344.4334" y="-958.9" font-family="Arial" font-size="14.00" fill="#666666">[varchar(255)]</text>
<polygon fill="none" stroke="#000000" points="1227,-917.5 1227,-947.5 1482,-947.5 1482,-917.5 1227,-917.5"/>
<text text-anchor="start" x="1234" y="-928.9" font-family="Arial" font-size="14.00" fill="#000000">transcript_type    </text>
<text text-anchor="start" x="1360" y="-928.9" font-family="Arial" font-size="14.00" fill="#666666">[varchar(255)]</text>
<polygon fill="none" stroke="#000000" points="1227,-887.5 1227,-917.5 1482,-917.5 1482,-887.5 1227,-887.5"/>
<text text-anchor="start" x="1234" y="-898.9" font-family="Arial" font-size="14.00" fill="#000000">start    </text>
<text text-anchor="start" x="1295.4292" y="-898.9" font-family="Arial" font-size="14.00" fill="#666666">[int]</text>
<polygon fill="none" stroke="#000000" points="1227,-857.5 1227,-887.5 1482,-887.5 1482,-857.5 1227,-857.5"/>
<text text-anchor="start" x="1234" y="-868.9" font-family="Arial" font-size="14.00" fill="#000000">end    </text>
<text text-anchor="start" x="1291.5526" y="-868.9" font-family="Arial" font-size="14.00" fill="#666666">[int]</text>
<polygon fill="none" stroke="#000000" points="1227,-827.5 1227,-857.5 1482,-857.5 1482,-827.5 1227,-827.5"/>
<text text-anchor="start" x="1234" y="-838.9" font-family="Arial" font-size="14.00" fill="#000000">strand    </text>
<text text-anchor="start" x="1307.1038" y="-838.9" font-family="Arial" font-size="14.00" fill="#666666">[char(1)]</text>
<polygon fill="none" stroke="#000000" points="1227,-797.5 1227,-827.5 1482,-827.5 1482,-797.5 1227,-797.5"/>
<text text-anchor="start" x="1233.5386" y="-808.9" font-family="Arial" font-size="14.00" fill="#000000">annotation_version_id    </text>
<text text-anchor="start" x="1404.6788" y="-808.9" font-family="Arial" font-size="14.00" fill="#666666">[binary(16)]</text>
<polygon fill="none" stroke="#000000" points="1227,-767.5 1227,-797.5 1482,-797.5 1482,-767.5 1227,-767.5"/>
<text text-anchor="start" x="1234" y="-778.9" font-family="Arial" font-size="14.00" fill="#000000">gene_id    </text>
<text text-anchor="start" x="1318.007" y="-778.9" font-family="Arial" font-size="14.00" fill="#666666">[binary(16)]</text>
</g>
<!-- transcripts&#45;&gt;annotation_versions -->
<g id="edge5" class="edge">
<title>transcripts:annotation_version_id&#45;&gt;annotation_versions:id</title>
<path fill="none" stroke="#000000" d="M1216.7819,-811.5535C1170.2607,-801.9162 1217.9409,-721.0871 1175,-680 1043.6426,-554.3133 969.8018,-547.5 788,-547.5"/>
<polygon fill="#000000" stroke="#000000" points="1217.0426,-811.5775 1226.5849,-816.9808 1222.0213,-812.0388 1227,-812.5 1227,-812.5 1227,-812.5 1222.0213,-812.0388 1227.4151,-808.0192 1217.0426,-811.5775 1217.0426,-811.5775"/>
<text text-anchor="start" x="1233.918" y="-822.5" font-family="Arial" font-size="10.00" fill="#000000">FOREIGN KEY (annotation_version_id) REFERENCES annotation_versions (id)</text>
</g>
</g>
</svg>
