<?xml version="1.0" encoding="UTF-8" standalone="no"?>
<!DOCTYPE svg PUBLIC "-//W3C//DTD SVG 1.1//EN"
 "http://www.w3.org/Graphics/SVG/1.1/DTD/svg11.dtd">
<!-- Generated by graphviz version 2.40.1 (20161225.0304)
 -->
<!-- Title: annotation_models Pages: 1 -->
<svg width="621pt" height="869pt"
 viewBox="0.00 0.00 620.50 869.00" xmlns="http://www.w3.org/2000/svg" xmlns:xlink="http://www.w3.org/1999/xlink">
<g id="graph0" class="graph" transform="scale(1 1) rotate(0) translate(4 865)">
<title>annotation_models</title>
<polygon fill="#ffffff" stroke="transparent" points="-4,4 -4,-865 616.5,-865 616.5,4 -4,4"/>
<!-- annotation_models -->
<g id="node1" class="node">
<title>annotation_models</title>
<polygon fill="#efefef" stroke="transparent" points="46.5,-502.5 46.5,-537.5 339.5,-537.5 339.5,-502.5 46.5,-502.5"/>
<polygon fill="none" stroke="#000000" points="46.5,-502.5 46.5,-537.5 339.5,-537.5 339.5,-502.5 46.5,-502.5"/>
<text text-anchor="start" x="53.1894" y="-515.3" font-family="Arial Bold" font-size="18.00" fill="#000000">annotation_models</text>
<text text-anchor="start" x="205.2426" y="-515.3" font-family="Arial" font-size="14.00" fill="#000000">    </text>
<text text-anchor="start" x="239.4474" y="-515.3" font-family="Arial" font-size="14.00" fill="#666666">[BASE TABLE]</text>
<polygon fill="none" stroke="#000000" points="46.5,-472.5 46.5,-502.5 339.5,-502.5 339.5,-472.5 46.5,-472.5"/>
<text text-anchor="start" x="53.5" y="-483.9" font-family="Arial" font-size="14.00" fill="#000000">id </text>
<text text-anchor="start" x="68.2798" y="-483.9" font-family="Arial" font-size="14.00" fill="#666666">[binary(16)]</text>
<polygon fill="none" stroke="#000000" points="46.5,-442.5 46.5,-472.5 339.5,-472.5 339.5,-442.5 46.5,-442.5"/>
<text text-anchor="start" x="53.5" y="-453.9" font-family="Arial" font-size="14.00" fill="#000000">version </text>
<text text-anchor="start" x="102.5056" y="-453.9" font-family="Arial" font-size="14.00" fill="#666666">[varchar(255)]</text>
<polygon fill="none" stroke="#000000" points="46.5,-412.5 46.5,-442.5 339.5,-442.5 339.5,-412.5 46.5,-412.5"/>
<text text-anchor="start" x="53.5" y="-423.9" font-family="Arial" font-size="14.00" fill="#000000">genome_id </text>
<text text-anchor="start" x="126.636" y="-423.9" font-family="Arial" font-size="14.00" fill="#666666">[binary(16)]</text>
<polygon fill="none" stroke="#000000" points="46.5,-382.5 46.5,-412.5 339.5,-412.5 339.5,-382.5 46.5,-382.5"/>
<text text-anchor="start" x="53.5" y="-393.9" font-family="Arial" font-size="14.00" fill="#000000">created_at </text>
<text text-anchor="start" x="123.528" y="-393.9" font-family="Arial" font-size="14.00" fill="#666666">[datetime]</text>
<polygon fill="none" stroke="#000000" points="46.5,-352.5 46.5,-382.5 339.5,-382.5 339.5,-352.5 46.5,-352.5"/>
<text text-anchor="start" x="53.5" y="-363.9" font-family="Arial" font-size="14.00" fill="#000000">updated_at </text>
<text text-anchor="start" x="127.4326" y="-363.9" font-family="Arial" font-size="14.00" fill="#666666">[datetime]</text>
<polygon fill="none" stroke="#000000" stroke-width="3" points="44.5,-351.5 44.5,-539.5 340.5,-539.5 340.5,-351.5 44.5,-351.5"/>
</g>
<!-- genomes -->
<g id="node3" class="node">
<title>genomes</title>
<polygon fill="#efefef" stroke="transparent" points="55.5,-192.5 55.5,-227.5 331.5,-227.5 331.5,-192.5 55.5,-192.5"/>
<polygon fill="none" stroke="#000000" points="55.5,-192.5 55.5,-227.5 331.5,-227.5 331.5,-192.5 55.5,-192.5"/>
<text text-anchor="start" x="92.7044" y="-205.3" font-family="Arial Bold" font-size="18.00" fill="#000000">genomes</text>
<text text-anchor="start" x="166.7276" y="-205.3" font-family="Arial" font-size="14.00" fill="#000000">    </text>
<text text-anchor="start" x="200.9324" y="-205.3" font-family="Arial" font-size="14.00" fill="#666666">[BASE TABLE]</text>
<polygon fill="none" stroke="#000000" points="55.5,-162.5 55.5,-192.5 331.5,-192.5 331.5,-162.5 55.5,-162.5"/>
<text text-anchor="start" x="62.5" y="-173.9" font-family="Arial" font-size="14.00" fill="#000000">id    </text>
<text text-anchor="start" x="107.594" y="-173.9" font-family="Arial" font-size="14.00" fill="#666666">[binary(16)]</text>
<polygon fill="none" stroke="#000000" points="55.5,-132.5 55.5,-162.5 331.5,-162.5 331.5,-132.5 55.5,-132.5"/>
<text text-anchor="start" x="62.5" y="-143.9" font-family="Arial" font-size="14.00" fill="#000000">genome_version    </text>
<text text-anchor="start" x="200.176" y="-143.9" font-family="Arial" font-size="14.00" fill="#666666">[varchar(255)]</text>
<polygon fill="none" stroke="#000000" points="55.5,-102.5 55.5,-132.5 331.5,-132.5 331.5,-102.5 55.5,-102.5"/>
<text text-anchor="start" x="62.4236" y="-113.9" font-family="Arial" font-size="14.00" fill="#000000">organism_taxonomy_id    </text>
<text text-anchor="start" x="241.3226" y="-113.9" font-family="Arial" font-size="14.00" fill="#666666">[int unsigned]</text>
<polygon fill="none" stroke="#000000" points="55.5,-72.5 55.5,-102.5 331.5,-102.5 331.5,-72.5 55.5,-72.5"/>
<text text-anchor="start" x="62.5" y="-83.9" font-family="Arial" font-size="14.00" fill="#000000">created_at    </text>
<text text-anchor="start" x="162.8422" y="-83.9" font-family="Arial" font-size="14.00" fill="#666666">[datetime]</text>
<polygon fill="none" stroke="#000000" points="55.5,-42.5 55.5,-72.5 331.5,-72.5 331.5,-42.5 55.5,-42.5"/>
<text text-anchor="start" x="62.5" y="-53.9" font-family="Arial" font-size="14.00" fill="#000000">updated_at    </text>
<text text-anchor="start" x="166.7468" y="-53.9" font-family="Arial" font-size="14.00" fill="#666666">[datetime]</text>
</g>
<!-- annotation_models&#45;&gt;genomes -->
<g id="edge2" class="edge">
<title>annotation_models:genome_id&#45;&gt;genomes:id</title>
<path fill="none" stroke="#000000" d="M349.4953,-426.4125C390.4938,-416.7063 372.4879,-344.4334 339.5,-307 255.38,-211.5438 139.62,-366.4562 55.5,-271 28.0254,-239.8229 13.9444,-177.5 55.5,-177.5"/>
<polygon fill="#000000" stroke="#000000" points="349.4413,-426.4183 339.0132,-423.0264 344.4707,-426.9591 339.5,-427.5 339.5,-427.5 339.5,-427.5 344.4707,-426.9591 339.9868,-431.9736 349.4413,-426.4183 349.4413,-426.4183"/>
<text text-anchor="start" x="346.768" y="-437.5" font-family="Arial" font-size="10.00" fill="#000000">FOREIGN KEY (genome_id) REFERENCES genomes (id)</text>
</g>
<!-- gene_models -->
<g id="node2" class="node">
<title>gene_models</title>
<polygon fill="#efefef" stroke="transparent" points="68.5,-782.5 68.5,-817.5 317.5,-817.5 317.5,-782.5 68.5,-782.5"/>
<polygon fill="none" stroke="#000000" points="68.5,-782.5 68.5,-817.5 317.5,-817.5 317.5,-782.5 68.5,-782.5"/>
<text text-anchor="start" x="75.198" y="-795.3" font-family="Arial Bold" font-size="18.00" fill="#000000">gene_models</text>
<text text-anchor="start" x="183.234" y="-795.3" font-family="Arial" font-size="14.00" fill="#000000">    </text>
<text text-anchor="start" x="217.4388" y="-795.3" font-family="Arial" font-size="14.00" fill="#666666">[BASE TABLE]</text>
<polygon fill="none" stroke="#000000" points="68.5,-752.5 68.5,-782.5 317.5,-782.5 317.5,-752.5 68.5,-752.5"/>
<text text-anchor="start" x="75.5" y="-763.9" font-family="Arial" font-size="14.00" fill="#000000">id    </text>
<text text-anchor="start" x="120.594" y="-763.9" font-family="Arial" font-size="14.00" fill="#666666">[binary(16)]</text>
<polygon fill="none" stroke="#000000" points="68.5,-722.5 68.5,-752.5 317.5,-752.5 317.5,-722.5 68.5,-722.5"/>
<text text-anchor="start" x="75.5" y="-733.9" font-family="Arial" font-size="14.00" fill="#000000">taxonomy_id    </text>
<text text-anchor="start" x="189.0582" y="-733.9" font-family="Arial" font-size="14.00" fill="#666666">[int unsigned]</text>
<polygon fill="none" stroke="#000000" points="68.5,-692.5 68.5,-722.5 317.5,-722.5 317.5,-692.5 68.5,-692.5"/>
<text text-anchor="start" x="75.5" y="-703.9" font-family="Arial" font-size="14.00" fill="#000000">genome_id    </text>
<text text-anchor="start" x="178.9502" y="-703.9" font-family="Arial" font-size="14.00" fill="#666666">[binary(16)]</text>
<polygon fill="none" stroke="#000000" points="68.5,-662.5 68.5,-692.5 317.5,-692.5 317.5,-662.5 68.5,-662.5"/>
<text text-anchor="start" x="75.5" y="-673.9" font-family="Arial" font-size="14.00" fill="#000000">annotation_model_id    </text>
<text text-anchor="start" x="239.6402" y="-673.9" font-family="Arial" font-size="14.00" fill="#666666">[binary(16)]</text>
</g>
<!-- gene_models&#45;&gt;annotation_models -->
<g id="edge1" class="edge">
<title>gene_models:annotation_model_id&#45;&gt;annotation_models:id</title>
<path fill="none" stroke="#000000" d="M192.681,-652.2132C182.6214,-594.1194 82.6553,-644.295 46.5,-584 24.4436,-547.2172 3.6111,-487.5 46.5,-487.5"/>
<polygon fill="#000000" stroke="#000000" points="192.7062,-652.5315 189.0142,-662.8572 193.1031,-657.5158 193.5,-662.5 193.5,-662.5 193.5,-662.5 193.1031,-657.5158 197.9858,-662.1428 192.7062,-652.5315 192.7062,-652.5315"/>
<text text-anchor="start" x="200.418" y="-672.5" font-family="Arial" font-size="10.00" fill="#000000">FOREIGN KEY (annotation_model_id) REFERENCES annotation_models (id)</text>
</g>
</g>
</svg>
