<?xml version="1.0" encoding="UTF-8" standalone="no"?>
<!DOCTYPE svg PUBLIC "-//W3C//DTD SVG 1.1//EN"
 "http://www.w3.org/Graphics/SVG/1.1/DTD/svg11.dtd">
<!-- Generated by graphviz version 2.40.1 (20161225.0304)
 -->
<!-- Title: domains Pages: 1 -->
<svg width="620pt" height="502pt"
 viewBox="0.00 0.00 619.50 502.00" xmlns="http://www.w3.org/2000/svg" xmlns:xlink="http://www.w3.org/1999/xlink">
<g id="graph0" class="graph" transform="scale(1 1) rotate(0) translate(4 498)">
<title>domains</title>
<polygon fill="#ffffff" stroke="transparent" points="-4,4 -4,-498 615.5,-498 615.5,4 -4,4"/>
<!-- domains -->
<g id="node1" class="node">
<title>domains</title>
<polygon fill="#efefef" stroke="transparent" points="313,-135.5 313,-170.5 522,-170.5 522,-135.5 313,-135.5"/>
<polygon fill="none" stroke="#000000" points="313,-135.5 313,-170.5 522,-170.5 522,-135.5 313,-135.5"/>
<text text-anchor="start" x="319.7104" y="-148.3" font-family="Arial Bold" font-size="18.00" fill="#000000">domains</text>
<text text-anchor="start" x="387.7216" y="-148.3" font-family="Arial" font-size="14.00" fill="#000000">    </text>
<text text-anchor="start" x="421.9264" y="-148.3" font-family="Arial" font-size="14.00" fill="#666666">[BASE TABLE]</text>
<polygon fill="none" stroke="#000000" points="313,-105.5 313,-135.5 522,-135.5 522,-105.5 313,-105.5"/>
<text text-anchor="start" x="320" y="-116.9" font-family="Arial" font-size="14.00" fill="#000000">id </text>
<text text-anchor="start" x="334.7798" y="-116.9" font-family="Arial" font-size="14.00" fill="#666666">[varchar(255)]</text>
<polygon fill="none" stroke="#000000" points="313,-75.5 313,-105.5 522,-105.5 522,-75.5 313,-75.5"/>
<text text-anchor="start" x="320" y="-86.9" font-family="Arial" font-size="14.00" fill="#000000">name </text>
<text text-anchor="start" x="358.899" y="-86.9" font-family="Arial" font-size="14.00" fill="#666666">[varchar(255)]</text>
<polygon fill="none" stroke="#000000" points="313,-45.5 313,-75.5 522,-75.5 522,-45.5 313,-45.5"/>
<text text-anchor="start" x="320" y="-56.9" font-family="Arial" font-size="14.00" fill="#000000">description </text>
<text text-anchor="start" x="391.568" y="-56.9" font-family="Arial" font-size="14.00" fill="#666666">[text]</text>
<polygon fill="none" stroke="#000000" stroke-width="3" points="311,-44.5 311,-172.5 523,-172.5 523,-44.5 311,-44.5"/>
</g>
<!-- domain_annotations -->
<g id="node2" class="node">
<title>domain_annotations</title>
<polygon fill="#efefef" stroke="transparent" points="266,-415.5 266,-450.5 569,-450.5 569,-415.5 266,-415.5"/>
<polygon fill="none" stroke="#000000" points="266,-415.5 266,-450.5 569,-450.5 569,-415.5 266,-415.5"/>
<text text-anchor="start" x="272.6863" y="-428.3" font-family="Arial Bold" font-size="18.00" fill="#000000">domain_annotations</text>
<text text-anchor="start" x="434.7457" y="-428.3" font-family="Arial" font-size="14.00" fill="#000000">    </text>
<text text-anchor="start" x="468.9505" y="-428.3" font-family="Arial" font-size="14.00" fill="#666666">[BASE TABLE]</text>
<polygon fill="none" stroke="#000000" points="266,-385.5 266,-415.5 569,-415.5 569,-385.5 266,-385.5"/>
<text text-anchor="start" x="273" y="-396.9" font-family="Arial" font-size="14.00" fill="#000000">domain_id    </text>
<text text-anchor="start" x="371.7742" y="-396.9" font-family="Arial" font-size="14.00" fill="#666666">[varchar(255)]</text>
<polygon fill="none" stroke="#000000" points="266,-355.5 266,-385.5 569,-385.5 569,-355.5 266,-355.5"/>
<text text-anchor="start" x="273" y="-366.9" font-family="Arial" font-size="14.00" fill="#000000">transcript_id    </text>
<text text-anchor="start" x="383.4334" y="-366.9" font-family="Arial" font-size="14.00" fill="#666666">[binary(16)]</text>
<polygon fill="none" stroke="#000000" points="266,-325.5 266,-355.5 569,-355.5 569,-325.5 266,-325.5"/>
<text text-anchor="start" x="273" y="-336.9" font-family="Arial" font-size="14.00" fill="#000000">start    </text>
<text text-anchor="start" x="334.4292" y="-336.9" font-family="Arial" font-size="14.00" fill="#666666">[int]</text>
<polygon fill="none" stroke="#000000" points="266,-295.5 266,-325.5 569,-325.5 569,-295.5 266,-295.5"/>
<text text-anchor="start" x="273" y="-306.9" font-family="Arial" font-size="14.00" fill="#000000">end    </text>
<text text-anchor="start" x="330.5526" y="-306.9" font-family="Arial" font-size="14.00" fill="#666666">[int]</text>
</g>
<!-- domain_annotations&#45;&gt;domains -->
<g id="edge1" class="edge">
<title>domain_annotations:domain_id&#45;&gt;domains:id</title>
<path fill="none" stroke="#000000" d="M255.6937,-399.839C142.5402,-384.8652 190.3882,-120.5 313,-120.5"/>
<polygon fill="#000000" stroke="#000000" points="256.0205,-399.8599 265.7119,-404.9908 261.0103,-400.1799 266,-400.5 266,-400.5 266,-400.5 261.0103,-400.1799 266.2881,-396.0092 256.0205,-399.8599 256.0205,-399.8599"/>
<text text-anchor="start" x="6.608" y="-410.5" font-family="Arial" font-size="10.00" fill="#000000">FOREIGN KEY (domain_id) REFERENCES domains (id)</text>
</g>
</g>
</svg>
