<?xml version="1.0" encoding="UTF-8" standalone="no"?>
<!DOCTYPE svg PUBLIC "-//W3C//DTD SVG 1.1//EN"
 "http://www.w3.org/Graphics/SVG/1.1/DTD/svg11.dtd">
<!-- Generated by graphviz version 2.40.1 (20161225.0304)
 -->
<!-- Title: domain_annotations Pages: 1 -->
<svg width="860pt" height="652pt"
 viewBox="0.00 0.00 860.00 652.00" xmlns="http://www.w3.org/2000/svg" xmlns:xlink="http://www.w3.org/1999/xlink">
<g id="graph0" class="graph" transform="scale(1 1) rotate(0) translate(4 648)">
<title>domain_annotations</title>
<polygon fill="#ffffff" stroke="transparent" points="-4,4 -4,-648 856,-648 856,4 -4,4"/>
<!-- domain_annotations -->
<g id="node1" class="node">
<title>domain_annotations</title>
<polygon fill="#efefef" stroke="transparent" points="266,-562.5 266,-597.5 569,-597.5 569,-562.5 266,-562.5"/>
<polygon fill="none" stroke="#000000" points="266,-562.5 266,-597.5 569,-597.5 569,-562.5 266,-562.5"/>
<text text-anchor="start" x="272.6863" y="-575.3" font-family="Arial Bold" font-size="18.00" fill="#000000">domain_annotations</text>
<text text-anchor="start" x="434.7457" y="-575.3" font-family="Arial" font-size="14.00" fill="#000000">    </text>
<text text-anchor="start" x="468.9505" y="-575.3" font-family="Arial" font-size="14.00" fill="#666666">[BASE TABLE]</text>
<polygon fill="none" stroke="#000000" points="266,-532.5 266,-562.5 569,-562.5 569,-532.5 266,-532.5"/>
<text text-anchor="start" x="273" y="-543.9" font-family="Arial" font-size="14.00" fill="#000000">domain_id </text>
<text text-anchor="start" x="341.46" y="-543.9" font-family="Arial" font-size="14.00" fill="#666666">[varchar(255)]</text>
<polygon fill="none" stroke="#000000" points="266,-502.5 266,-532.5 569,-532.5 569,-502.5 266,-502.5"/>
<text text-anchor="start" x="273" y="-513.9" font-family="Arial" font-size="14.00" fill="#000000">transcript_id </text>
<text text-anchor="start" x="353.1192" y="-513.9" font-family="Arial" font-size="14.00" fill="#666666">[binary(16)]</text>
<polygon fill="none" stroke="#000000" points="266,-472.5 266,-502.5 569,-502.5 569,-472.5 266,-472.5"/>
<text text-anchor="start" x="273" y="-483.9" font-family="Arial" font-size="14.00" fill="#000000">start </text>
<text text-anchor="start" x="304.115" y="-483.9" font-family="Arial" font-size="14.00" fill="#666666">[int]</text>
<polygon fill="none" stroke="#000000" points="266,-442.5 266,-472.5 569,-472.5 569,-442.5 266,-442.5"/>
<text text-anchor="start" x="273" y="-453.9" font-family="Arial" font-size="14.00" fill="#000000">end </text>
<text text-anchor="start" x="300.2384" y="-453.9" font-family="Arial" font-size="14.00" fill="#666666">[int]</text>
<polygon fill="none" stroke="#000000" stroke-width="3" points="264,-441.5 264,-599.5 570,-599.5 570,-441.5 264,-441.5"/>
</g>
<!-- domains -->
<g id="node2" class="node">
<title>domains</title>
<polygon fill="#efefef" stroke="transparent" points="152,-207.5 152,-242.5 361,-242.5 361,-207.5 152,-207.5"/>
<polygon fill="none" stroke="#000000" points="152,-207.5 152,-242.5 361,-242.5 361,-207.5 152,-207.5"/>
<text text-anchor="start" x="158.7104" y="-220.3" font-family="Arial Bold" font-size="18.00" fill="#000000">domains</text>
<text text-anchor="start" x="226.7216" y="-220.3" font-family="Arial" font-size="14.00" fill="#000000">    </text>
<text text-anchor="start" x="260.9264" y="-220.3" font-family="Arial" font-size="14.00" fill="#666666">[BASE TABLE]</text>
<polygon fill="none" stroke="#000000" points="152,-177.5 152,-207.5 361,-207.5 361,-177.5 152,-177.5"/>
<text text-anchor="start" x="159" y="-188.9" font-family="Arial" font-size="14.00" fill="#000000">id    </text>
<text text-anchor="start" x="204.094" y="-188.9" font-family="Arial" font-size="14.00" fill="#666666">[varchar(255)]</text>
<polygon fill="none" stroke="#000000" points="152,-147.5 152,-177.5 361,-177.5 361,-147.5 152,-147.5"/>
<text text-anchor="start" x="159" y="-158.9" font-family="Arial" font-size="14.00" fill="#000000">name    </text>
<text text-anchor="start" x="228.2132" y="-158.9" font-family="Arial" font-size="14.00" fill="#666666">[varchar(255)]</text>
<polygon fill="none" stroke="#000000" points="152,-117.5 152,-147.5 361,-147.5 361,-117.5 152,-117.5"/>
<text text-anchor="start" x="159" y="-128.9" font-family="Arial" font-size="14.00" fill="#000000">description    </text>
<text text-anchor="start" x="260.8822" y="-128.9" font-family="Arial" font-size="14.00" fill="#666666">[text]</text>
</g>
<!-- domain_annotations&#45;&gt;domains -->
<g id="edge1" class="edge">
<title>domain_annotations:domain_id&#45;&gt;domains:id</title>
<path fill="none" stroke="#000000" d="M255.9969,-546.7311C203.83,-537.9764 244.0843,-456.3115 266,-397 288.5062,-336.0905 338.4938,-346.9095 361,-286 375.4031,-247.0203 402.5556,-192.5 361,-192.5"/>
<polygon fill="#000000" stroke="#000000" points="256.0294,-546.7335 265.6551,-551.9868 261.0147,-547.1167 266,-547.5 266,-547.5 266,-547.5 261.0147,-547.1167 266.3449,-543.0132 256.0294,-546.7335 256.0294,-546.7335"/>
<text text-anchor="start" x="6.608" y="-557.5" font-family="Arial" font-size="10.00" fill="#000000">FOREIGN KEY (domain_id) REFERENCES domains (id)</text>
</g>
<!-- transcripts -->
<g id="node3" class="node">
<title>transcripts</title>
<polygon fill="#efefef" stroke="transparent" points="465,-282.5 465,-317.5 692,-317.5 692,-282.5 465,-282.5"/>
<polygon fill="none" stroke="#000000" points="465,-282.5 465,-317.5 692,-317.5 692,-282.5 465,-282.5"/>
<text text-anchor="start" x="473.2152" y="-295.3" font-family="Arial Bold" font-size="18.00" fill="#000000">transcripts</text>
<text text-anchor="start" x="556.2168" y="-295.3" font-family="Arial" font-size="14.00" fill="#000000">    </text>
<text text-anchor="start" x="590.4216" y="-295.3" font-family="Arial" font-size="14.00" fill="#666666">[BASE TABLE]</text>
<polygon fill="none" stroke="#000000" points="465,-252.5 465,-282.5 692,-282.5 692,-252.5 465,-252.5"/>
<text text-anchor="start" x="472" y="-263.9" font-family="Arial" font-size="14.00" fill="#000000">id    </text>
<text text-anchor="start" x="517.094" y="-263.9" font-family="Arial" font-size="14.00" fill="#666666">[binary(16)]</text>
<polygon fill="none" stroke="#000000" points="465,-222.5 465,-252.5 692,-252.5 692,-222.5 465,-222.5"/>
<text text-anchor="start" x="472" y="-233.9" font-family="Arial" font-size="14.00" fill="#000000">transcript_id    </text>
<text text-anchor="start" x="582.4334" y="-233.9" font-family="Arial" font-size="14.00" fill="#666666">[varchar(255)]</text>
<polygon fill="none" stroke="#000000" points="465,-192.5 465,-222.5 692,-222.5 692,-192.5 465,-192.5"/>
<text text-anchor="start" x="472" y="-203.9" font-family="Arial" font-size="14.00" fill="#000000">gene_model_id    </text>
<text text-anchor="start" x="601.9046" y="-203.9" font-family="Arial" font-size="14.00" fill="#666666">[binary(16)]</text>
<polygon fill="none" stroke="#000000" points="465,-162.5 465,-192.5 692,-192.5 692,-162.5 465,-162.5"/>
<text text-anchor="start" x="472" y="-173.9" font-family="Arial" font-size="14.00" fill="#000000">gene_id    </text>
<text text-anchor="start" x="556.007" y="-173.9" font-family="Arial" font-size="14.00" fill="#666666">[binary(16)]</text>
<polygon fill="none" stroke="#000000" points="465,-132.5 465,-162.5 692,-162.5 692,-132.5 465,-132.5"/>
<text text-anchor="start" x="471.9404" y="-143.9" font-family="Arial" font-size="14.00" fill="#000000">transcript_type    </text>
<text text-anchor="start" x="597.9404" y="-143.9" font-family="Arial" font-size="14.00" fill="#666666">[varchar(255)]</text>
<polygon fill="none" stroke="#000000" points="465,-102.5 465,-132.5 692,-132.5 692,-102.5 465,-102.5"/>
<text text-anchor="start" x="472" y="-113.9" font-family="Arial" font-size="14.00" fill="#000000">start    </text>
<text text-anchor="start" x="533.4292" y="-113.9" font-family="Arial" font-size="14.00" fill="#666666">[int]</text>
<polygon fill="none" stroke="#000000" points="465,-72.5 465,-102.5 692,-102.5 692,-72.5 465,-72.5"/>
<text text-anchor="start" x="472" y="-83.9" font-family="Arial" font-size="14.00" fill="#000000">end    </text>
<text text-anchor="start" x="529.5526" y="-83.9" font-family="Arial" font-size="14.00" fill="#666666">[int]</text>
<polygon fill="none" stroke="#000000" points="465,-42.5 465,-72.5 692,-72.5 692,-42.5 465,-42.5"/>
<text text-anchor="start" x="472" y="-53.9" font-family="Arial" font-size="14.00" fill="#000000">strand    </text>
<text text-anchor="start" x="545.1038" y="-53.9" font-family="Arial" font-size="14.00" fill="#666666">[char(1)]</text>
</g>
<!-- domain_annotations&#45;&gt;transcripts -->
<g id="edge2" class="edge">
<title>domain_annotations:transcript_id&#45;&gt;transcripts:id</title>
<path fill="none" stroke="#000000" d="M579.1924,-516.3981C619.3503,-506.8539 597.8801,-437.5583 569,-397 540.6285,-357.1559 493.3715,-400.8441 465,-361 440.8962,-327.1493 423.4444,-267.5 465,-267.5"/>
<polygon fill="#000000" stroke="#000000" points="578.9421,-516.4251 568.5163,-513.0261 573.971,-516.9625 569,-517.5 569,-517.5 569,-517.5 573.971,-516.9625 569.4837,-521.9739 578.9421,-516.4251 578.9421,-516.4251"/>
<text text-anchor="start" x="576.28" y="-527.5" font-family="Arial" font-size="10.00" fill="#000000">FOREIGN KEY (transcript_id) REFERENCES transcripts (id)</text>
</g>
</g>
</svg>
