<?xml version="1.0" encoding="UTF-8" standalone="no"?>
<!DOCTYPE svg PUBLIC "-//W3C//DTD SVG 1.1//EN"
 "http://www.w3.org/Graphics/SVG/1.1/DTD/svg11.dtd">
<!-- Generated by graphviz version 2.40.1 (20161225.0304)
 -->
<!-- Title: genes Pages: 1 -->
<svg width="677pt" height="899pt"
 viewBox="0.00 0.00 677.00 899.00" xmlns="http://www.w3.org/2000/svg" xmlns:xlink="http://www.w3.org/1999/xlink">
<g id="graph0" class="graph" transform="scale(1 1) rotate(0) translate(4 895)">
<title>genes</title>
<polygon fill="#ffffff" stroke="transparent" points="-4,4 -4,-895 673,-895 673,4 -4,4"/>
<!-- genes -->
<g id="node1" class="node">
<title>genes</title>
<polygon fill="#efefef" stroke="transparent" points="216,-412.5 216,-447.5 406,-447.5 406,-412.5 216,-412.5"/>
<polygon fill="none" stroke="#000000" points="216,-412.5 216,-447.5 406,-447.5 406,-412.5 216,-412.5"/>
<text text-anchor="start" x="222.7036" y="-425.3" font-family="Arial Bold" font-size="18.00" fill="#000000">genes</text>
<text text-anchor="start" x="271.7284" y="-425.3" font-family="Arial" font-size="14.00" fill="#000000">    </text>
<text text-anchor="start" x="305.9332" y="-425.3" font-family="Arial" font-size="14.00" fill="#666666">[BASE TABLE]</text>
<polygon fill="none" stroke="#000000" points="216,-382.5 216,-412.5 406,-412.5 406,-382.5 216,-382.5"/>
<text text-anchor="start" x="223" y="-393.9" font-family="Arial" font-size="14.00" fill="#000000">id </text>
<text text-anchor="start" x="237.7798" y="-393.9" font-family="Arial" font-size="14.00" fill="#666666">[binary(16)]</text>
<polygon fill="none" stroke="#000000" points="216,-352.5 216,-382.5 406,-382.5 406,-352.5 216,-352.5"/>
<text text-anchor="start" x="223" y="-363.9" font-family="Arial" font-size="14.00" fill="#000000">gene_id </text>
<text text-anchor="start" x="276.6928" y="-363.9" font-family="Arial" font-size="14.00" fill="#666666">[varchar(255)]</text>
<polygon fill="none" stroke="#000000" points="216,-322.5 216,-352.5 406,-352.5 406,-322.5 216,-322.5"/>
<text text-anchor="start" x="223" y="-333.9" font-family="Arial" font-size="14.00" fill="#000000">gene_model_id </text>
<text text-anchor="start" x="322.5904" y="-333.9" font-family="Arial" font-size="14.00" fill="#666666">[binary(16)]</text>
<polygon fill="none" stroke="#000000" stroke-width="3" points="214.5,-321.5 214.5,-449.5 407.5,-449.5 407.5,-321.5 214.5,-321.5"/>
</g>
<!-- gene_models -->
<g id="node3" class="node">
<title>gene_models</title>
<polygon fill="#efefef" stroke="transparent" points="186,-162.5 186,-197.5 435,-197.5 435,-162.5 186,-162.5"/>
<polygon fill="none" stroke="#000000" points="186,-162.5 186,-197.5 435,-197.5 435,-162.5 186,-162.5"/>
<text text-anchor="start" x="192.698" y="-175.3" font-family="Arial Bold" font-size="18.00" fill="#000000">gene_models</text>
<text text-anchor="start" x="300.734" y="-175.3" font-family="Arial" font-size="14.00" fill="#000000">    </text>
<text text-anchor="start" x="334.9388" y="-175.3" font-family="Arial" font-size="14.00" fill="#666666">[BASE TABLE]</text>
<polygon fill="none" stroke="#000000" points="186,-132.5 186,-162.5 435,-162.5 435,-132.5 186,-132.5"/>
<text text-anchor="start" x="193" y="-143.9" font-family="Arial" font-size="14.00" fill="#000000">id    </text>
<text text-anchor="start" x="238.094" y="-143.9" font-family="Arial" font-size="14.00" fill="#666666">[binary(16)]</text>
<polygon fill="none" stroke="#000000" points="186,-102.5 186,-132.5 435,-132.5 435,-102.5 186,-102.5"/>
<text text-anchor="start" x="193" y="-113.9" font-family="Arial" font-size="14.00" fill="#000000">taxonomy_id    </text>
<text text-anchor="start" x="306.5582" y="-113.9" font-family="Arial" font-size="14.00" fill="#666666">[int unsigned]</text>
<polygon fill="none" stroke="#000000" points="186,-72.5 186,-102.5 435,-102.5 435,-72.5 186,-72.5"/>
<text text-anchor="start" x="193" y="-83.9" font-family="Arial" font-size="14.00" fill="#000000">genome_id    </text>
<text text-anchor="start" x="296.4502" y="-83.9" font-family="Arial" font-size="14.00" fill="#666666">[binary(16)]</text>
<polygon fill="none" stroke="#000000" points="186,-42.5 186,-72.5 435,-72.5 435,-42.5 186,-42.5"/>
<text text-anchor="start" x="193" y="-53.9" font-family="Arial" font-size="14.00" fill="#000000">annotation_model_id    </text>
<text text-anchor="start" x="357.1402" y="-53.9" font-family="Arial" font-size="14.00" fill="#666666">[binary(16)]</text>
</g>
<!-- genes&#45;&gt;gene_models -->
<g id="edge2" class="edge">
<title>genes:gene_model_id&#45;&gt;gene_models:id</title>
<path fill="none" stroke="#000000" d="M311.8641,-312.2995C321.3033,-261.042 405.4647,-295.7559 435,-241 454.7281,-204.4259 476.5556,-147.5 435,-147.5"/>
<polygon fill="#000000" stroke="#000000" points="311.8442,-312.5357 306.5161,-322.1201 311.4221,-317.5178 311,-322.5 311,-322.5 311,-322.5 311.4221,-317.5178 315.4839,-322.8799 311.8442,-312.5357 311.8442,-312.5357"/>
<text text-anchor="start" x="7.372" y="-332.5" font-family="Arial" font-size="10.00" fill="#000000">FOREIGN KEY (gene_model_id) REFERENCES gene_models (id)</text>
</g>
<!-- transcripts -->
<g id="node2" class="node">
<title>transcripts</title>
<polygon fill="#efefef" stroke="transparent" points="197,-812.5 197,-847.5 424,-847.5 424,-812.5 197,-812.5"/>
<polygon fill="none" stroke="#000000" points="197,-812.5 197,-847.5 424,-847.5 424,-812.5 197,-812.5"/>
<text text-anchor="start" x="205.2152" y="-825.3" font-family="Arial Bold" font-size="18.00" fill="#000000">transcripts</text>
<text text-anchor="start" x="288.2168" y="-825.3" font-family="Arial" font-size="14.00" fill="#000000">    </text>
<text text-anchor="start" x="322.4216" y="-825.3" font-family="Arial" font-size="14.00" fill="#666666">[BASE TABLE]</text>
<polygon fill="none" stroke="#000000" points="197,-782.5 197,-812.5 424,-812.5 424,-782.5 197,-782.5"/>
<text text-anchor="start" x="204" y="-793.9" font-family="Arial" font-size="14.00" fill="#000000">id    </text>
<text text-anchor="start" x="249.094" y="-793.9" font-family="Arial" font-size="14.00" fill="#666666">[binary(16)]</text>
<polygon fill="none" stroke="#000000" points="197,-752.5 197,-782.5 424,-782.5 424,-752.5 197,-752.5"/>
<text text-anchor="start" x="204" y="-763.9" font-family="Arial" font-size="14.00" fill="#000000">transcript_id    </text>
<text text-anchor="start" x="314.4334" y="-763.9" font-family="Arial" font-size="14.00" fill="#666666">[varchar(255)]</text>
<polygon fill="none" stroke="#000000" points="197,-722.5 197,-752.5 424,-752.5 424,-722.5 197,-722.5"/>
<text text-anchor="start" x="204" y="-733.9" font-family="Arial" font-size="14.00" fill="#000000">gene_model_id    </text>
<text text-anchor="start" x="333.9046" y="-733.9" font-family="Arial" font-size="14.00" fill="#666666">[binary(16)]</text>
<polygon fill="none" stroke="#000000" points="197,-692.5 197,-722.5 424,-722.5 424,-692.5 197,-692.5"/>
<text text-anchor="start" x="204" y="-703.9" font-family="Arial" font-size="14.00" fill="#000000">gene_id    </text>
<text text-anchor="start" x="288.007" y="-703.9" font-family="Arial" font-size="14.00" fill="#666666">[binary(16)]</text>
<polygon fill="none" stroke="#000000" points="197,-662.5 197,-692.5 424,-692.5 424,-662.5 197,-662.5"/>
<text text-anchor="start" x="203.9404" y="-673.9" font-family="Arial" font-size="14.00" fill="#000000">transcript_type    </text>
<text text-anchor="start" x="329.9404" y="-673.9" font-family="Arial" font-size="14.00" fill="#666666">[varchar(255)]</text>
<polygon fill="none" stroke="#000000" points="197,-632.5 197,-662.5 424,-662.5 424,-632.5 197,-632.5"/>
<text text-anchor="start" x="204" y="-643.9" font-family="Arial" font-size="14.00" fill="#000000">start    </text>
<text text-anchor="start" x="265.4292" y="-643.9" font-family="Arial" font-size="14.00" fill="#666666">[int]</text>
<polygon fill="none" stroke="#000000" points="197,-602.5 197,-632.5 424,-632.5 424,-602.5 197,-602.5"/>
<text text-anchor="start" x="204" y="-613.9" font-family="Arial" font-size="14.00" fill="#000000">end    </text>
<text text-anchor="start" x="261.5526" y="-613.9" font-family="Arial" font-size="14.00" fill="#666666">[int]</text>
<polygon fill="none" stroke="#000000" points="197,-572.5 197,-602.5 424,-602.5 424,-572.5 197,-572.5"/>
<text text-anchor="start" x="204" y="-583.9" font-family="Arial" font-size="14.00" fill="#000000">strand    </text>
<text text-anchor="start" x="277.1038" y="-583.9" font-family="Arial" font-size="14.00" fill="#666666">[char(1)]</text>
</g>
<!-- transcripts&#45;&gt;genes -->
<g id="edge1" class="edge">
<title>transcripts:gene_id&#45;&gt;genes:id</title>
<path fill="none" stroke="#000000" d="M433.9915,-706.8066C500.3198,-697.0896 472.5218,-587.6412 424,-530 363.5812,-458.2258 276.4188,-565.7742 216,-494 188.3798,-461.1887 173.1111,-397.5 216,-397.5"/>
<polygon fill="#000000" stroke="#000000" points="433.976,-706.8076 423.6884,-703.0108 428.988,-707.1538 424,-707.5 424,-707.5 424,-707.5 428.988,-707.1538 424.3116,-711.9892 433.976,-706.8076 433.976,-706.8076"/>
<text text-anchor="start" x="431.156" y="-717.5" font-family="Arial" font-size="10.00" fill="#000000">FOREIGN KEY (gene_id) REFERENCES genes (id)</text>
</g>
</g>
</svg>
