<?xml version="1.0" encoding="UTF-8" standalone="no"?>
<!DOCTYPE svg PUBLIC "-//W3C//DTD SVG 1.1//EN"
 "http://www.w3.org/Graphics/SVG/1.1/DTD/svg11.dtd">
<!-- Generated by graphviz version 2.40.1 (20161225.0304)
 -->
<!-- Title: gene_models Pages: 1 -->
<svg width="1119pt" height="1049pt"
 viewBox="0.00 0.00 1118.50 1049.00" xmlns="http://www.w3.org/2000/svg" xmlns:xlink="http://www.w3.org/1999/xlink">
<g id="graph0" class="graph" transform="scale(1 1) rotate(0) translate(4 1045)">
<title>gene_models</title>
<polygon fill="#ffffff" stroke="transparent" points="-4,4 -4,-1045 1114.5,-1045 1114.5,4 -4,4"/>
<!-- gene_models -->
<g id="node1" class="node">
<title>gene_models</title>
<polygon fill="#efefef" stroke="transparent" points="407,-472.5 407,-507.5 656,-507.5 656,-472.5 407,-472.5"/>
<polygon fill="none" stroke="#000000" points="407,-472.5 407,-507.5 656,-507.5 656,-472.5 407,-472.5"/>
<text text-anchor="start" x="413.698" y="-485.3" font-family="Arial Bold" font-size="18.00" fill="#000000">gene_models</text>
<text text-anchor="start" x="521.734" y="-485.3" font-family="Arial" font-size="14.00" fill="#000000">    </text>
<text text-anchor="start" x="555.9388" y="-485.3" font-family="Arial" font-size="14.00" fill="#666666">[BASE TABLE]</text>
<polygon fill="none" stroke="#000000" points="407,-442.5 407,-472.5 656,-472.5 656,-442.5 407,-442.5"/>
<text text-anchor="start" x="414" y="-453.9" font-family="Arial" font-size="14.00" fill="#000000">id </text>
<text text-anchor="start" x="428.7798" y="-453.9" font-family="Arial" font-size="14.00" fill="#666666">[binary(16)]</text>
<polygon fill="none" stroke="#000000" points="407,-412.5 407,-442.5 656,-442.5 656,-412.5 407,-412.5"/>
<text text-anchor="start" x="414" y="-423.9" font-family="Arial" font-size="14.00" fill="#000000">taxonomy_id </text>
<text text-anchor="start" x="497.244" y="-423.9" font-family="Arial" font-size="14.00" fill="#666666">[int unsigned]</text>
<polygon fill="none" stroke="#000000" points="407,-382.5 407,-412.5 656,-412.5 656,-382.5 407,-382.5"/>
<text text-anchor="start" x="414" y="-393.9" font-family="Arial" font-size="14.00" fill="#000000">genome_id </text>
<text text-anchor="start" x="487.136" y="-393.9" font-family="Arial" font-size="14.00" fill="#666666">[binary(16)]</text>
<polygon fill="none" stroke="#000000" points="407,-352.5 407,-382.5 656,-382.5 656,-352.5 407,-352.5"/>
<text text-anchor="start" x="414" y="-363.9" font-family="Arial" font-size="14.00" fill="#000000">annotation_model_id </text>
<text text-anchor="start" x="547.826" y="-363.9" font-family="Arial" font-size="14.00" fill="#666666">[binary(16)]</text>
<polygon fill="none" stroke="#000000" stroke-width="3" points="405,-351.5 405,-509.5 657,-509.5 657,-351.5 405,-351.5"/>
</g>
<!-- organisms -->
<g id="node5" class="node">
<title>organisms</title>
<polygon fill="#efefef" stroke="transparent" points="66,-162.5 66,-197.5 290,-197.5 290,-162.5 66,-162.5"/>
<polygon fill="none" stroke="#000000" points="66,-162.5 66,-197.5 290,-197.5 290,-162.5 66,-162.5"/>
<text text-anchor="start" x="72.7143" y="-175.3" font-family="Arial Bold" font-size="18.00" fill="#000000">organisms</text>
<text text-anchor="start" x="155.7177" y="-175.3" font-family="Arial" font-size="14.00" fill="#000000">    </text>
<text text-anchor="start" x="189.9225" y="-175.3" font-family="Arial" font-size="14.00" fill="#666666">[BASE TABLE]</text>
<polygon fill="none" stroke="#000000" points="66,-132.5 66,-162.5 290,-162.5 290,-132.5 66,-132.5"/>
<text text-anchor="start" x="73" y="-143.9" font-family="Arial" font-size="14.00" fill="#000000">taxonomy_id    </text>
<text text-anchor="start" x="186.5582" y="-143.9" font-family="Arial" font-size="14.00" fill="#666666">[int unsigned]</text>
<polygon fill="none" stroke="#000000" points="66,-102.5 66,-132.5 290,-132.5 290,-102.5 66,-102.5"/>
<text text-anchor="start" x="73" y="-113.9" font-family="Arial" font-size="14.00" fill="#000000">name    </text>
<text text-anchor="start" x="142.2132" y="-113.9" font-family="Arial" font-size="14.00" fill="#666666">[varchar(255)]</text>
<polygon fill="none" stroke="#000000" points="66,-72.5 66,-102.5 290,-102.5 290,-72.5 66,-72.5"/>
<text text-anchor="start" x="73" y="-83.9" font-family="Arial" font-size="14.00" fill="#000000">codon_code    </text>
<text text-anchor="start" x="183.4656" y="-83.9" font-family="Arial" font-size="14.00" fill="#666666">[int unsigned]</text>
</g>
<!-- gene_models&#45;&gt;organisms -->
<g id="edge4" class="edge">
<title>gene_models:taxonomy_id&#45;&gt;organisms:taxonomy_id</title>
<path fill="none" stroke="#000000" d="M402.2878,-418.501C380.6638,-370.5748 293.762,-147.5 290,-147.5"/>
<polygon fill="#000000" stroke="#000000" points="402.3611,-418.641 403.0135,-429.5875 404.6805,-423.0705 407,-427.5 407,-427.5 407,-427.5 404.6805,-423.0705 410.9865,-425.4125 402.3611,-418.641 402.3611,-418.641"/>
<text text-anchor="start" x="79.712" y="-437.5" font-family="Arial" font-size="10.00" fill="#000000">FOREIGN KEY (taxonomy_id) REFERENCES organisms (taxonomy_id)</text>
</g>
<!-- genomes -->
<g id="node6" class="node">
<title>genomes</title>
<polygon fill="#efefef" stroke="transparent" points="394,-192.5 394,-227.5 670,-227.5 670,-192.5 394,-192.5"/>
<polygon fill="none" stroke="#000000" points="394,-192.5 394,-227.5 670,-227.5 670,-192.5 394,-192.5"/>
<text text-anchor="start" x="431.2044" y="-205.3" font-family="Arial Bold" font-size="18.00" fill="#000000">genomes</text>
<text text-anchor="start" x="505.2276" y="-205.3" font-family="Arial" font-size="14.00" fill="#000000">    </text>
<text text-anchor="start" x="539.4324" y="-205.3" font-family="Arial" font-size="14.00" fill="#666666">[BASE TABLE]</text>
<polygon fill="none" stroke="#000000" points="394,-162.5 394,-192.5 670,-192.5 670,-162.5 394,-162.5"/>
<text text-anchor="start" x="401" y="-173.9" font-family="Arial" font-size="14.00" fill="#000000">id    </text>
<text text-anchor="start" x="446.094" y="-173.9" font-family="Arial" font-size="14.00" fill="#666666">[binary(16)]</text>
<polygon fill="none" stroke="#000000" points="394,-132.5 394,-162.5 670,-162.5 670,-132.5 394,-132.5"/>
<text text-anchor="start" x="401" y="-143.9" font-family="Arial" font-size="14.00" fill="#000000">genome_version    </text>
<text text-anchor="start" x="538.676" y="-143.9" font-family="Arial" font-size="14.00" fill="#666666">[varchar(255)]</text>
<polygon fill="none" stroke="#000000" points="394,-102.5 394,-132.5 670,-132.5 670,-102.5 394,-102.5"/>
<text text-anchor="start" x="400.9236" y="-113.9" font-family="Arial" font-size="14.00" fill="#000000">organism_taxonomy_id    </text>
<text text-anchor="start" x="579.8226" y="-113.9" font-family="Arial" font-size="14.00" fill="#666666">[int unsigned]</text>
<polygon fill="none" stroke="#000000" points="394,-72.5 394,-102.5 670,-102.5 670,-72.5 394,-72.5"/>
<text text-anchor="start" x="401" y="-83.9" font-family="Arial" font-size="14.00" fill="#000000">created_at    </text>
<text text-anchor="start" x="501.3422" y="-83.9" font-family="Arial" font-size="14.00" fill="#666666">[datetime]</text>
<polygon fill="none" stroke="#000000" points="394,-42.5 394,-72.5 670,-72.5 670,-42.5 394,-42.5"/>
<text text-anchor="start" x="401" y="-53.9" font-family="Arial" font-size="14.00" fill="#000000">updated_at    </text>
<text text-anchor="start" x="505.2468" y="-53.9" font-family="Arial" font-size="14.00" fill="#666666">[datetime]</text>
</g>
<!-- gene_models&#45;&gt;genomes -->
<g id="edge5" class="edge">
<title>gene_models:genome_id&#45;&gt;genomes:id</title>
<path fill="none" stroke="#000000" d="M665.9225,-395.9873C693.5259,-386.4779 679.9566,-334.4734 656,-307 578.7514,-218.4113 471.2486,-359.5887 394,-271 366.6889,-239.6796 352.4444,-177.5 394,-177.5"/>
<polygon fill="#000000" stroke="#000000" points="665.8858,-395.9928 655.3218,-393.0514 660.9429,-396.7464 656,-397.5 656,-397.5 656,-397.5 660.9429,-396.7464 656.6782,-401.9486 665.8858,-395.9928 665.8858,-395.9928"/>
<text text-anchor="start" x="663.268" y="-407.5" font-family="Arial" font-size="10.00" fill="#000000">FOREIGN KEY (genome_id) REFERENCES genomes (id)</text>
</g>
<!-- annotation_models -->
<g id="node7" class="node">
<title>annotation_models</title>
<polygon fill="#efefef" stroke="transparent" points="775,-192.5 775,-227.5 1068,-227.5 1068,-192.5 775,-192.5"/>
<polygon fill="none" stroke="#000000" points="775,-192.5 775,-227.5 1068,-227.5 1068,-192.5 775,-192.5"/>
<text text-anchor="start" x="781.6894" y="-205.3" font-family="Arial Bold" font-size="18.00" fill="#000000">annotation_models</text>
<text text-anchor="start" x="933.7426" y="-205.3" font-family="Arial" font-size="14.00" fill="#000000">    </text>
<text text-anchor="start" x="967.9474" y="-205.3" font-family="Arial" font-size="14.00" fill="#666666">[BASE TABLE]</text>
<polygon fill="none" stroke="#000000" points="775,-162.5 775,-192.5 1068,-192.5 1068,-162.5 775,-162.5"/>
<text text-anchor="start" x="782" y="-173.9" font-family="Arial" font-size="14.00" fill="#000000">id    </text>
<text text-anchor="start" x="827.094" y="-173.9" font-family="Arial" font-size="14.00" fill="#666666">[binary(16)]</text>
<polygon fill="none" stroke="#000000" points="775,-132.5 775,-162.5 1068,-162.5 1068,-132.5 775,-132.5"/>
<text text-anchor="start" x="782" y="-143.9" font-family="Arial" font-size="14.00" fill="#000000">version    </text>
<text text-anchor="start" x="861.3198" y="-143.9" font-family="Arial" font-size="14.00" fill="#666666">[varchar(255)]</text>
<polygon fill="none" stroke="#000000" points="775,-102.5 775,-132.5 1068,-132.5 1068,-102.5 775,-102.5"/>
<text text-anchor="start" x="782" y="-113.9" font-family="Arial" font-size="14.00" fill="#000000">genome_id    </text>
<text text-anchor="start" x="885.4502" y="-113.9" font-family="Arial" font-size="14.00" fill="#666666">[binary(16)]</text>
<polygon fill="none" stroke="#000000" points="775,-72.5 775,-102.5 1068,-102.5 1068,-72.5 775,-72.5"/>
<text text-anchor="start" x="782" y="-83.9" font-family="Arial" font-size="14.00" fill="#000000">created_at    </text>
<text text-anchor="start" x="882.3422" y="-83.9" font-family="Arial" font-size="14.00" fill="#666666">[datetime]</text>
<polygon fill="none" stroke="#000000" points="775,-42.5 775,-72.5 1068,-72.5 1068,-42.5 775,-42.5"/>
<text text-anchor="start" x="782" y="-53.9" font-family="Arial" font-size="14.00" fill="#000000">updated_at    </text>
<text text-anchor="start" x="886.2468" y="-53.9" font-family="Arial" font-size="14.00" fill="#666666">[datetime]</text>
</g>
<!-- gene_models&#45;&gt;annotation_models -->
<g id="edge6" class="edge">
<title>gene_models:annotation_model_id&#45;&gt;annotation_models:id</title>
<path fill="none" stroke="#000000" d="M666.0271,-366.7437C706.2698,-360.1703 696.4311,-311.9854 722,-271 747.2833,-230.4724 727.2326,-177.5 775,-177.5"/>
<polygon fill="#000000" stroke="#000000" points="665.9717,-366.7478 655.6615,-363.0127 660.9858,-367.1239 656,-367.5 656,-367.5 656,-367.5 660.9858,-367.1239 656.3385,-371.9873 665.9717,-366.7478 665.9717,-366.7478"/>
<text text-anchor="start" x="662.918" y="-377.5" font-family="Arial" font-size="10.00" fill="#000000">FOREIGN KEY (annotation_model_id) REFERENCES annotation_models (id)</text>
</g>
<!-- genes -->
<g id="node2" class="node">
<title>genes</title>
<polygon fill="#efefef" stroke="transparent" points="97,-842.5 97,-877.5 311,-877.5 311,-842.5 97,-842.5"/>
<polygon fill="none" stroke="#000000" points="97,-842.5 97,-877.5 311,-877.5 311,-842.5 97,-842.5"/>
<text text-anchor="start" x="115.7036" y="-855.3" font-family="Arial Bold" font-size="18.00" fill="#000000">genes</text>
<text text-anchor="start" x="164.7284" y="-855.3" font-family="Arial" font-size="14.00" fill="#000000">    </text>
<text text-anchor="start" x="198.9332" y="-855.3" font-family="Arial" font-size="14.00" fill="#666666">[BASE TABLE]</text>
<polygon fill="none" stroke="#000000" points="97,-812.5 97,-842.5 311,-842.5 311,-812.5 97,-812.5"/>
<text text-anchor="start" x="104" y="-823.9" font-family="Arial" font-size="14.00" fill="#000000">id    </text>
<text text-anchor="start" x="149.094" y="-823.9" font-family="Arial" font-size="14.00" fill="#666666">[binary(16)]</text>
<polygon fill="none" stroke="#000000" points="97,-782.5 97,-812.5 311,-812.5 311,-782.5 97,-782.5"/>
<text text-anchor="start" x="104" y="-793.9" font-family="Arial" font-size="14.00" fill="#000000">gene_id    </text>
<text text-anchor="start" x="188.007" y="-793.9" font-family="Arial" font-size="14.00" fill="#666666">[varchar(255)]</text>
<polygon fill="none" stroke="#000000" points="97,-752.5 97,-782.5 311,-782.5 311,-752.5 97,-752.5"/>
<text text-anchor="start" x="103.6564" y="-763.9" font-family="Arial" font-size="14.00" fill="#000000">gene_model_id    </text>
<text text-anchor="start" x="233.561" y="-763.9" font-family="Arial" font-size="14.00" fill="#666666">[binary(16)]</text>
</g>
<!-- genes&#45;&gt;gene_models -->
<g id="edge1" class="edge">
<title>genes:gene_model_id&#45;&gt;gene_models:id</title>
<path fill="none" stroke="#000000" d="M321.087,-765.183C378.5282,-736.815 338.5457,-457.5 407,-457.5"/>
<polygon fill="#000000" stroke="#000000" points="320.7462,-765.2612 309.9925,-763.1142 315.8731,-766.3806 311,-767.5 311,-767.5 311,-767.5 315.8731,-766.3806 312.0075,-771.8858 320.7462,-765.2612 320.7462,-765.2612"/>
<text text-anchor="start" x="7.372" y="-777.5" font-family="Arial" font-size="10.00" fill="#000000">FOREIGN KEY (gene_model_id) REFERENCES gene_models (id)</text>
</g>
<!-- gff_records -->
<g id="node3" class="node">
<title>gff_records</title>
<polygon fill="#efefef" stroke="transparent" points="416,-962.5 416,-997.5 647,-997.5 647,-962.5 416,-962.5"/>
<polygon fill="none" stroke="#000000" points="416,-962.5 416,-997.5 647,-997.5 647,-962.5 416,-962.5"/>
<text text-anchor="start" x="422.7061" y="-975.3" font-family="Arial Bold" font-size="18.00" fill="#000000">gff_records</text>
<text text-anchor="start" x="512.7259" y="-975.3" font-family="Arial" font-size="14.00" fill="#000000">    </text>
<text text-anchor="start" x="546.9307" y="-975.3" font-family="Arial" font-size="14.00" fill="#666666">[BASE TABLE]</text>
<polygon fill="none" stroke="#000000" points="416,-932.5 416,-962.5 647,-962.5 647,-932.5 416,-932.5"/>
<text text-anchor="start" x="423" y="-943.9" font-family="Arial" font-size="14.00" fill="#000000">id    </text>
<text text-anchor="start" x="468.094" y="-943.9" font-family="Arial" font-size="14.00" fill="#666666">[binary(16)]</text>
<polygon fill="none" stroke="#000000" points="416,-902.5 416,-932.5 647,-932.5 647,-902.5 416,-902.5"/>
<text text-anchor="start" x="423" y="-913.9" font-family="Arial" font-size="14.00" fill="#000000">gene_model_id    </text>
<text text-anchor="start" x="552.9046" y="-913.9" font-family="Arial" font-size="14.00" fill="#666666">[binary(16)]</text>
<polygon fill="none" stroke="#000000" points="416,-872.5 416,-902.5 647,-902.5 647,-872.5 416,-872.5"/>
<text text-anchor="start" x="423" y="-883.9" font-family="Arial" font-size="14.00" fill="#000000">seqname    </text>
<text text-anchor="start" x="514.7784" y="-883.9" font-family="Arial" font-size="14.00" fill="#666666">[varchar(255)]</text>
<polygon fill="none" stroke="#000000" points="416,-842.5 416,-872.5 647,-872.5 647,-842.5 416,-842.5"/>
<text text-anchor="start" x="423" y="-853.9" font-family="Arial" font-size="14.00" fill="#000000">source    </text>
<text text-anchor="start" x="499.2132" y="-853.9" font-family="Arial" font-size="14.00" fill="#666666">[varchar(255)]</text>
<polygon fill="none" stroke="#000000" points="416,-812.5 416,-842.5 647,-842.5 647,-812.5 416,-812.5"/>
<text text-anchor="start" x="423" y="-823.9" font-family="Arial" font-size="14.00" fill="#000000">type    </text>
<text text-anchor="start" x="483.6606" y="-823.9" font-family="Arial" font-size="14.00" fill="#666666">[varchar(255)]</text>
<polygon fill="none" stroke="#000000" points="416,-782.5 416,-812.5 647,-812.5 647,-782.5 416,-782.5"/>
<text text-anchor="start" x="423" y="-793.9" font-family="Arial" font-size="14.00" fill="#000000">start    </text>
<text text-anchor="start" x="484.4292" y="-793.9" font-family="Arial" font-size="14.00" fill="#666666">[int]</text>
<polygon fill="none" stroke="#000000" points="416,-752.5 416,-782.5 647,-782.5 647,-752.5 416,-752.5"/>
<text text-anchor="start" x="423" y="-763.9" font-family="Arial" font-size="14.00" fill="#000000">end    </text>
<text text-anchor="start" x="480.5526" y="-763.9" font-family="Arial" font-size="14.00" fill="#666666">[int]</text>
<polygon fill="none" stroke="#000000" points="416,-722.5 416,-752.5 647,-752.5 647,-722.5 416,-722.5"/>
<text text-anchor="start" x="423" y="-733.9" font-family="Arial" font-size="14.00" fill="#000000">score    </text>
<text text-anchor="start" x="491.4306" y="-733.9" font-family="Arial" font-size="14.00" fill="#666666">[float]</text>
<polygon fill="none" stroke="#000000" points="416,-692.5 416,-722.5 647,-722.5 647,-692.5 416,-692.5"/>
<text text-anchor="start" x="423" y="-703.9" font-family="Arial" font-size="14.00" fill="#000000">strand    </text>
<text text-anchor="start" x="496.1038" y="-703.9" font-family="Arial" font-size="14.00" fill="#666666">[char(1)]</text>
<polygon fill="none" stroke="#000000" points="416,-662.5 416,-692.5 647,-692.5 647,-662.5 416,-662.5"/>
<text text-anchor="start" x="423" y="-673.9" font-family="Arial" font-size="14.00" fill="#000000">phase    </text>
<text text-anchor="start" x="495.3352" y="-673.9" font-family="Arial" font-size="14.00" fill="#666666">[char(1)]</text>
<polygon fill="none" stroke="#000000" points="416,-632.5 416,-662.5 647,-662.5 647,-632.5 416,-632.5"/>
<text text-anchor="start" x="423" y="-643.9" font-family="Arial" font-size="14.00" fill="#000000">attributes    </text>
<text text-anchor="start" x="514.7742" y="-643.9" font-family="Arial" font-size="14.00" fill="#666666">[json]</text>
</g>
<!-- gff_records&#45;&gt;gene_models -->
<g id="edge2" class="edge">
<title>gff_records:gene_model_id&#45;&gt;gene_models:id</title>
<path fill="none" stroke="#000000" d="M407.1816,-912.6452C364.0097,-863.4832 358.9743,-457.5 407,-457.5"/>
<polygon fill="#000000" stroke="#000000" points="407.2398,-912.6772 413.8297,-921.4421 411.6199,-915.0886 416,-917.5 416,-917.5 416,-917.5 411.6199,-915.0886 418.1703,-913.5579 407.2398,-912.6772 407.2398,-912.6772"/>
<text text-anchor="start" x="112.372" y="-927.5" font-family="Arial" font-size="10.00" fill="#000000">FOREIGN KEY (gene_model_id) REFERENCES gene_models (id)</text>
</g>
<!-- transcripts -->
<g id="node4" class="node">
<title>transcripts</title>
<polygon fill="#efefef" stroke="transparent" points="751,-917.5 751,-952.5 978,-952.5 978,-917.5 751,-917.5"/>
<polygon fill="none" stroke="#000000" points="751,-917.5 751,-952.5 978,-952.5 978,-917.5 751,-917.5"/>
<text text-anchor="start" x="759.2152" y="-930.3" font-family="Arial Bold" font-size="18.00" fill="#000000">transcripts</text>
<text text-anchor="start" x="842.2168" y="-930.3" font-family="Arial" font-size="14.00" fill="#000000">    </text>
<text text-anchor="start" x="876.4216" y="-930.3" font-family="Arial" font-size="14.00" fill="#666666">[BASE TABLE]</text>
<polygon fill="none" stroke="#000000" points="751,-887.5 751,-917.5 978,-917.5 978,-887.5 751,-887.5"/>
<text text-anchor="start" x="758" y="-898.9" font-family="Arial" font-size="14.00" fill="#000000">id    </text>
<text text-anchor="start" x="803.094" y="-898.9" font-family="Arial" font-size="14.00" fill="#666666">[binary(16)]</text>
<polygon fill="none" stroke="#000000" points="751,-857.5 751,-887.5 978,-887.5 978,-857.5 751,-857.5"/>
<text text-anchor="start" x="758" y="-868.9" font-family="Arial" font-size="14.00" fill="#000000">transcript_id    </text>
<text text-anchor="start" x="868.4334" y="-868.9" font-family="Arial" font-size="14.00" fill="#666666">[varchar(255)]</text>
<polygon fill="none" stroke="#000000" points="751,-827.5 751,-857.5 978,-857.5 978,-827.5 751,-827.5"/>
<text text-anchor="start" x="758" y="-838.9" font-family="Arial" font-size="14.00" fill="#000000">gene_model_id    </text>
<text text-anchor="start" x="887.9046" y="-838.9" font-family="Arial" font-size="14.00" fill="#666666">[binary(16)]</text>
<polygon fill="none" stroke="#000000" points="751,-797.5 751,-827.5 978,-827.5 978,-797.5 751,-797.5"/>
<text text-anchor="start" x="758" y="-808.9" font-family="Arial" font-size="14.00" fill="#000000">gene_id    </text>
<text text-anchor="start" x="842.007" y="-808.9" font-family="Arial" font-size="14.00" fill="#666666">[binary(16)]</text>
<polygon fill="none" stroke="#000000" points="751,-767.5 751,-797.5 978,-797.5 978,-767.5 751,-767.5"/>
<text text-anchor="start" x="757.9404" y="-778.9" font-family="Arial" font-size="14.00" fill="#000000">transcript_type    </text>
<text text-anchor="start" x="883.9404" y="-778.9" font-family="Arial" font-size="14.00" fill="#666666">[varchar(255)]</text>
<polygon fill="none" stroke="#000000" points="751,-737.5 751,-767.5 978,-767.5 978,-737.5 751,-737.5"/>
<text text-anchor="start" x="758" y="-748.9" font-family="Arial" font-size="14.00" fill="#000000">start    </text>
<text text-anchor="start" x="819.4292" y="-748.9" font-family="Arial" font-size="14.00" fill="#666666">[int]</text>
<polygon fill="none" stroke="#000000" points="751,-707.5 751,-737.5 978,-737.5 978,-707.5 751,-707.5"/>
<text text-anchor="start" x="758" y="-718.9" font-family="Arial" font-size="14.00" fill="#000000">end    </text>
<text text-anchor="start" x="815.5526" y="-718.9" font-family="Arial" font-size="14.00" fill="#666666">[int]</text>
<polygon fill="none" stroke="#000000" points="751,-677.5 751,-707.5 978,-707.5 978,-677.5 751,-677.5"/>
<text text-anchor="start" x="758" y="-688.9" font-family="Arial" font-size="14.00" fill="#000000">strand    </text>
<text text-anchor="start" x="831.1038" y="-688.9" font-family="Arial" font-size="14.00" fill="#666666">[char(1)]</text>
</g>
<!-- transcripts&#45;&gt;gene_models -->
<g id="edge3" class="edge">
<title>transcripts:gene_model_id&#45;&gt;gene_models:id</title>
<path fill="none" stroke="#000000" d="M740.9883,-840.6101C669.2579,-811.5656 740.5073,-457.5 656,-457.5"/>
<polygon fill="#000000" stroke="#000000" points="741.1735,-840.645 750.1652,-846.9219 746.0868,-841.5725 751,-842.5 751,-842.5 751,-842.5 746.0868,-841.5725 751.8348,-838.0781 741.1735,-840.645 741.1735,-840.645"/>
<text text-anchor="start" x="758.372" y="-852.5" font-family="Arial" font-size="10.00" fill="#000000">FOREIGN KEY (gene_model_id) REFERENCES gene_models (id)</text>
</g>
</g>
</svg>
