<?xml version="1.0" encoding="UTF-8" standalone="no"?>
<!DOCTYPE svg PUBLIC "-//W3C//DTD SVG 1.1//EN"
 "http://www.w3.org/Graphics/SVG/1.1/DTD/svg11.dtd">
<!-- Generated by graphviz version 2.40.1 (20161225.0304)
 -->
<!-- Title: genes Pages: 1 -->
<svg width="1229pt" height="959pt"
 viewBox="0.00 0.00 1229.00 959.00" xmlns="http://www.w3.org/2000/svg" xmlns:xlink="http://www.w3.org/1999/xlink">
<g id="graph0" class="graph" transform="scale(1 1) rotate(0) translate(4 955)">
<title>genes</title>
<polygon fill="#ffffff" stroke="transparent" points="-4,4 -4,-955 1225,-955 1225,4 -4,4"/>
<!-- genes -->
<g id="node1" class="node">
<title>genes</title>
<polygon fill="#efefef" stroke="transparent" points="315.5,-442.5 315.5,-477.5 540.5,-477.5 540.5,-442.5 315.5,-442.5"/>
<polygon fill="none" stroke="#000000" points="315.5,-442.5 315.5,-477.5 540.5,-477.5 540.5,-442.5 315.5,-442.5"/>
<text text-anchor="start" x="339.7036" y="-455.3" font-family="Arial Bold" font-size="18.00" fill="#000000">genes</text>
<text text-anchor="start" x="388.7284" y="-455.3" font-family="Arial" font-size="14.00" fill="#000000">    </text>
<text text-anchor="start" x="422.9332" y="-455.3" font-family="Arial" font-size="14.00" fill="#666666">[BASE TABLE]</text>
<polygon fill="none" stroke="#000000" points="315.5,-412.5 315.5,-442.5 540.5,-442.5 540.5,-412.5 315.5,-412.5"/>
<text text-anchor="start" x="322.5" y="-423.9" font-family="Arial" font-size="14.00" fill="#000000">id </text>
<text text-anchor="start" x="337.2798" y="-423.9" font-family="Arial" font-size="14.00" fill="#666666">[binary(16)]</text>
<polygon fill="none" stroke="#000000" points="315.5,-382.5 315.5,-412.5 540.5,-412.5 540.5,-382.5 315.5,-382.5"/>
<text text-anchor="start" x="322.5" y="-393.9" font-family="Arial" font-size="14.00" fill="#000000">gene_id </text>
<text text-anchor="start" x="376.1928" y="-393.9" font-family="Arial" font-size="14.00" fill="#666666">[varchar(255)]</text>
<polygon fill="none" stroke="#000000" points="315.5,-352.5 315.5,-382.5 540.5,-382.5 540.5,-352.5 315.5,-352.5"/>
<text text-anchor="start" x="322.1957" y="-363.9" font-family="Arial" font-size="14.00" fill="#000000">annotation_version_id </text>
<text text-anchor="start" x="463.0217" y="-363.9" font-family="Arial" font-size="14.00" fill="#666666">[binary(16)]</text>
<polygon fill="none" stroke="#000000" stroke-width="3" points="313.5,-351.5 313.5,-479.5 541.5,-479.5 541.5,-351.5 313.5,-351.5"/>
</g>
<!-- annotation_versions -->
<g id="node5" class="node">
<title>annotation_versions</title>
<polygon fill="#efefef" stroke="transparent" points="277.5,-192.5 277.5,-227.5 579.5,-227.5 579.5,-192.5 277.5,-192.5"/>
<polygon fill="none" stroke="#000000" points="277.5,-192.5 277.5,-227.5 579.5,-227.5 579.5,-192.5 277.5,-192.5"/>
<text text-anchor="start" x="284.1894" y="-205.3" font-family="Arial Bold" font-size="18.00" fill="#000000">annotation_versions</text>
<text text-anchor="start" x="445.2426" y="-205.3" font-family="Arial" font-size="14.00" fill="#000000">    </text>
<text text-anchor="start" x="479.4474" y="-205.3" font-family="Arial" font-size="14.00" fill="#666666">[BASE TABLE]</text>
<polygon fill="none" stroke="#000000" points="277.5,-162.5 277.5,-192.5 579.5,-192.5 579.5,-162.5 277.5,-162.5"/>
<text text-anchor="start" x="284.5" y="-173.9" font-family="Arial" font-size="14.00" fill="#000000">id    </text>
<text text-anchor="start" x="329.594" y="-173.9" font-family="Arial" font-size="14.00" fill="#666666">[binary(16)]</text>
<polygon fill="none" stroke="#000000" points="277.5,-132.5 277.5,-162.5 579.5,-162.5 579.5,-132.5 277.5,-132.5"/>
<text text-anchor="start" x="284.5" y="-143.9" font-family="Arial" font-size="14.00" fill="#000000">genome_version_id    </text>
<text text-anchor="start" x="440.8478" y="-143.9" font-family="Arial" font-size="14.00" fill="#666666">[binary(16)]</text>
<polygon fill="none" stroke="#000000" points="277.5,-102.5 277.5,-132.5 579.5,-132.5 579.5,-102.5 277.5,-102.5"/>
<text text-anchor="start" x="284.5" y="-113.9" font-family="Arial" font-size="14.00" fill="#000000">major_version    </text>
<text text-anchor="start" x="406.5954" y="-113.9" font-family="Arial" font-size="14.00" fill="#666666">[int]</text>
<polygon fill="none" stroke="#000000" points="277.5,-72.5 277.5,-102.5 579.5,-102.5 579.5,-72.5 277.5,-72.5"/>
<text text-anchor="start" x="284.5" y="-83.9" font-family="Arial" font-size="14.00" fill="#000000">minor_version    </text>
<text text-anchor="start" x="406.5954" y="-83.9" font-family="Arial" font-size="14.00" fill="#666666">[int]</text>
<polygon fill="none" stroke="#000000" points="277.5,-42.5 277.5,-72.5 579.5,-72.5 579.5,-42.5 277.5,-42.5"/>
<text text-anchor="start" x="284.5" y="-53.9" font-family="Arial" font-size="14.00" fill="#000000">patch_version    </text>
<text text-anchor="start" x="405.8408" y="-53.9" font-family="Arial" font-size="14.00" fill="#666666">[int]</text>
</g>
<!-- genes&#45;&gt;annotation_versions -->
<g id="edge5" class="edge">
<title>genes:annotation_version_id&#45;&gt;annotation_versions:id</title>
<path fill="none" stroke="#000000" d="M427.721,-342.2747C417.7434,-281.822 314.6661,-333.2939 277.5,-271 256.2085,-235.3134 235.9444,-177.5 277.5,-177.5"/>
<polygon fill="#000000" stroke="#000000" points="427.7402,-342.5289 424.013,-352.8419 428.1201,-347.5144 428.5,-352.5 428.5,-352.5 428.5,-352.5 428.1201,-347.5144 432.987,-352.1581 427.7402,-342.5289 427.7402,-342.5289"/>
<text text-anchor="start" x="435.418" y="-362.5" font-family="Arial" font-size="10.00" fill="#000000">FOREIGN KEY (annotation_version_id) REFERENCES annotation_versions (id)</text>
</g>
<!-- gene_cross_references -->
<g id="node2" class="node">
<title>gene_cross_references</title>
<polygon fill="#efefef" stroke="transparent" points="43.5,-797.5 43.5,-832.5 372.5,-832.5 372.5,-797.5 43.5,-797.5"/>
<polygon fill="none" stroke="#000000" points="43.5,-797.5 43.5,-832.5 372.5,-832.5 372.5,-797.5 43.5,-797.5"/>
<text text-anchor="start" x="50.1894" y="-810.3" font-family="Arial Bold" font-size="18.00" fill="#000000">gene_cross_references</text>
<text text-anchor="start" x="238.2426" y="-810.3" font-family="Arial" font-size="14.00" fill="#000000">    </text>
<text text-anchor="start" x="272.4474" y="-810.3" font-family="Arial" font-size="14.00" fill="#666666">[BASE TABLE]</text>
<polygon fill="none" stroke="#000000" points="43.5,-767.5 43.5,-797.5 372.5,-797.5 372.5,-767.5 43.5,-767.5"/>
<text text-anchor="start" x="50.5" y="-778.9" font-family="Arial" font-size="14.00" fill="#000000">source_gene_id    </text>
<text text-anchor="start" x="184.298" y="-778.9" font-family="Arial" font-size="14.00" fill="#666666">[binary(16)]</text>
<polygon fill="none" stroke="#000000" points="43.5,-737.5 43.5,-767.5 372.5,-767.5 372.5,-737.5 43.5,-737.5"/>
<text text-anchor="start" x="50.5" y="-748.9" font-family="Arial" font-size="14.00" fill="#000000">source_annotation_version_id    </text>
<text text-anchor="start" x="271.4312" y="-748.9" font-family="Arial" font-size="14.00" fill="#666666">[binary(16)]</text>
<polygon fill="none" stroke="#000000" points="43.5,-707.5 43.5,-737.5 372.5,-737.5 372.5,-707.5 43.5,-707.5"/>
<text text-anchor="start" x="50.5" y="-718.9" font-family="Arial" font-size="14.00" fill="#000000">target_gene_id    </text>
<text text-anchor="start" x="178.0792" y="-718.9" font-family="Arial" font-size="14.00" fill="#666666">[binary(16)]</text>
<polygon fill="none" stroke="#000000" points="43.5,-677.5 43.5,-707.5 372.5,-707.5 372.5,-677.5 43.5,-677.5"/>
<text text-anchor="start" x="50.5" y="-688.9" font-family="Arial" font-size="14.00" fill="#000000">target_annotation_version_id    </text>
<text text-anchor="start" x="265.2124" y="-688.9" font-family="Arial" font-size="14.00" fill="#666666">[binary(16)]</text>
</g>
<!-- gene_cross_references&#45;&gt;genes -->
<g id="edge1" class="edge">
<title>gene_cross_references:source_gene_id&#45;&gt;genes:id</title>
<path fill="none" stroke="#000000" d="M382.5753,-781.9061C489.5351,-768.4495 317.1378,-530.7748 315.5,-524 305.4219,-482.312 272.6111,-427.5 315.5,-427.5"/>
<polygon fill="#000000" stroke="#000000" points="382.4827,-781.9114 372.2351,-778.0078 377.4913,-782.2057 372.5,-782.5 372.5,-782.5 372.5,-782.5 377.4913,-782.2057 372.7649,-786.9922 382.4827,-781.9114 382.4827,-781.9114"/>
<text text-anchor="start" x="379.8735" y="-792.5" font-family="Arial" font-size="10.00" fill="#000000">FOREIGN KEY (source_gene_id) REFERENCES genes (id)</text>
</g>
<!-- gene_cross_references&#45;&gt;genes -->
<g id="edge2" class="edge">
<title>gene_cross_references:target_gene_id&#45;&gt;genes:id</title>
<path fill="none" stroke="#000000" d="M382.7651,-721.8036C488.0475,-706.0276 185.7456,-427.5 315.5,-427.5"/>
<polygon fill="#000000" stroke="#000000" points="382.4771,-721.823 372.1954,-718.0103 377.4885,-722.1615 372.5,-722.5 372.5,-722.5 372.5,-722.5 377.4885,-722.1615 372.8046,-726.9897 382.4771,-721.823 382.4771,-721.823"/>
<text text-anchor="start" x="379.0945" y="-732.5" font-family="Arial" font-size="10.00" fill="#000000">FOREIGN KEY (target_gene_id) REFERENCES genes (id)</text>
</g>
<!-- nomenclatures -->
<g id="node3" class="node">
<title>nomenclatures</title>
<polygon fill="#efefef" stroke="transparent" points="476.5,-872.5 476.5,-907.5 819.5,-907.5 819.5,-872.5 476.5,-872.5"/>
<polygon fill="none" stroke="#000000" points="476.5,-872.5 476.5,-907.5 819.5,-907.5 819.5,-872.5 476.5,-872.5"/>
<text text-anchor="start" x="525.2039" y="-885.3" font-family="Arial Bold" font-size="18.00" fill="#000000">nomenclatures</text>
<text text-anchor="start" x="643.2281" y="-885.3" font-family="Arial" font-size="14.00" fill="#000000">    </text>
<text text-anchor="start" x="677.4329" y="-885.3" font-family="Arial" font-size="14.00" fill="#666666">[BASE TABLE]</text>
<polygon fill="none" stroke="#000000" points="476.5,-842.5 476.5,-872.5 819.5,-872.5 819.5,-842.5 476.5,-842.5"/>
<text text-anchor="start" x="483.5" y="-853.9" font-family="Arial" font-size="14.00" fill="#000000">id    </text>
<text text-anchor="start" x="528.594" y="-853.9" font-family="Arial" font-size="14.00" fill="#666666">[binary(16)]</text>
<polygon fill="none" stroke="#000000" points="476.5,-812.5 476.5,-842.5 819.5,-842.5 819.5,-812.5 476.5,-812.5"/>
<text text-anchor="start" x="483.5" y="-823.9" font-family="Arial" font-size="14.00" fill="#000000">gene_id    </text>
<text text-anchor="start" x="567.507" y="-823.9" font-family="Arial" font-size="14.00" fill="#666666">[binary(16)]</text>
<polygon fill="none" stroke="#000000" points="476.5,-782.5 476.5,-812.5 819.5,-812.5 819.5,-782.5 476.5,-782.5"/>
<text text-anchor="start" x="483.5" y="-793.9" font-family="Arial" font-size="14.00" fill="#000000">name    </text>
<text text-anchor="start" x="552.7132" y="-793.9" font-family="Arial" font-size="14.00" fill="#666666">[varchar(255)]</text>
<polygon fill="none" stroke="#000000" points="476.5,-752.5 476.5,-782.5 819.5,-782.5 819.5,-752.5 476.5,-752.5"/>
<text text-anchor="start" x="483.5" y="-763.9" font-family="Arial" font-size="14.00" fill="#000000">doi    </text>
<text text-anchor="start" x="536.3766" y="-763.9" font-family="Arial" font-size="14.00" fill="#666666">[varchar(255)]</text>
<polygon fill="none" stroke="#000000" points="476.5,-722.5 476.5,-752.5 819.5,-752.5 819.5,-722.5 476.5,-722.5"/>
<text text-anchor="start" x="483.5" y="-733.9" font-family="Arial" font-size="14.00" fill="#000000">citation    </text>
<text text-anchor="start" x="562.047" y="-733.9" font-family="Arial" font-size="14.00" fill="#666666">[text]</text>
<polygon fill="none" stroke="#000000" points="476.5,-692.5 476.5,-722.5 819.5,-722.5 819.5,-692.5 476.5,-692.5"/>
<text text-anchor="start" x="483.1444" y="-703.9" font-family="Arial" font-size="14.00" fill="#000000">status    </text>
<text text-anchor="start" x="554.6956" y="-703.9" font-family="Arial" font-size="14.00" fill="#666666">[enum(&#39;obsolate&#39;,&#39;provisional&#39;,&#39;published&#39;)]</text>
<polygon fill="none" stroke="#000000" points="476.5,-662.5 476.5,-692.5 819.5,-692.5 819.5,-662.5 476.5,-662.5"/>
<text text-anchor="start" x="483.5" y="-673.9" font-family="Arial" font-size="14.00" fill="#000000">assigned_by    </text>
<text text-anchor="start" x="596.2896" y="-673.9" font-family="Arial" font-size="14.00" fill="#666666">[binary(16)]</text>
<polygon fill="none" stroke="#000000" points="476.5,-632.5 476.5,-662.5 819.5,-662.5 819.5,-632.5 476.5,-632.5"/>
<text text-anchor="start" x="483.5" y="-643.9" font-family="Arial" font-size="14.00" fill="#000000">created_at    </text>
<text text-anchor="start" x="583.8422" y="-643.9" font-family="Arial" font-size="14.00" fill="#666666">[datetime]</text>
<polygon fill="none" stroke="#000000" points="476.5,-602.5 476.5,-632.5 819.5,-632.5 819.5,-602.5 476.5,-602.5"/>
<text text-anchor="start" x="483.5" y="-613.9" font-family="Arial" font-size="14.00" fill="#000000">updated_at    </text>
<text text-anchor="start" x="587.7468" y="-613.9" font-family="Arial" font-size="14.00" fill="#666666">[datetime]</text>
</g>
<!-- nomenclatures&#45;&gt;genes -->
<g id="edge3" class="edge">
<title>nomenclatures:gene_id&#45;&gt;genes:id</title>
<path fill="none" stroke="#000000" d="M466.6603,-825.207C420.622,-801.9255 448.3067,-608.2062 476.5,-560 492.976,-531.8286 524.024,-552.1714 540.5,-524 562.1523,-486.9779 583.3889,-427.5 540.5,-427.5"/>
<polygon fill="#000000" stroke="#000000" points="466.7609,-825.2304 475.4787,-831.8826 471.6305,-826.3652 476.5,-827.5 476.5,-827.5 476.5,-827.5 471.6305,-826.3652 477.5213,-823.1174 466.7609,-825.2304 466.7609,-825.2304"/>
<text text-anchor="start" x="483.656" y="-837.5" font-family="Arial" font-size="10.00" fill="#000000">FOREIGN KEY (gene_id) REFERENCES genes (id)</text>
</g>
<!-- transcripts -->
<g id="node4" class="node">
<title>transcripts</title>
<polygon fill="#efefef" stroke="transparent" points="923.5,-857.5 923.5,-892.5 1178.5,-892.5 1178.5,-857.5 923.5,-857.5"/>
<polygon fill="none" stroke="#000000" points="923.5,-857.5 923.5,-892.5 1178.5,-892.5 1178.5,-857.5 923.5,-857.5"/>
<text text-anchor="start" x="945.7152" y="-870.3" font-family="Arial Bold" font-size="18.00" fill="#000000">transcripts</text>
<text text-anchor="start" x="1028.7168" y="-870.3" font-family="Arial" font-size="14.00" fill="#000000">    </text>
<text text-anchor="start" x="1062.9216" y="-870.3" font-family="Arial" font-size="14.00" fill="#666666">[BASE TABLE]</text>
<polygon fill="none" stroke="#000000" points="923.5,-827.5 923.5,-857.5 1178.5,-857.5 1178.5,-827.5 923.5,-827.5"/>
<text text-anchor="start" x="930.5" y="-838.9" font-family="Arial" font-size="14.00" fill="#000000">id    </text>
<text text-anchor="start" x="975.594" y="-838.9" font-family="Arial" font-size="14.00" fill="#666666">[binary(16)]</text>
<polygon fill="none" stroke="#000000" points="923.5,-797.5 923.5,-827.5 1178.5,-827.5 1178.5,-797.5 923.5,-797.5"/>
<text text-anchor="start" x="930.5" y="-808.9" font-family="Arial" font-size="14.00" fill="#000000">transcript_id    </text>
<text text-anchor="start" x="1040.9334" y="-808.9" font-family="Arial" font-size="14.00" fill="#666666">[varchar(255)]</text>
<polygon fill="none" stroke="#000000" points="923.5,-767.5 923.5,-797.5 1178.5,-797.5 1178.5,-767.5 923.5,-767.5"/>
<text text-anchor="start" x="930.5" y="-778.9" font-family="Arial" font-size="14.00" fill="#000000">transcript_type    </text>
<text text-anchor="start" x="1056.5" y="-778.9" font-family="Arial" font-size="14.00" fill="#666666">[varchar(255)]</text>
<polygon fill="none" stroke="#000000" points="923.5,-737.5 923.5,-767.5 1178.5,-767.5 1178.5,-737.5 923.5,-737.5"/>
<text text-anchor="start" x="930.5" y="-748.9" font-family="Arial" font-size="14.00" fill="#000000">start    </text>
<text text-anchor="start" x="991.9292" y="-748.9" font-family="Arial" font-size="14.00" fill="#666666">[int]</text>
<polygon fill="none" stroke="#000000" points="923.5,-707.5 923.5,-737.5 1178.5,-737.5 1178.5,-707.5 923.5,-707.5"/>
<text text-anchor="start" x="930.5" y="-718.9" font-family="Arial" font-size="14.00" fill="#000000">end    </text>
<text text-anchor="start" x="988.0526" y="-718.9" font-family="Arial" font-size="14.00" fill="#666666">[int]</text>
<polygon fill="none" stroke="#000000" points="923.5,-677.5 923.5,-707.5 1178.5,-707.5 1178.5,-677.5 923.5,-677.5"/>
<text text-anchor="start" x="930.5" y="-688.9" font-family="Arial" font-size="14.00" fill="#000000">strand    </text>
<text text-anchor="start" x="1003.6038" y="-688.9" font-family="Arial" font-size="14.00" fill="#666666">[char(1)]</text>
<polygon fill="none" stroke="#000000" points="923.5,-647.5 923.5,-677.5 1178.5,-677.5 1178.5,-647.5 923.5,-647.5"/>
<text text-anchor="start" x="930.0386" y="-658.9" font-family="Arial" font-size="14.00" fill="#000000">annotation_version_id    </text>
<text text-anchor="start" x="1101.1788" y="-658.9" font-family="Arial" font-size="14.00" fill="#666666">[binary(16)]</text>
<polygon fill="none" stroke="#000000" points="923.5,-617.5 923.5,-647.5 1178.5,-647.5 1178.5,-617.5 923.5,-617.5"/>
<text text-anchor="start" x="930.5" y="-628.9" font-family="Arial" font-size="14.00" fill="#000000">gene_id    </text>
<text text-anchor="start" x="1014.507" y="-628.9" font-family="Arial" font-size="14.00" fill="#666666">[binary(16)]</text>
</g>
<!-- transcripts&#45;&gt;genes -->
<g id="edge4" class="edge">
<title>transcripts:gene_id&#45;&gt;genes:id</title>
<path fill="none" stroke="#000000" d="M913.4559,-631.1922C887.0536,-623.3418 899.6638,-582.07 871.5,-560 746.7738,-462.2607 698.96,-427.5 540.5,-427.5"/>
<polygon fill="#000000" stroke="#000000" points="913.5837,-631.2088 922.919,-636.9623 918.5419,-631.8544 923.5,-632.5 923.5,-632.5 923.5,-632.5 918.5419,-631.8544 924.081,-628.0377 913.5837,-631.2088 913.5837,-631.2088"/>
<text text-anchor="start" x="685.656" y="-642.5" font-family="Arial" font-size="10.00" fill="#000000">FOREIGN KEY (gene_id) REFERENCES genes (id)</text>
</g>
</g>
</svg>
