<?xml version="1.0" encoding="UTF-8" standalone="no"?>
<!DOCTYPE svg PUBLIC "-//W3C//DTD SVG 1.1//EN"
 "http://www.w3.org/Graphics/SVG/1.1/DTD/svg11.dtd">
<!-- Generated by graphviz version 2.40.1 (20161225.0304)
 -->
<!-- Title: gene_cross_references Pages: 1 -->
<svg width="1023pt" height="562pt"
 viewBox="0.00 0.00 1023.00 562.00" xmlns="http://www.w3.org/2000/svg" xmlns:xlink="http://www.w3.org/1999/xlink">
<g id="graph0" class="graph" transform="scale(1 1) rotate(0) translate(4 558)">
<title>gene_cross_references</title>
<polygon fill="#ffffff" stroke="transparent" points="-4,4 -4,-558 1019,-558 1019,4 -4,4"/>
<!-- gene_cross_references -->
<g id="node1" class="node">
<title>gene_cross_references</title>
<polygon fill="#efefef" stroke="transparent" points="281,-472.5 281,-507.5 610,-507.5 610,-472.5 281,-472.5"/>
<polygon fill="none" stroke="#000000" points="281,-472.5 281,-507.5 610,-507.5 610,-472.5 281,-472.5"/>
<text text-anchor="start" x="287.6894" y="-485.3" font-family="Arial Bold" font-size="18.00" fill="#000000">gene_cross_references</text>
<text text-anchor="start" x="475.7426" y="-485.3" font-family="Arial" font-size="14.00" fill="#000000">    </text>
<text text-anchor="start" x="509.9474" y="-485.3" font-family="Arial" font-size="14.00" fill="#666666">[BASE TABLE]</text>
<polygon fill="none" stroke="#000000" points="281,-442.5 281,-472.5 610,-472.5 610,-442.5 281,-442.5"/>
<text text-anchor="start" x="288" y="-453.9" font-family="Arial" font-size="14.00" fill="#000000">source_gene_id </text>
<text text-anchor="start" x="391.4838" y="-453.9" font-family="Arial" font-size="14.00" fill="#666666">[binary(16)]</text>
<polygon fill="none" stroke="#000000" points="281,-412.5 281,-442.5 610,-442.5 610,-412.5 281,-412.5"/>
<text text-anchor="start" x="288" y="-423.9" font-family="Arial" font-size="14.00" fill="#000000">source_annotation_version_id </text>
<text text-anchor="start" x="478.617" y="-423.9" font-family="Arial" font-size="14.00" fill="#666666">[binary(16)]</text>
<polygon fill="none" stroke="#000000" points="281,-382.5 281,-412.5 610,-412.5 610,-382.5 281,-382.5"/>
<text text-anchor="start" x="288" y="-393.9" font-family="Arial" font-size="14.00" fill="#000000">target_gene_id </text>
<text text-anchor="start" x="385.265" y="-393.9" font-family="Arial" font-size="14.00" fill="#666666">[binary(16)]</text>
<polygon fill="none" stroke="#000000" points="281,-352.5 281,-382.5 610,-382.5 610,-352.5 281,-352.5"/>
<text text-anchor="start" x="288" y="-363.9" font-family="Arial" font-size="14.00" fill="#000000">target_annotation_version_id </text>
<text text-anchor="start" x="472.3982" y="-363.9" font-family="Arial" font-size="14.00" fill="#666666">[binary(16)]</text>
<polygon fill="none" stroke="#000000" stroke-width="3" points="279,-351.5 279,-509.5 611,-509.5 611,-351.5 279,-351.5"/>
</g>
<!-- genes -->
<g id="node2" class="node">
<title>genes</title>
<polygon fill="#efefef" stroke="transparent" points="127,-162.5 127,-197.5 382,-197.5 382,-162.5 127,-162.5"/>
<polygon fill="none" stroke="#000000" points="127,-162.5 127,-197.5 382,-197.5 382,-162.5 127,-162.5"/>
<text text-anchor="start" x="166.2036" y="-175.3" font-family="Arial Bold" font-size="18.00" fill="#000000">genes</text>
<text text-anchor="start" x="215.2284" y="-175.3" font-family="Arial" font-size="14.00" fill="#000000">    </text>
<text text-anchor="start" x="249.4332" y="-175.3" font-family="Arial" font-size="14.00" fill="#666666">[BASE TABLE]</text>
<polygon fill="none" stroke="#000000" points="127,-132.5 127,-162.5 382,-162.5 382,-132.5 127,-132.5"/>
<text text-anchor="start" x="134" y="-143.9" font-family="Arial" font-size="14.00" fill="#000000">id    </text>
<text text-anchor="start" x="179.094" y="-143.9" font-family="Arial" font-size="14.00" fill="#666666">[binary(16)]</text>
<polygon fill="none" stroke="#000000" points="127,-102.5 127,-132.5 382,-132.5 382,-102.5 127,-102.5"/>
<text text-anchor="start" x="134" y="-113.9" font-family="Arial" font-size="14.00" fill="#000000">gene_id    </text>
<text text-anchor="start" x="218.007" y="-113.9" font-family="Arial" font-size="14.00" fill="#666666">[varchar(255)]</text>
<polygon fill="none" stroke="#000000" points="127,-72.5 127,-102.5 382,-102.5 382,-72.5 127,-72.5"/>
<text text-anchor="start" x="133.5386" y="-83.9" font-family="Arial" font-size="14.00" fill="#000000">annotation_version_id    </text>
<text text-anchor="start" x="304.6788" y="-83.9" font-family="Arial" font-size="14.00" fill="#666666">[binary(16)]</text>
</g>
<!-- gene_cross_references&#45;&gt;genes -->
<g id="edge1" class="edge">
<title>gene_cross_references:source_gene_id&#45;&gt;genes:id</title>
<path fill="none" stroke="#000000" d="M270.9235,-456.6979C217.9357,-447.5717 250.908,-362.6113 281,-307 306.5197,-259.8385 356.4803,-288.1615 382,-241 401.7766,-204.4521 423.5556,-147.5 382,-147.5"/>
<polygon fill="#000000" stroke="#000000" points="271.0315,-456.7064 280.6429,-461.9858 276.0158,-457.1032 281,-457.5 281,-457.5 281,-457.5 276.0158,-457.1032 281.3571,-453.0142 271.0315,-456.7064 271.0315,-456.7064"/>
<text text-anchor="start" x="7.3735" y="-467.5" font-family="Arial" font-size="10.00" fill="#000000">FOREIGN KEY (source_gene_id) REFERENCES genes (id)</text>
</g>
<!-- gene_cross_references&#45;&gt;genes -->
<g id="edge3" class="edge">
<title>gene_cross_references:target_gene_id&#45;&gt;genes:id</title>
<path fill="none" stroke="#000000" d="M270.9111,-395.9926C244.8765,-386.9218 263.7273,-338.9207 281,-307 306.5197,-259.8385 356.4803,-288.1615 382,-241 401.7766,-204.4521 423.5556,-147.5 382,-147.5"/>
<polygon fill="#000000" stroke="#000000" points="271.1098,-396.0222 280.335,-401.9506 276.0549,-396.7611 281,-397.5 281,-397.5 281,-397.5 276.0549,-396.7611 281.665,-393.0494 271.1098,-396.0222 271.1098,-396.0222"/>
<text text-anchor="start" x="11.5945" y="-407.5" font-family="Arial" font-size="10.00" fill="#000000">FOREIGN KEY (target_gene_id) REFERENCES genes (id)</text>
</g>
<!-- annotation_versions -->
<g id="node3" class="node">
<title>annotation_versions</title>
<polygon fill="#efefef" stroke="transparent" points="486,-192.5 486,-227.5 788,-227.5 788,-192.5 486,-192.5"/>
<polygon fill="none" stroke="#000000" points="486,-192.5 486,-227.5 788,-227.5 788,-192.5 486,-192.5"/>
<text text-anchor="start" x="492.6894" y="-205.3" font-family="Arial Bold" font-size="18.00" fill="#000000">annotation_versions</text>
<text text-anchor="start" x="653.7426" y="-205.3" font-family="Arial" font-size="14.00" fill="#000000">    </text>
<text text-anchor="start" x="687.9474" y="-205.3" font-family="Arial" font-size="14.00" fill="#666666">[BASE TABLE]</text>
<polygon fill="none" stroke="#000000" points="486,-162.5 486,-192.5 788,-192.5 788,-162.5 486,-162.5"/>
<text text-anchor="start" x="493" y="-173.9" font-family="Arial" font-size="14.00" fill="#000000">id    </text>
<text text-anchor="start" x="538.094" y="-173.9" font-family="Arial" font-size="14.00" fill="#666666">[binary(16)]</text>
<polygon fill="none" stroke="#000000" points="486,-132.5 486,-162.5 788,-162.5 788,-132.5 486,-132.5"/>
<text text-anchor="start" x="493" y="-143.9" font-family="Arial" font-size="14.00" fill="#000000">genome_version_id    </text>
<text text-anchor="start" x="649.3478" y="-143.9" font-family="Arial" font-size="14.00" fill="#666666">[binary(16)]</text>
<polygon fill="none" stroke="#000000" points="486,-102.5 486,-132.5 788,-132.5 788,-102.5 486,-102.5"/>
<text text-anchor="start" x="493" y="-113.9" font-family="Arial" font-size="14.00" fill="#000000">major_version    </text>
<text text-anchor="start" x="615.0954" y="-113.9" font-family="Arial" font-size="14.00" fill="#666666">[int]</text>
<polygon fill="none" stroke="#000000" points="486,-72.5 486,-102.5 788,-102.5 788,-72.5 486,-72.5"/>
<text text-anchor="start" x="493" y="-83.9" font-family="Arial" font-size="14.00" fill="#000000">minor_version    </text>
<text text-anchor="start" x="615.0954" y="-83.9" font-family="Arial" font-size="14.00" fill="#666666">[int]</text>
<polygon fill="none" stroke="#000000" points="486,-42.5 486,-72.5 788,-72.5 788,-42.5 486,-42.5"/>
<text text-anchor="start" x="493" y="-53.9" font-family="Arial" font-size="14.00" fill="#000000">patch_version    </text>
<text text-anchor="start" x="614.3408" y="-53.9" font-family="Arial" font-size="14.00" fill="#666666">[int]</text>
</g>
<!-- gene_cross_references&#45;&gt;annotation_versions -->
<g id="edge2" class="edge">
<title>gene_cross_references:source_annotation_version_id&#45;&gt;annotation_versions:id</title>
<path fill="none" stroke="#000000" d="M619.9528,-426.447C660.5801,-417.0432 639.9614,-346.8971 610,-307 575.5395,-261.112 520.4605,-316.888 486,-271 461.0461,-237.771 444.4444,-177.5 486,-177.5"/>
<polygon fill="#000000" stroke="#000000" points="619.9445,-426.4478 609.5265,-423.025 614.9723,-426.9739 610,-427.5 610,-427.5 610,-427.5 614.9723,-426.9739 610.4735,-431.975 619.9445,-426.4478 619.9445,-426.4478"/>
<text text-anchor="start" x="617.1355" y="-437.5" font-family="Arial" font-size="10.00" fill="#000000">FOREIGN KEY (source_annotation_version_id) REFERENCES annotation_versions (id)</text>
</g>
<!-- gene_cross_references&#45;&gt;annotation_versions -->
<g id="edge4" class="edge">
<title>gene_cross_references:target_annotation_version_id&#45;&gt;annotation_versions:id</title>
<path fill="none" stroke="#000000" d="M619.9709,-364.8592C633.4,-355.74 623.6237,-325.1416 610,-307 575.5395,-261.112 520.4605,-316.888 486,-271 461.0461,-237.771 444.4444,-177.5 486,-177.5"/>
<polygon fill="#000000" stroke="#000000" points="619.6667,-364.9397 608.8478,-363.15 614.8333,-366.2198 610,-367.5 610,-367.5 610,-367.5 614.8333,-366.2198 611.1522,-371.85 619.6667,-364.9397 619.6667,-364.9397"/>
<text text-anchor="start" x="617.3565" y="-377.5" font-family="Arial" font-size="10.00" fill="#000000">FOREIGN KEY (target_annotation_version_id) REFERENCES annotation_versions (id)</text>
</g>
</g>
</svg>
