<?xml version="1.0" encoding="UTF-8" standalone="no"?>
<!DOCTYPE svg PUBLIC "-//W3C//DTD SVG 1.1//EN"
 "http://www.w3.org/Graphics/SVG/1.1/DTD/svg11.dtd">
<!-- Generated by graphviz version 2.40.1 (20161225.0304)
 -->
<!-- Title: genome_versions Pages: 1 -->
<svg width="983pt" height="899pt"
 viewBox="0.00 0.00 983.00 899.00" xmlns="http://www.w3.org/2000/svg" xmlns:xlink="http://www.w3.org/1999/xlink">
<g id="graph0" class="graph" transform="scale(1 1) rotate(0) translate(4 895)">
<title>genome_versions</title>
<polygon fill="#ffffff" stroke="transparent" points="-4,4 -4,-895 979,-895 979,4 -4,4"/>
<!-- genome_versions -->
<g id="node1" class="node">
<title>genome_versions</title>
<polygon fill="#efefef" stroke="transparent" points="358,-502.5 358,-537.5 641,-537.5 641,-502.5 358,-502.5"/>
<polygon fill="none" stroke="#000000" points="358,-502.5 358,-537.5 641,-537.5 641,-502.5 358,-502.5"/>
<text text-anchor="start" x="364.6988" y="-515.3" font-family="Arial Bold" font-size="18.00" fill="#000000">genome_versions</text>
<text text-anchor="start" x="506.7332" y="-515.3" font-family="Arial" font-size="14.00" fill="#000000">    </text>
<text text-anchor="start" x="540.938" y="-515.3" font-family="Arial" font-size="14.00" fill="#666666">[BASE TABLE]</text>
<polygon fill="none" stroke="#000000" points="358,-472.5 358,-502.5 641,-502.5 641,-472.5 358,-472.5"/>
<text text-anchor="start" x="365" y="-483.9" font-family="Arial" font-size="14.00" fill="#000000">id </text>
<text text-anchor="start" x="379.7798" y="-483.9" font-family="Arial" font-size="14.00" fill="#666666">[binary(16)]</text>
<polygon fill="none" stroke="#000000" points="358,-442.5 358,-472.5 641,-472.5 641,-442.5 358,-442.5"/>
<text text-anchor="start" x="365" y="-453.9" font-family="Arial" font-size="14.00" fill="#000000">taxonomy_id </text>
<text text-anchor="start" x="448.244" y="-453.9" font-family="Arial" font-size="14.00" fill="#666666">[int unsigned]</text>
<polygon fill="none" stroke="#000000" points="358,-412.5 358,-442.5 641,-442.5 641,-412.5 358,-412.5"/>
<text text-anchor="start" x="365" y="-423.9" font-family="Arial" font-size="14.00" fill="#000000">major_version </text>
<text text-anchor="start" x="456.7812" y="-423.9" font-family="Arial" font-size="14.00" fill="#666666">[int]</text>
<polygon fill="none" stroke="#000000" points="358,-382.5 358,-412.5 641,-412.5 641,-382.5 358,-382.5"/>
<text text-anchor="start" x="365" y="-393.9" font-family="Arial" font-size="14.00" fill="#000000">minor_version </text>
<text text-anchor="start" x="456.7812" y="-393.9" font-family="Arial" font-size="14.00" fill="#666666">[int]</text>
<polygon fill="none" stroke="#000000" points="358,-352.5 358,-382.5 641,-382.5 641,-352.5 358,-352.5"/>
<text text-anchor="start" x="365" y="-363.9" font-family="Arial" font-size="14.00" fill="#000000">patch_version </text>
<text text-anchor="start" x="456.0266" y="-363.9" font-family="Arial" font-size="14.00" fill="#666666">[int]</text>
<polygon fill="none" stroke="#000000" points="358,-322.5 358,-352.5 641,-352.5 641,-322.5 358,-322.5"/>
<text text-anchor="start" x="365" y="-333.9" font-family="Arial" font-size="14.00" fill="#000000">fasta_uri </text>
<text text-anchor="start" x="422.5694" y="-333.9" font-family="Arial" font-size="14.00" fill="#666666">[varchar(255)]</text>
<polygon fill="none" stroke="#000000" points="358,-292.5 358,-322.5 641,-322.5 641,-292.5 358,-292.5"/>
<text text-anchor="start" x="365" y="-303.9" font-family="Arial" font-size="14.00" fill="#000000">fasta_index_uri </text>
<text text-anchor="start" x="463.8064" y="-303.9" font-family="Arial" font-size="14.00" fill="#666666">[varchar(255)]</text>
<polygon fill="none" stroke="#000000" stroke-width="3" points="356,-291.5 356,-539.5 642,-539.5 642,-291.5 356,-291.5"/>
</g>
<!-- organisms -->
<g id="node3" class="node">
<title>organisms</title>
<polygon fill="#efefef" stroke="transparent" points="388,-132.5 388,-167.5 612,-167.5 612,-132.5 388,-132.5"/>
<polygon fill="none" stroke="#000000" points="388,-132.5 388,-167.5 612,-167.5 612,-132.5 388,-132.5"/>
<text text-anchor="start" x="394.7143" y="-145.3" font-family="Arial Bold" font-size="18.00" fill="#000000">organisms</text>
<text text-anchor="start" x="477.7177" y="-145.3" font-family="Arial" font-size="14.00" fill="#000000">    </text>
<text text-anchor="start" x="511.9225" y="-145.3" font-family="Arial" font-size="14.00" fill="#666666">[BASE TABLE]</text>
<polygon fill="none" stroke="#000000" points="388,-102.5 388,-132.5 612,-132.5 612,-102.5 388,-102.5"/>
<text text-anchor="start" x="395" y="-113.9" font-family="Arial" font-size="14.00" fill="#000000">taxonomy_id    </text>
<text text-anchor="start" x="508.5582" y="-113.9" font-family="Arial" font-size="14.00" fill="#666666">[int unsigned]</text>
<polygon fill="none" stroke="#000000" points="388,-72.5 388,-102.5 612,-102.5 612,-72.5 388,-72.5"/>
<text text-anchor="start" x="395" y="-83.9" font-family="Arial" font-size="14.00" fill="#000000">name    </text>
<text text-anchor="start" x="464.2132" y="-83.9" font-family="Arial" font-size="14.00" fill="#666666">[varchar(255)]</text>
<polygon fill="none" stroke="#000000" points="388,-42.5 388,-72.5 612,-72.5 612,-42.5 388,-42.5"/>
<text text-anchor="start" x="395" y="-53.9" font-family="Arial" font-size="14.00" fill="#000000">codon_code    </text>
<text text-anchor="start" x="505.4656" y="-53.9" font-family="Arial" font-size="14.00" fill="#666666">[int unsigned]</text>
</g>
<!-- genome_versions&#45;&gt;organisms -->
<g id="edge2" class="edge">
<title>genome_versions:taxonomy_id&#45;&gt;organisms:taxonomy_id</title>
<path fill="none" stroke="#000000" d="M651.3935,-456.8723C731.9926,-446.6806 699.9221,-314.8998 641,-247 566.5604,-161.2183 462.4396,-296.7817 388,-211 360.764,-179.6142 346.4444,-117.5 388,-117.5"/>
<polygon fill="#000000" stroke="#000000" points="650.9818,-456.8971 640.7287,-453.0082 645.9909,-457.1985 641,-457.5 641,-457.5 641,-457.5 645.9909,-457.1985 641.2713,-461.9918 650.9818,-456.8971 650.9818,-456.8971"/>
<text text-anchor="start" x="647.712" y="-467.5" font-family="Arial" font-size="10.00" fill="#000000">FOREIGN KEY (taxonomy_id) REFERENCES organisms (taxonomy_id)</text>
</g>
<!-- annotation_versions -->
<g id="node2" class="node">
<title>annotation_versions</title>
<polygon fill="#efefef" stroke="transparent" points="349,-812.5 349,-847.5 651,-847.5 651,-812.5 349,-812.5"/>
<polygon fill="none" stroke="#000000" points="349,-812.5 349,-847.5 651,-847.5 651,-812.5 349,-812.5"/>
<text text-anchor="start" x="355.6894" y="-825.3" font-family="Arial Bold" font-size="18.00" fill="#000000">annotation_versions</text>
<text text-anchor="start" x="516.7426" y="-825.3" font-family="Arial" font-size="14.00" fill="#000000">    </text>
<text text-anchor="start" x="550.9474" y="-825.3" font-family="Arial" font-size="14.00" fill="#666666">[BASE TABLE]</text>
<polygon fill="none" stroke="#000000" points="349,-782.5 349,-812.5 651,-812.5 651,-782.5 349,-782.5"/>
<text text-anchor="start" x="356" y="-793.9" font-family="Arial" font-size="14.00" fill="#000000">id    </text>
<text text-anchor="start" x="401.094" y="-793.9" font-family="Arial" font-size="14.00" fill="#666666">[binary(16)]</text>
<polygon fill="none" stroke="#000000" points="349,-752.5 349,-782.5 651,-782.5 651,-752.5 349,-752.5"/>
<text text-anchor="start" x="356" y="-763.9" font-family="Arial" font-size="14.00" fill="#000000">genome_version_id    </text>
<text text-anchor="start" x="512.3478" y="-763.9" font-family="Arial" font-size="14.00" fill="#666666">[binary(16)]</text>
<polygon fill="none" stroke="#000000" points="349,-722.5 349,-752.5 651,-752.5 651,-722.5 349,-722.5"/>
<text text-anchor="start" x="356" y="-733.9" font-family="Arial" font-size="14.00" fill="#000000">major_version    </text>
<text text-anchor="start" x="478.0954" y="-733.9" font-family="Arial" font-size="14.00" fill="#666666">[int]</text>
<polygon fill="none" stroke="#000000" points="349,-692.5 349,-722.5 651,-722.5 651,-692.5 349,-692.5"/>
<text text-anchor="start" x="356" y="-703.9" font-family="Arial" font-size="14.00" fill="#000000">minor_version    </text>
<text text-anchor="start" x="478.0954" y="-703.9" font-family="Arial" font-size="14.00" fill="#666666">[int]</text>
<polygon fill="none" stroke="#000000" points="349,-662.5 349,-692.5 651,-692.5 651,-662.5 349,-662.5"/>
<text text-anchor="start" x="356" y="-673.9" font-family="Arial" font-size="14.00" fill="#000000">patch_version    </text>
<text text-anchor="start" x="477.3408" y="-673.9" font-family="Arial" font-size="14.00" fill="#666666">[int]</text>
</g>
<!-- annotation_versions&#45;&gt;genome_versions -->
<g id="edge1" class="edge">
<title>annotation_versions:genome_version_id&#45;&gt;genome_versions:id</title>
<path fill="none" stroke="#000000" d="M339.0207,-766.6414C285.9285,-756.8859 307.9486,-666.4233 349,-620 435.6202,-522.0448 554.3798,-681.9552 641,-584 669.4111,-551.8711 683.8889,-487.5 641,-487.5"/>
<polygon fill="#000000" stroke="#000000" points="339.0368,-766.6427 348.6142,-771.9834 344.0184,-767.0713 349,-767.5 349,-767.5 349,-767.5 344.0184,-767.0713 349.3858,-763.0166 339.0368,-766.6427 339.0368,-766.6427"/>
<text text-anchor="start" x="7.484" y="-777.5" font-family="Arial" font-size="10.00" fill="#000000">FOREIGN KEY (genome_version_id) REFERENCES genome_versions (id)</text>
</g>
</g>
</svg>
