<?xml version="1.0" encoding="UTF-8" standalone="no"?>
<!DOCTYPE svg PUBLIC "-//W3C//DTD SVG 1.1//EN"
 "http://www.w3.org/Graphics/SVG/1.1/DTD/svg11.dtd">
<!-- Generated by graphviz version 2.40.1 (20161225.0304)
 -->
<!-- Title: genomes Pages: 1 -->
<svg width="889pt" height="839pt"
 viewBox="0.00 0.00 888.50 839.00" xmlns="http://www.w3.org/2000/svg" xmlns:xlink="http://www.w3.org/1999/xlink">
<g id="graph0" class="graph" transform="scale(1 1) rotate(0) translate(4 835)">
<title>genomes</title>
<polygon fill="#ffffff" stroke="transparent" points="-4,4 -4,-835 884.5,-835 884.5,4 -4,4"/>
<!-- genomes -->
<g id="node1" class="node">
<title>genomes</title>
<polygon fill="#efefef" stroke="transparent" points="254.5,-442.5 254.5,-477.5 499.5,-477.5 499.5,-442.5 254.5,-442.5"/>
<polygon fill="none" stroke="#000000" points="254.5,-442.5 254.5,-477.5 499.5,-477.5 499.5,-442.5 254.5,-442.5"/>
<text text-anchor="start" x="276.2044" y="-455.3" font-family="Arial Bold" font-size="18.00" fill="#000000">genomes</text>
<text text-anchor="start" x="350.2276" y="-455.3" font-family="Arial" font-size="14.00" fill="#000000">    </text>
<text text-anchor="start" x="384.4324" y="-455.3" font-family="Arial" font-size="14.00" fill="#666666">[BASE TABLE]</text>
<polygon fill="none" stroke="#000000" points="254.5,-412.5 254.5,-442.5 499.5,-442.5 499.5,-412.5 254.5,-412.5"/>
<text text-anchor="start" x="261.5" y="-423.9" font-family="Arial" font-size="14.00" fill="#000000">id </text>
<text text-anchor="start" x="276.2798" y="-423.9" font-family="Arial" font-size="14.00" fill="#666666">[binary(16)]</text>
<polygon fill="none" stroke="#000000" points="254.5,-382.5 254.5,-412.5 499.5,-412.5 499.5,-382.5 254.5,-382.5"/>
<text text-anchor="start" x="261.5" y="-393.9" font-family="Arial" font-size="14.00" fill="#000000">genome_version </text>
<text text-anchor="start" x="368.8618" y="-393.9" font-family="Arial" font-size="14.00" fill="#666666">[varchar(255)]</text>
<polygon fill="none" stroke="#000000" points="254.5,-352.5 254.5,-382.5 499.5,-382.5 499.5,-352.5 254.5,-352.5"/>
<text text-anchor="start" x="261.0807" y="-363.9" font-family="Arial" font-size="14.00" fill="#000000">organism_taxonomy_id </text>
<text text-anchor="start" x="409.6655" y="-363.9" font-family="Arial" font-size="14.00" fill="#666666">[int unsigned]</text>
<polygon fill="none" stroke="#000000" points="254.5,-322.5 254.5,-352.5 499.5,-352.5 499.5,-322.5 254.5,-322.5"/>
<text text-anchor="start" x="261.5" y="-333.9" font-family="Arial" font-size="14.00" fill="#000000">created_at </text>
<text text-anchor="start" x="331.528" y="-333.9" font-family="Arial" font-size="14.00" fill="#666666">[datetime]</text>
<polygon fill="none" stroke="#000000" points="254.5,-292.5 254.5,-322.5 499.5,-322.5 499.5,-292.5 254.5,-292.5"/>
<text text-anchor="start" x="261.5" y="-303.9" font-family="Arial" font-size="14.00" fill="#000000">updated_at </text>
<text text-anchor="start" x="335.4326" y="-303.9" font-family="Arial" font-size="14.00" fill="#666666">[datetime]</text>
<polygon fill="none" stroke="#000000" stroke-width="3" points="252.5,-291.5 252.5,-479.5 500.5,-479.5 500.5,-291.5 252.5,-291.5"/>
</g>
<!-- organisms -->
<g id="node4" class="node">
<title>organisms</title>
<polygon fill="#efefef" stroke="transparent" points="265.5,-132.5 265.5,-167.5 489.5,-167.5 489.5,-132.5 265.5,-132.5"/>
<polygon fill="none" stroke="#000000" points="265.5,-132.5 265.5,-167.5 489.5,-167.5 489.5,-132.5 265.5,-132.5"/>
<text text-anchor="start" x="272.2143" y="-145.3" font-family="Arial Bold" font-size="18.00" fill="#000000">organisms</text>
<text text-anchor="start" x="355.2177" y="-145.3" font-family="Arial" font-size="14.00" fill="#000000">    </text>
<text text-anchor="start" x="389.4225" y="-145.3" font-family="Arial" font-size="14.00" fill="#666666">[BASE TABLE]</text>
<polygon fill="none" stroke="#000000" points="265.5,-102.5 265.5,-132.5 489.5,-132.5 489.5,-102.5 265.5,-102.5"/>
<text text-anchor="start" x="272.5" y="-113.9" font-family="Arial" font-size="14.00" fill="#000000">taxonomy_id    </text>
<text text-anchor="start" x="386.0582" y="-113.9" font-family="Arial" font-size="14.00" fill="#666666">[int unsigned]</text>
<polygon fill="none" stroke="#000000" points="265.5,-72.5 265.5,-102.5 489.5,-102.5 489.5,-72.5 265.5,-72.5"/>
<text text-anchor="start" x="272.5" y="-83.9" font-family="Arial" font-size="14.00" fill="#000000">name    </text>
<text text-anchor="start" x="341.7132" y="-83.9" font-family="Arial" font-size="14.00" fill="#666666">[varchar(255)]</text>
<polygon fill="none" stroke="#000000" points="265.5,-42.5 265.5,-72.5 489.5,-72.5 489.5,-42.5 265.5,-42.5"/>
<text text-anchor="start" x="272.5" y="-53.9" font-family="Arial" font-size="14.00" fill="#000000">codon_code    </text>
<text text-anchor="start" x="382.9656" y="-53.9" font-family="Arial" font-size="14.00" fill="#666666">[int unsigned]</text>
</g>
<!-- genomes&#45;&gt;organisms -->
<g id="edge3" class="edge">
<title>genomes:organism_taxonomy_id&#45;&gt;organisms:taxonomy_id</title>
<path fill="none" stroke="#000000" d="M509.4883,-366.4186C550.4255,-356.7658 531.9879,-284.8682 499.5,-247 430.9857,-167.1389 334.0143,-290.8611 265.5,-211 238.4419,-179.4608 223.9444,-117.5 265.5,-117.5"/>
<polygon fill="#000000" stroke="#000000" points="509.4419,-366.4235 499.0156,-363.0261 504.4709,-366.9618 499.5,-367.5 499.5,-367.5 499.5,-367.5 504.4709,-366.9618 499.9844,-371.9739 509.4419,-366.4235 509.4419,-366.4235"/>
<text text-anchor="start" x="506.876" y="-377.5" font-family="Arial" font-size="10.00" fill="#000000">FOREIGN KEY (organism_taxonomy_id) REFERENCES organisms (taxonomy_id)</text>
</g>
<!-- annotation_models -->
<g id="node2" class="node">
<title>annotation_models</title>
<polygon fill="#efefef" stroke="transparent" points="43.5,-752.5 43.5,-787.5 336.5,-787.5 336.5,-752.5 43.5,-752.5"/>
<polygon fill="none" stroke="#000000" points="43.5,-752.5 43.5,-787.5 336.5,-787.5 336.5,-752.5 43.5,-752.5"/>
<text text-anchor="start" x="50.1894" y="-765.3" font-family="Arial Bold" font-size="18.00" fill="#000000">annotation_models</text>
<text text-anchor="start" x="202.2426" y="-765.3" font-family="Arial" font-size="14.00" fill="#000000">    </text>
<text text-anchor="start" x="236.4474" y="-765.3" font-family="Arial" font-size="14.00" fill="#666666">[BASE TABLE]</text>
<polygon fill="none" stroke="#000000" points="43.5,-722.5 43.5,-752.5 336.5,-752.5 336.5,-722.5 43.5,-722.5"/>
<text text-anchor="start" x="50.5" y="-733.9" font-family="Arial" font-size="14.00" fill="#000000">id    </text>
<text text-anchor="start" x="95.594" y="-733.9" font-family="Arial" font-size="14.00" fill="#666666">[binary(16)]</text>
<polygon fill="none" stroke="#000000" points="43.5,-692.5 43.5,-722.5 336.5,-722.5 336.5,-692.5 43.5,-692.5"/>
<text text-anchor="start" x="50.5" y="-703.9" font-family="Arial" font-size="14.00" fill="#000000">version    </text>
<text text-anchor="start" x="129.8198" y="-703.9" font-family="Arial" font-size="14.00" fill="#666666">[varchar(255)]</text>
<polygon fill="none" stroke="#000000" points="43.5,-662.5 43.5,-692.5 336.5,-692.5 336.5,-662.5 43.5,-662.5"/>
<text text-anchor="start" x="50.5" y="-673.9" font-family="Arial" font-size="14.00" fill="#000000">genome_id    </text>
<text text-anchor="start" x="153.9502" y="-673.9" font-family="Arial" font-size="14.00" fill="#666666">[binary(16)]</text>
<polygon fill="none" stroke="#000000" points="43.5,-632.5 43.5,-662.5 336.5,-662.5 336.5,-632.5 43.5,-632.5"/>
<text text-anchor="start" x="50.5" y="-643.9" font-family="Arial" font-size="14.00" fill="#000000">created_at    </text>
<text text-anchor="start" x="150.8422" y="-643.9" font-family="Arial" font-size="14.00" fill="#666666">[datetime]</text>
<polygon fill="none" stroke="#000000" points="43.5,-602.5 43.5,-632.5 336.5,-632.5 336.5,-602.5 43.5,-602.5"/>
<text text-anchor="start" x="50.5" y="-613.9" font-family="Arial" font-size="14.00" fill="#000000">updated_at    </text>
<text text-anchor="start" x="154.7468" y="-613.9" font-family="Arial" font-size="14.00" fill="#666666">[datetime]</text>
</g>
<!-- annotation_models&#45;&gt;genomes -->
<g id="edge1" class="edge">
<title>annotation_models:genome_id&#45;&gt;genomes:id</title>
<path fill="none" stroke="#000000" d="M346.9026,-676.3233C385.1823,-666.7143 362.9364,-600.4782 336.5,-560 314.7357,-526.6756 276.2643,-557.3244 254.5,-524 231.0478,-488.0911 211.6111,-427.5 254.5,-427.5"/>
<polygon fill="#000000" stroke="#000000" points="346.4366,-676.3759 335.9942,-673.0285 341.4683,-676.9379 336.5,-677.5 336.5,-677.5 336.5,-677.5 341.4683,-676.9379 337.0058,-681.9715 346.4366,-676.3759 346.4366,-676.3759"/>
<text text-anchor="start" x="343.768" y="-687.5" font-family="Arial" font-size="10.00" fill="#000000">FOREIGN KEY (genome_id) REFERENCES genomes (id)</text>
</g>
<!-- gene_models -->
<g id="node3" class="node">
<title>gene_models</title>
<polygon fill="#efefef" stroke="transparent" points="440.5,-737.5 440.5,-772.5 689.5,-772.5 689.5,-737.5 440.5,-737.5"/>
<polygon fill="none" stroke="#000000" points="440.5,-737.5 440.5,-772.5 689.5,-772.5 689.5,-737.5 440.5,-737.5"/>
<text text-anchor="start" x="447.198" y="-750.3" font-family="Arial Bold" font-size="18.00" fill="#000000">gene_models</text>
<text text-anchor="start" x="555.234" y="-750.3" font-family="Arial" font-size="14.00" fill="#000000">    </text>
<text text-anchor="start" x="589.4388" y="-750.3" font-family="Arial" font-size="14.00" fill="#666666">[BASE TABLE]</text>
<polygon fill="none" stroke="#000000" points="440.5,-707.5 440.5,-737.5 689.5,-737.5 689.5,-707.5 440.5,-707.5"/>
<text text-anchor="start" x="447.5" y="-718.9" font-family="Arial" font-size="14.00" fill="#000000">id    </text>
<text text-anchor="start" x="492.594" y="-718.9" font-family="Arial" font-size="14.00" fill="#666666">[binary(16)]</text>
<polygon fill="none" stroke="#000000" points="440.5,-677.5 440.5,-707.5 689.5,-707.5 689.5,-677.5 440.5,-677.5"/>
<text text-anchor="start" x="447.5" y="-688.9" font-family="Arial" font-size="14.00" fill="#000000">taxonomy_id    </text>
<text text-anchor="start" x="561.0582" y="-688.9" font-family="Arial" font-size="14.00" fill="#666666">[int unsigned]</text>
<polygon fill="none" stroke="#000000" points="440.5,-647.5 440.5,-677.5 689.5,-677.5 689.5,-647.5 440.5,-647.5"/>
<text text-anchor="start" x="447.5" y="-658.9" font-family="Arial" font-size="14.00" fill="#000000">genome_id    </text>
<text text-anchor="start" x="550.9502" y="-658.9" font-family="Arial" font-size="14.00" fill="#666666">[binary(16)]</text>
<polygon fill="none" stroke="#000000" points="440.5,-617.5 440.5,-647.5 689.5,-647.5 689.5,-617.5 440.5,-617.5"/>
<text text-anchor="start" x="447.5" y="-628.9" font-family="Arial" font-size="14.00" fill="#000000">annotation_model_id    </text>
<text text-anchor="start" x="611.6402" y="-628.9" font-family="Arial" font-size="14.00" fill="#666666">[binary(16)]</text>
</g>
<!-- gene_models&#45;&gt;genomes -->
<g id="edge2" class="edge">
<title>gene_models:genome_id&#45;&gt;genomes:id</title>
<path fill="none" stroke="#000000" d="M430.4859,-660.9589C406.1572,-652.083 425.9667,-606.7731 440.5,-575 454.9176,-543.4799 485.0824,-555.5201 499.5,-524 517.3401,-484.9976 542.3889,-427.5 499.5,-427.5"/>
<polygon fill="#000000" stroke="#000000" points="430.6164,-660.9789 439.8155,-666.9476 435.5582,-661.7394 440.5,-662.5 440.5,-662.5 440.5,-662.5 435.5582,-661.7394 441.1845,-658.0524 430.6164,-660.9789 430.6164,-660.9789"/>
<text text-anchor="start" x="447.768" y="-646.5" font-family="Arial" font-size="10.00" fill="#000000">FOREIGN KEY (genome_id) REFERENCES genomes (id)</text>
</g>
</g>
</svg>
