<?xml version="1.0" encoding="UTF-8" standalone="no"?>
<!DOCTYPE svg PUBLIC "-//W3C//DTD SVG 1.1//EN"
 "http://www.w3.org/Graphics/SVG/1.1/DTD/svg11.dtd">
<!-- Generated by graphviz version 2.40.1 (20161225.0304)
 -->
<!-- Title: gff_records Pages: 1 -->
<svg width="687pt" height="989pt"
 viewBox="0.00 0.00 687.00 989.00" xmlns="http://www.w3.org/2000/svg" xmlns:xlink="http://www.w3.org/1999/xlink">
<g id="graph0" class="graph" transform="scale(1 1) rotate(0) translate(4 985)">
<title>gff_records</title>
<polygon fill="#ffffff" stroke="transparent" points="-4,4 -4,-985 683,-985 683,4 -4,4"/>
<!-- gff_records -->
<g id="node1" class="node">
<title>gff_records</title>
<polygon fill="#efefef" stroke="transparent" points="78,-682.5 78,-717.5 309,-717.5 309,-682.5 78,-682.5"/>
<polygon fill="none" stroke="#000000" points="78,-682.5 78,-717.5 309,-717.5 309,-682.5 78,-682.5"/>
<text text-anchor="start" x="84.7061" y="-695.3" font-family="Arial Bold" font-size="18.00" fill="#000000">gff_records</text>
<text text-anchor="start" x="174.7259" y="-695.3" font-family="Arial" font-size="14.00" fill="#000000">    </text>
<text text-anchor="start" x="208.9307" y="-695.3" font-family="Arial" font-size="14.00" fill="#666666">[BASE TABLE]</text>
<polygon fill="none" stroke="#000000" points="78,-652.5 78,-682.5 309,-682.5 309,-652.5 78,-652.5"/>
<text text-anchor="start" x="85" y="-663.9" font-family="Arial" font-size="14.00" fill="#000000">id </text>
<text text-anchor="start" x="99.7798" y="-663.9" font-family="Arial" font-size="14.00" fill="#666666">[binary(16)]</text>
<polygon fill="none" stroke="#000000" points="78,-622.5 78,-652.5 309,-652.5 309,-622.5 78,-622.5"/>
<text text-anchor="start" x="85" y="-633.9" font-family="Arial" font-size="14.00" fill="#000000">annotation_version_id </text>
<text text-anchor="start" x="225.826" y="-633.9" font-family="Arial" font-size="14.00" fill="#666666">[binary(16)]</text>
<polygon fill="none" stroke="#000000" points="78,-592.5 78,-622.5 309,-622.5 309,-592.5 78,-592.5"/>
<text text-anchor="start" x="85" y="-603.9" font-family="Arial" font-size="14.00" fill="#000000">seqname </text>
<text text-anchor="start" x="146.4642" y="-603.9" font-family="Arial" font-size="14.00" fill="#666666">[varchar(255)]</text>
<polygon fill="none" stroke="#000000" points="78,-562.5 78,-592.5 309,-592.5 309,-562.5 78,-562.5"/>
<text text-anchor="start" x="85" y="-573.9" font-family="Arial" font-size="14.00" fill="#000000">source </text>
<text text-anchor="start" x="130.899" y="-573.9" font-family="Arial" font-size="14.00" fill="#666666">[varchar(255)]</text>
<polygon fill="none" stroke="#000000" points="78,-532.5 78,-562.5 309,-562.5 309,-532.5 78,-532.5"/>
<text text-anchor="start" x="85" y="-543.9" font-family="Arial" font-size="14.00" fill="#000000">type </text>
<text text-anchor="start" x="115.3464" y="-543.9" font-family="Arial" font-size="14.00" fill="#666666">[varchar(255)]</text>
<polygon fill="none" stroke="#000000" points="78,-502.5 78,-532.5 309,-532.5 309,-502.5 78,-502.5"/>
<text text-anchor="start" x="85" y="-513.9" font-family="Arial" font-size="14.00" fill="#000000">start </text>
<text text-anchor="start" x="116.115" y="-513.9" font-family="Arial" font-size="14.00" fill="#666666">[int]</text>
<polygon fill="none" stroke="#000000" points="78,-472.5 78,-502.5 309,-502.5 309,-472.5 78,-472.5"/>
<text text-anchor="start" x="85" y="-483.9" font-family="Arial" font-size="14.00" fill="#000000">end </text>
<text text-anchor="start" x="112.2384" y="-483.9" font-family="Arial" font-size="14.00" fill="#666666">[int]</text>
<polygon fill="none" stroke="#000000" points="78,-442.5 78,-472.5 309,-472.5 309,-442.5 78,-442.5"/>
<text text-anchor="start" x="85" y="-453.9" font-family="Arial" font-size="14.00" fill="#000000">score </text>
<text text-anchor="start" x="123.1164" y="-453.9" font-family="Arial" font-size="14.00" fill="#666666">[float]</text>
<polygon fill="none" stroke="#000000" points="78,-412.5 78,-442.5 309,-442.5 309,-412.5 78,-412.5"/>
<text text-anchor="start" x="85" y="-423.9" font-family="Arial" font-size="14.00" fill="#000000">strand </text>
<text text-anchor="start" x="127.7896" y="-423.9" font-family="Arial" font-size="14.00" fill="#666666">[char(1)]</text>
<polygon fill="none" stroke="#000000" points="78,-382.5 78,-412.5 309,-412.5 309,-382.5 78,-382.5"/>
<text text-anchor="start" x="85" y="-393.9" font-family="Arial" font-size="14.00" fill="#000000">phase </text>
<text text-anchor="start" x="127.021" y="-393.9" font-family="Arial" font-size="14.00" fill="#666666">[char(1)]</text>
<polygon fill="none" stroke="#000000" points="78,-352.5 78,-382.5 309,-382.5 309,-352.5 78,-352.5"/>
<text text-anchor="start" x="85" y="-363.9" font-family="Arial" font-size="14.00" fill="#000000">attributes </text>
<text text-anchor="start" x="146.46" y="-363.9" font-family="Arial" font-size="14.00" fill="#666666">[json]</text>
<polygon fill="none" stroke="#000000" stroke-width="3" points="76,-351.5 76,-719.5 310,-719.5 310,-351.5 76,-351.5"/>
</g>
<!-- annotation_versions -->
<g id="node3" class="node">
<title>annotation_versions</title>
<polygon fill="#efefef" stroke="transparent" points="43,-192.5 43,-227.5 345,-227.5 345,-192.5 43,-192.5"/>
<polygon fill="none" stroke="#000000" points="43,-192.5 43,-227.5 345,-227.5 345,-192.5 43,-192.5"/>
<text text-anchor="start" x="49.6894" y="-205.3" font-family="Arial Bold" font-size="18.00" fill="#000000">annotation_versions</text>
<text text-anchor="start" x="210.7426" y="-205.3" font-family="Arial" font-size="14.00" fill="#000000">    </text>
<text text-anchor="start" x="244.9474" y="-205.3" font-family="Arial" font-size="14.00" fill="#666666">[BASE TABLE]</text>
<polygon fill="none" stroke="#000000" points="43,-162.5 43,-192.5 345,-192.5 345,-162.5 43,-162.5"/>
<text text-anchor="start" x="50" y="-173.9" font-family="Arial" font-size="14.00" fill="#000000">id    </text>
<text text-anchor="start" x="95.094" y="-173.9" font-family="Arial" font-size="14.00" fill="#666666">[binary(16)]</text>
<polygon fill="none" stroke="#000000" points="43,-132.5 43,-162.5 345,-162.5 345,-132.5 43,-132.5"/>
<text text-anchor="start" x="50" y="-143.9" font-family="Arial" font-size="14.00" fill="#000000">genome_version_id    </text>
<text text-anchor="start" x="206.3478" y="-143.9" font-family="Arial" font-size="14.00" fill="#666666">[binary(16)]</text>
<polygon fill="none" stroke="#000000" points="43,-102.5 43,-132.5 345,-132.5 345,-102.5 43,-102.5"/>
<text text-anchor="start" x="50" y="-113.9" font-family="Arial" font-size="14.00" fill="#000000">major_version    </text>
<text text-anchor="start" x="172.0954" y="-113.9" font-family="Arial" font-size="14.00" fill="#666666">[int]</text>
<polygon fill="none" stroke="#000000" points="43,-72.5 43,-102.5 345,-102.5 345,-72.5 43,-72.5"/>
<text text-anchor="start" x="50" y="-83.9" font-family="Arial" font-size="14.00" fill="#000000">minor_version    </text>
<text text-anchor="start" x="172.0954" y="-83.9" font-family="Arial" font-size="14.00" fill="#666666">[int]</text>
<polygon fill="none" stroke="#000000" points="43,-42.5 43,-72.5 345,-72.5 345,-42.5 43,-42.5"/>
<text text-anchor="start" x="50" y="-53.9" font-family="Arial" font-size="14.00" fill="#000000">patch_version    </text>
<text text-anchor="start" x="171.3408" y="-53.9" font-family="Arial" font-size="14.00" fill="#666666">[int]</text>
</g>
<!-- gff_records&#45;&gt;annotation_versions -->
<g id="edge2" class="edge">
<title>gff_records:annotation_version_id&#45;&gt;annotation_versions:id</title>
<path fill="none" stroke="#000000" d="M319.0052,-637.1419C453.5085,-627.2528 403.3852,-415.0196 309,-307 230.5026,-217.1632 121.4974,-360.8368 43,-271 15.6571,-239.7073 1.4444,-177.5 43,-177.5"/>
<polygon fill="#000000" stroke="#000000" points="318.9936,-637.1422 308.839,-633.0029 313.9968,-637.3211 309,-637.5 309,-637.5 309,-637.5 313.9968,-637.3211 309.161,-641.9971 318.9936,-637.1422 318.9936,-637.1422"/>
<text text-anchor="start" x="315.918" y="-647.5" font-family="Arial" font-size="10.00" fill="#000000">FOREIGN KEY (annotation_version_id) REFERENCES annotation_versions (id)</text>
</g>
<!-- transcript_structure -->
<g id="node2" class="node">
<title>transcript_structure</title>
<polygon fill="#efefef" stroke="transparent" points="46,-902.5 46,-937.5 341,-937.5 341,-902.5 46,-902.5"/>
<polygon fill="none" stroke="#000000" points="46,-902.5 46,-937.5 341,-937.5 341,-902.5 46,-902.5"/>
<text text-anchor="start" x="52.7084" y="-915.3" font-family="Arial Bold" font-size="18.00" fill="#000000">transcript_structure</text>
<text text-anchor="start" x="206.7236" y="-915.3" font-family="Arial" font-size="14.00" fill="#000000">    </text>
<text text-anchor="start" x="240.9284" y="-915.3" font-family="Arial" font-size="14.00" fill="#666666">[BASE TABLE]</text>
<polygon fill="none" stroke="#000000" points="46,-872.5 46,-902.5 341,-902.5 341,-872.5 46,-872.5"/>
<text text-anchor="start" x="53" y="-883.9" font-family="Arial" font-size="14.00" fill="#000000">transcript_id    </text>
<text text-anchor="start" x="163.4334" y="-883.9" font-family="Arial" font-size="14.00" fill="#666666">[binary(16)]</text>
<polygon fill="none" stroke="#000000" points="46,-842.5 46,-872.5 341,-872.5 341,-842.5 46,-842.5"/>
<text text-anchor="start" x="53" y="-853.9" font-family="Arial" font-size="14.00" fill="#000000">gff_record_id    </text>
<text text-anchor="start" x="168.892" y="-853.9" font-family="Arial" font-size="14.00" fill="#666666">[binary(16)]</text>
</g>
<!-- transcript_structure&#45;&gt;gff_records -->
<g id="edge1" class="edge">
<title>transcript_structure:gff_record_id&#45;&gt;gff_records:id</title>
<path fill="none" stroke="#000000" d="M193.0773,-832.2601C183.6983,-784.5961 105.4164,-815.6575 78,-764 57.8937,-726.1161 35.1111,-667.5 78,-667.5"/>
<polygon fill="#000000" stroke="#000000" points="193.1024,-832.5404 189.5182,-842.9039 193.5512,-837.5202 194,-842.5 194,-842.5 194,-842.5 193.5512,-837.5202 198.4818,-842.0961 193.1024,-832.5404 193.1024,-832.5404"/>
<text text-anchor="start" x="201.381" y="-852.5" font-family="Arial" font-size="10.00" fill="#000000">FOREIGN KEY (gff_record_id) REFERENCES gff_records (id)</text>
</g>
</g>
</svg>
