<?xml version="1.0" encoding="UTF-8" standalone="no"?>
<!DOCTYPE svg PUBLIC "-//W3C//DTD SVG 1.1//EN"
 "http://www.w3.org/Graphics/SVG/1.1/DTD/svg11.dtd">
<!-- Generated by graphviz version 2.40.1 (20161225.0304)
 -->
<!-- Title: gff_records Pages: 1 -->
<svg width="726pt" height="959pt"
 viewBox="0.00 0.00 726.00 959.00" xmlns="http://www.w3.org/2000/svg" xmlns:xlink="http://www.w3.org/1999/xlink">
<g id="graph0" class="graph" transform="scale(1 1) rotate(0) translate(4 955)">
<title>gff_records</title>
<polygon fill="#ffffff" stroke="transparent" points="-4,4 -4,-955 722,-955 722,4 -4,4"/>
<!-- gff_records -->
<g id="node1" class="node">
<title>gff_records</title>
<polygon fill="#efefef" stroke="transparent" points="311,-652.5 311,-687.5 542,-687.5 542,-652.5 311,-652.5"/>
<polygon fill="none" stroke="#000000" points="311,-652.5 311,-687.5 542,-687.5 542,-652.5 311,-652.5"/>
<text text-anchor="start" x="317.7061" y="-665.3" font-family="Arial Bold" font-size="18.00" fill="#000000">gff_records</text>
<text text-anchor="start" x="407.7259" y="-665.3" font-family="Arial" font-size="14.00" fill="#000000">    </text>
<text text-anchor="start" x="441.9307" y="-665.3" font-family="Arial" font-size="14.00" fill="#666666">[BASE TABLE]</text>
<polygon fill="none" stroke="#000000" points="311,-622.5 311,-652.5 542,-652.5 542,-622.5 311,-622.5"/>
<text text-anchor="start" x="318" y="-633.9" font-family="Arial" font-size="14.00" fill="#000000">id </text>
<text text-anchor="start" x="332.7798" y="-633.9" font-family="Arial" font-size="14.00" fill="#666666">[binary(16)]</text>
<polygon fill="none" stroke="#000000" points="311,-592.5 311,-622.5 542,-622.5 542,-592.5 311,-592.5"/>
<text text-anchor="start" x="318" y="-603.9" font-family="Arial" font-size="14.00" fill="#000000">gene_model_id </text>
<text text-anchor="start" x="417.5904" y="-603.9" font-family="Arial" font-size="14.00" fill="#666666">[binary(16)]</text>
<polygon fill="none" stroke="#000000" points="311,-562.5 311,-592.5 542,-592.5 542,-562.5 311,-562.5"/>
<text text-anchor="start" x="318" y="-573.9" font-family="Arial" font-size="14.00" fill="#000000">seqname </text>
<text text-anchor="start" x="379.4642" y="-573.9" font-family="Arial" font-size="14.00" fill="#666666">[varchar(255)]</text>
<polygon fill="none" stroke="#000000" points="311,-532.5 311,-562.5 542,-562.5 542,-532.5 311,-532.5"/>
<text text-anchor="start" x="318" y="-543.9" font-family="Arial" font-size="14.00" fill="#000000">source </text>
<text text-anchor="start" x="363.899" y="-543.9" font-family="Arial" font-size="14.00" fill="#666666">[varchar(255)]</text>
<polygon fill="none" stroke="#000000" points="311,-502.5 311,-532.5 542,-532.5 542,-502.5 311,-502.5"/>
<text text-anchor="start" x="318" y="-513.9" font-family="Arial" font-size="14.00" fill="#000000">type </text>
<text text-anchor="start" x="348.3464" y="-513.9" font-family="Arial" font-size="14.00" fill="#666666">[varchar(255)]</text>
<polygon fill="none" stroke="#000000" points="311,-472.5 311,-502.5 542,-502.5 542,-472.5 311,-472.5"/>
<text text-anchor="start" x="318" y="-483.9" font-family="Arial" font-size="14.00" fill="#000000">start </text>
<text text-anchor="start" x="349.115" y="-483.9" font-family="Arial" font-size="14.00" fill="#666666">[int]</text>
<polygon fill="none" stroke="#000000" points="311,-442.5 311,-472.5 542,-472.5 542,-442.5 311,-442.5"/>
<text text-anchor="start" x="318" y="-453.9" font-family="Arial" font-size="14.00" fill="#000000">end </text>
<text text-anchor="start" x="345.2384" y="-453.9" font-family="Arial" font-size="14.00" fill="#666666">[int]</text>
<polygon fill="none" stroke="#000000" points="311,-412.5 311,-442.5 542,-442.5 542,-412.5 311,-412.5"/>
<text text-anchor="start" x="318" y="-423.9" font-family="Arial" font-size="14.00" fill="#000000">score </text>
<text text-anchor="start" x="356.1164" y="-423.9" font-family="Arial" font-size="14.00" fill="#666666">[float]</text>
<polygon fill="none" stroke="#000000" points="311,-382.5 311,-412.5 542,-412.5 542,-382.5 311,-382.5"/>
<text text-anchor="start" x="318" y="-393.9" font-family="Arial" font-size="14.00" fill="#000000">strand </text>
<text text-anchor="start" x="360.7896" y="-393.9" font-family="Arial" font-size="14.00" fill="#666666">[char(1)]</text>
<polygon fill="none" stroke="#000000" points="311,-352.5 311,-382.5 542,-382.5 542,-352.5 311,-352.5"/>
<text text-anchor="start" x="318" y="-363.9" font-family="Arial" font-size="14.00" fill="#000000">phase </text>
<text text-anchor="start" x="360.021" y="-363.9" font-family="Arial" font-size="14.00" fill="#666666">[char(1)]</text>
<polygon fill="none" stroke="#000000" points="311,-322.5 311,-352.5 542,-352.5 542,-322.5 311,-322.5"/>
<text text-anchor="start" x="318" y="-333.9" font-family="Arial" font-size="14.00" fill="#000000">attributes </text>
<text text-anchor="start" x="379.46" y="-333.9" font-family="Arial" font-size="14.00" fill="#666666">[json]</text>
<polygon fill="none" stroke="#000000" stroke-width="3" points="309,-321.5 309,-689.5 543,-689.5 543,-321.5 309,-321.5"/>
</g>
<!-- gene_models -->
<g id="node3" class="node">
<title>gene_models</title>
<polygon fill="#efefef" stroke="transparent" points="302,-162.5 302,-197.5 551,-197.5 551,-162.5 302,-162.5"/>
<polygon fill="none" stroke="#000000" points="302,-162.5 302,-197.5 551,-197.5 551,-162.5 302,-162.5"/>
<text text-anchor="start" x="308.698" y="-175.3" font-family="Arial Bold" font-size="18.00" fill="#000000">gene_models</text>
<text text-anchor="start" x="416.734" y="-175.3" font-family="Arial" font-size="14.00" fill="#000000">    </text>
<text text-anchor="start" x="450.9388" y="-175.3" font-family="Arial" font-size="14.00" fill="#666666">[BASE TABLE]</text>
<polygon fill="none" stroke="#000000" points="302,-132.5 302,-162.5 551,-162.5 551,-132.5 302,-132.5"/>
<text text-anchor="start" x="309" y="-143.9" font-family="Arial" font-size="14.00" fill="#000000">id    </text>
<text text-anchor="start" x="354.094" y="-143.9" font-family="Arial" font-size="14.00" fill="#666666">[binary(16)]</text>
<polygon fill="none" stroke="#000000" points="302,-102.5 302,-132.5 551,-132.5 551,-102.5 302,-102.5"/>
<text text-anchor="start" x="309" y="-113.9" font-family="Arial" font-size="14.00" fill="#000000">taxonomy_id    </text>
<text text-anchor="start" x="422.5582" y="-113.9" font-family="Arial" font-size="14.00" fill="#666666">[int unsigned]</text>
<polygon fill="none" stroke="#000000" points="302,-72.5 302,-102.5 551,-102.5 551,-72.5 302,-72.5"/>
<text text-anchor="start" x="309" y="-83.9" font-family="Arial" font-size="14.00" fill="#000000">genome_id    </text>
<text text-anchor="start" x="412.4502" y="-83.9" font-family="Arial" font-size="14.00" fill="#666666">[binary(16)]</text>
<polygon fill="none" stroke="#000000" points="302,-42.5 302,-72.5 551,-72.5 551,-42.5 302,-42.5"/>
<text text-anchor="start" x="309" y="-53.9" font-family="Arial" font-size="14.00" fill="#000000">annotation_model_id    </text>
<text text-anchor="start" x="473.1402" y="-53.9" font-family="Arial" font-size="14.00" fill="#666666">[binary(16)]</text>
</g>
<!-- gff_records&#45;&gt;gene_models -->
<g id="edge2" class="edge">
<title>gff_records:gene_model_id&#45;&gt;gene_models:id</title>
<path fill="none" stroke="#000000" d="M300.8437,-605.9245C208.2729,-576.5921 203.2528,-147.5 302,-147.5"/>
<polygon fill="#000000" stroke="#000000" points="301.1182,-605.967 310.3102,-611.9468 306.0591,-606.7335 311,-607.5 311,-607.5 311,-607.5 306.0591,-606.7335 311.6898,-603.0532 301.1182,-605.967 301.1182,-605.967"/>
<text text-anchor="start" x="7.372" y="-617.5" font-family="Arial" font-size="10.00" fill="#000000">FOREIGN KEY (gene_model_id) REFERENCES gene_models (id)</text>
</g>
<!-- transcript_structure -->
<g id="node2" class="node">
<title>transcript_structure</title>
<polygon fill="#efefef" stroke="transparent" points="279,-872.5 279,-907.5 574,-907.5 574,-872.5 279,-872.5"/>
<polygon fill="none" stroke="#000000" points="279,-872.5 279,-907.5 574,-907.5 574,-872.5 279,-872.5"/>
<text text-anchor="start" x="285.7084" y="-885.3" font-family="Arial Bold" font-size="18.00" fill="#000000">transcript_structure</text>
<text text-anchor="start" x="439.7236" y="-885.3" font-family="Arial" font-size="14.00" fill="#000000">    </text>
<text text-anchor="start" x="473.9284" y="-885.3" font-family="Arial" font-size="14.00" fill="#666666">[BASE TABLE]</text>
<polygon fill="none" stroke="#000000" points="279,-842.5 279,-872.5 574,-872.5 574,-842.5 279,-842.5"/>
<text text-anchor="start" x="286" y="-853.9" font-family="Arial" font-size="14.00" fill="#000000">transcript_id    </text>
<text text-anchor="start" x="396.4334" y="-853.9" font-family="Arial" font-size="14.00" fill="#666666">[binary(16)]</text>
<polygon fill="none" stroke="#000000" points="279,-812.5 279,-842.5 574,-842.5 574,-812.5 279,-812.5"/>
<text text-anchor="start" x="286" y="-823.9" font-family="Arial" font-size="14.00" fill="#000000">gff_record_id    </text>
<text text-anchor="start" x="401.892" y="-823.9" font-family="Arial" font-size="14.00" fill="#666666">[binary(16)]</text>
</g>
<!-- transcript_structure&#45;&gt;gff_records -->
<g id="edge1" class="edge">
<title>transcript_structure:gff_record_id&#45;&gt;gff_records:id</title>
<path fill="none" stroke="#000000" d="M426.0773,-802.2601C416.6983,-754.5961 338.4164,-785.6575 311,-734 290.8937,-696.1161 268.1111,-637.5 311,-637.5"/>
<polygon fill="#000000" stroke="#000000" points="426.1024,-802.5404 422.5182,-812.9039 426.5512,-807.5202 427,-812.5 427,-812.5 427,-812.5 426.5512,-807.5202 431.4818,-812.0961 426.1024,-802.5404 426.1024,-802.5404"/>
<text text-anchor="start" x="434.381" y="-822.5" font-family="Arial" font-size="10.00" fill="#000000">FOREIGN KEY (gff_record_id) REFERENCES gff_records (id)</text>
</g>
</g>
</svg>
