<?xml version="1.0" encoding="UTF-8" standalone="no"?>
<!DOCTYPE svg PUBLIC "-//W3C//DTD SVG 1.1//EN"
 "http://www.w3.org/Graphics/SVG/1.1/DTD/svg11.dtd">
<!-- Generated by graphviz version 2.40.1 (20161225.0304)
 -->
<!-- Title: go_terms Pages: 1 -->
<svg width="635pt" height="592pt"
 viewBox="0.00 0.00 635.00 592.00" xmlns="http://www.w3.org/2000/svg" xmlns:xlink="http://www.w3.org/1999/xlink">
<g id="graph0" class="graph" transform="scale(1 1) rotate(0) translate(4 588)">
<title>go_terms</title>
<polygon fill="#ffffff" stroke="transparent" points="-4,4 -4,-588 631,-588 631,4 -4,4"/>
<!-- go_terms -->
<g id="node1" class="node">
<title>go_terms</title>
<polygon fill="#efefef" stroke="transparent" points="315,-165.5 315,-200.5 542,-200.5 542,-165.5 315,-165.5"/>
<polygon fill="none" stroke="#000000" points="315,-165.5 315,-200.5 542,-200.5 542,-165.5 315,-165.5"/>
<text text-anchor="start" x="327.2103" y="-178.3" font-family="Arial Bold" font-size="18.00" fill="#000000">go_terms</text>
<text text-anchor="start" x="402.2217" y="-178.3" font-family="Arial" font-size="14.00" fill="#000000">    </text>
<text text-anchor="start" x="436.4265" y="-178.3" font-family="Arial" font-size="14.00" fill="#666666">[BASE TABLE]</text>
<polygon fill="none" stroke="#000000" points="315,-135.5 315,-165.5 542,-165.5 542,-135.5 315,-135.5"/>
<text text-anchor="start" x="322" y="-146.9" font-family="Arial" font-size="14.00" fill="#000000">id </text>
<text text-anchor="start" x="336.7798" y="-146.9" font-family="Arial" font-size="14.00" fill="#666666">[varchar(255)]</text>
<polygon fill="none" stroke="#000000" points="315,-105.5 315,-135.5 542,-135.5 542,-105.5 315,-105.5"/>
<text text-anchor="start" x="322" y="-116.9" font-family="Arial" font-size="14.00" fill="#000000">name </text>
<text text-anchor="start" x="360.899" y="-116.9" font-family="Arial" font-size="14.00" fill="#666666">[varchar(255)]</text>
<polygon fill="none" stroke="#000000" points="315,-75.5 315,-105.5 542,-105.5 542,-75.5 315,-75.5"/>
<text text-anchor="start" x="321.603" y="-86.9" font-family="Arial" font-size="14.00" fill="#000000">namespace </text>
<text text-anchor="start" x="397.8498" y="-86.9" font-family="Arial" font-size="14.00" fill="#666666">[enum(&#39;BP&#39;,&#39;CC&#39;,&#39;MF&#39;)]</text>
<polygon fill="none" stroke="#000000" points="315,-45.5 315,-75.5 542,-75.5 542,-45.5 315,-45.5"/>
<text text-anchor="start" x="322" y="-56.9" font-family="Arial" font-size="14.00" fill="#000000">definition </text>
<text text-anchor="start" x="381.9046" y="-56.9" font-family="Arial" font-size="14.00" fill="#666666">[text]</text>
<polygon fill="none" stroke="#000000" stroke-width="3" points="313,-44.5 313,-202.5 543,-202.5 543,-44.5 313,-44.5"/>
</g>
<!-- go_terms_annotation -->
<g id="node2" class="node">
<title>go_terms_annotation</title>
<polygon fill="#efefef" stroke="transparent" points="274,-505.5 274,-540.5 584,-540.5 584,-505.5 274,-505.5"/>
<polygon fill="none" stroke="#000000" points="274,-505.5 274,-540.5 584,-540.5 584,-505.5 274,-505.5"/>
<text text-anchor="start" x="280.6862" y="-518.3" font-family="Arial Bold" font-size="18.00" fill="#000000">go_terms_annotation</text>
<text text-anchor="start" x="449.7458" y="-518.3" font-family="Arial" font-size="14.00" fill="#000000">    </text>
<text text-anchor="start" x="483.9506" y="-518.3" font-family="Arial" font-size="14.00" fill="#666666">[BASE TABLE]</text>
<polygon fill="none" stroke="#000000" points="274,-475.5 274,-505.5 584,-505.5 584,-475.5 274,-475.5"/>
<text text-anchor="start" x="281" y="-486.9" font-family="Arial" font-size="14.00" fill="#000000">go_term_id    </text>
<text text-anchor="start" x="385.2188" y="-486.9" font-family="Arial" font-size="14.00" fill="#666666">[varchar(255)]</text>
<polygon fill="none" stroke="#000000" points="274,-445.5 274,-475.5 584,-475.5 584,-445.5 274,-445.5"/>
<text text-anchor="start" x="281" y="-456.9" font-family="Arial" font-size="14.00" fill="#000000">transcript_id    </text>
<text text-anchor="start" x="391.4334" y="-456.9" font-family="Arial" font-size="14.00" fill="#666666">[binary(16)]</text>
<polygon fill="none" stroke="#000000" points="274,-415.5 274,-445.5 584,-445.5 584,-415.5 274,-415.5"/>
<text text-anchor="start" x="281" y="-426.9" font-family="Arial" font-size="14.00" fill="#000000">evidence_code    </text>
<text text-anchor="start" x="409.3548" y="-426.9" font-family="Arial" font-size="14.00" fill="#666666">[char(3)]</text>
<polygon fill="none" stroke="#000000" points="274,-385.5 274,-415.5 584,-415.5 584,-385.5 274,-385.5"/>
<text text-anchor="start" x="281" y="-396.9" font-family="Arial" font-size="14.00" fill="#000000">created_at    </text>
<text text-anchor="start" x="381.3422" y="-396.9" font-family="Arial" font-size="14.00" fill="#666666">[datetime]</text>
<polygon fill="none" stroke="#000000" points="274,-355.5 274,-385.5 584,-385.5 584,-355.5 274,-355.5"/>
<text text-anchor="start" x="281" y="-366.9" font-family="Arial" font-size="14.00" fill="#000000">updated_at    </text>
<text text-anchor="start" x="385.2468" y="-366.9" font-family="Arial" font-size="14.00" fill="#666666">[datetime]</text>
<polygon fill="none" stroke="#000000" points="274,-325.5 274,-355.5 584,-355.5 584,-325.5 274,-325.5"/>
<text text-anchor="start" x="281" y="-336.9" font-family="Arial" font-size="14.00" fill="#000000">assisgned_by    </text>
<text text-anchor="start" x="400.7896" y="-336.9" font-family="Arial" font-size="14.00" fill="#666666">[binary(16)]</text>
</g>
<!-- go_terms_annotation&#45;&gt;go_terms -->
<g id="edge1" class="edge">
<title>go_terms_annotation:go_term_id&#45;&gt;go_terms:id</title>
<path fill="none" stroke="#000000" d="M263.7535,-489.8802C184.2838,-479.817 215.6566,-349.7046 274,-283 353.1219,-192.5391 462.8781,-337.4609 542,-247 570.2362,-214.7173 584.8889,-150.5 542,-150.5"/>
<polygon fill="#000000" stroke="#000000" points="264.0182,-489.8961 273.7283,-494.9918 269.0091,-490.1981 274,-490.5 274,-490.5 274,-490.5 269.0091,-490.1981 274.2717,-486.0082 264.0182,-489.8961 264.0182,-489.8961"/>
<text text-anchor="start" x="6.719" y="-500.5" font-family="Arial" font-size="10.00" fill="#000000">FOREIGN KEY (go_term_id) REFERENCES go_terms (id)</text>
</g>
</g>
</svg>
