<?xml version="1.0" encoding="UTF-8" standalone="no"?>
<!DOCTYPE svg PUBLIC "-//W3C//DTD SVG 1.1//EN"
 "http://www.w3.org/Graphics/SVG/1.1/DTD/svg11.dtd">
<!-- Generated by graphviz version 2.40.1 (20161225.0304)
 -->
<!-- Title: go_terms_annotation Pages: 1 -->
<svg width="1001pt" height="712pt"
 viewBox="0.00 0.00 1000.50 712.00" xmlns="http://www.w3.org/2000/svg" xmlns:xlink="http://www.w3.org/1999/xlink">
<g id="graph0" class="graph" transform="scale(1 1) rotate(0) translate(4 708)">
<title>go_terms_annotation</title>
<polygon fill="#ffffff" stroke="transparent" points="-4,4 -4,-708 996.5,-708 996.5,4 -4,4"/>
<!-- go_terms_annotation -->
<g id="node1" class="node">
<title>go_terms_annotation</title>
<polygon fill="#efefef" stroke="transparent" points="379,-622.5 379,-657.5 689,-657.5 689,-622.5 379,-622.5"/>
<polygon fill="none" stroke="#000000" points="379,-622.5 379,-657.5 689,-657.5 689,-622.5 379,-622.5"/>
<text text-anchor="start" x="385.6862" y="-635.3" font-family="Arial Bold" font-size="18.00" fill="#000000">go_terms_annotation</text>
<text text-anchor="start" x="554.7458" y="-635.3" font-family="Arial" font-size="14.00" fill="#000000">    </text>
<text text-anchor="start" x="588.9506" y="-635.3" font-family="Arial" font-size="14.00" fill="#666666">[BASE TABLE]</text>
<polygon fill="none" stroke="#000000" points="379,-592.5 379,-622.5 689,-622.5 689,-592.5 379,-592.5"/>
<text text-anchor="start" x="386" y="-603.9" font-family="Arial" font-size="14.00" fill="#000000">go_term_id </text>
<text text-anchor="start" x="459.9046" y="-603.9" font-family="Arial" font-size="14.00" fill="#666666">[varchar(255)]</text>
<polygon fill="none" stroke="#000000" points="379,-562.5 379,-592.5 689,-592.5 689,-562.5 379,-562.5"/>
<text text-anchor="start" x="386" y="-573.9" font-family="Arial" font-size="14.00" fill="#000000">transcript_id </text>
<text text-anchor="start" x="466.1192" y="-573.9" font-family="Arial" font-size="14.00" fill="#666666">[binary(16)]</text>
<polygon fill="none" stroke="#000000" points="379,-532.5 379,-562.5 689,-562.5 689,-532.5 379,-532.5"/>
<text text-anchor="start" x="386" y="-543.9" font-family="Arial" font-size="14.00" fill="#000000">evidence_code </text>
<text text-anchor="start" x="484.0406" y="-543.9" font-family="Arial" font-size="14.00" fill="#666666">[char(3)]</text>
<polygon fill="none" stroke="#000000" points="379,-502.5 379,-532.5 689,-532.5 689,-502.5 379,-502.5"/>
<text text-anchor="start" x="386" y="-513.9" font-family="Arial" font-size="14.00" fill="#000000">created_at </text>
<text text-anchor="start" x="456.028" y="-513.9" font-family="Arial" font-size="14.00" fill="#666666">[datetime]</text>
<polygon fill="none" stroke="#000000" points="379,-472.5 379,-502.5 689,-502.5 689,-472.5 379,-472.5"/>
<text text-anchor="start" x="386" y="-483.9" font-family="Arial" font-size="14.00" fill="#000000">updated_at </text>
<text text-anchor="start" x="459.9326" y="-483.9" font-family="Arial" font-size="14.00" fill="#666666">[datetime]</text>
<polygon fill="none" stroke="#000000" points="379,-442.5 379,-472.5 689,-472.5 689,-442.5 379,-442.5"/>
<text text-anchor="start" x="386" y="-453.9" font-family="Arial" font-size="14.00" fill="#000000">assigned_by </text>
<text text-anchor="start" x="468.4754" y="-453.9" font-family="Arial" font-size="14.00" fill="#666666">[binary(16)]</text>
<polygon fill="none" stroke="#000000" stroke-width="3" points="377.5,-441.5 377.5,-659.5 690.5,-659.5 690.5,-441.5 377.5,-441.5"/>
</g>
<!-- go_terms -->
<g id="node2" class="node">
<title>go_terms</title>
<polygon fill="#efefef" stroke="transparent" points="43,-237.5 43,-272.5 301,-272.5 301,-237.5 43,-237.5"/>
<polygon fill="none" stroke="#000000" points="43,-237.5 43,-272.5 301,-272.5 301,-237.5 43,-237.5"/>
<text text-anchor="start" x="70.7103" y="-250.3" font-family="Arial Bold" font-size="18.00" fill="#000000">go_terms</text>
<text text-anchor="start" x="145.7217" y="-250.3" font-family="Arial" font-size="14.00" fill="#000000">    </text>
<text text-anchor="start" x="179.9265" y="-250.3" font-family="Arial" font-size="14.00" fill="#666666">[BASE TABLE]</text>
<polygon fill="none" stroke="#000000" points="43,-207.5 43,-237.5 301,-237.5 301,-207.5 43,-207.5"/>
<text text-anchor="start" x="50" y="-218.9" font-family="Arial" font-size="14.00" fill="#000000">id    </text>
<text text-anchor="start" x="95.094" y="-218.9" font-family="Arial" font-size="14.00" fill="#666666">[varchar(255)]</text>
<polygon fill="none" stroke="#000000" points="43,-177.5 43,-207.5 301,-207.5 301,-177.5 43,-177.5"/>
<text text-anchor="start" x="50" y="-188.9" font-family="Arial" font-size="14.00" fill="#000000">name    </text>
<text text-anchor="start" x="119.2132" y="-188.9" font-family="Arial" font-size="14.00" fill="#666666">[varchar(255)]</text>
<polygon fill="none" stroke="#000000" points="43,-147.5 43,-177.5 301,-177.5 301,-147.5 43,-147.5"/>
<text text-anchor="start" x="49.9459" y="-158.9" font-family="Arial" font-size="14.00" fill="#000000">namespace    </text>
<text text-anchor="start" x="156.5069" y="-158.9" font-family="Arial" font-size="14.00" fill="#666666">[enum(&#39;BP&#39;,&#39;CC&#39;,&#39;MF&#39;)]</text>
<polygon fill="none" stroke="#000000" points="43,-117.5 43,-147.5 301,-147.5 301,-117.5 43,-117.5"/>
<text text-anchor="start" x="50" y="-128.9" font-family="Arial" font-size="14.00" fill="#000000">definition    </text>
<text text-anchor="start" x="140.2188" y="-128.9" font-family="Arial" font-size="14.00" fill="#666666">[text]</text>
<polygon fill="none" stroke="#000000" points="43,-87.5 43,-117.5 301,-117.5 301,-87.5 43,-87.5"/>
<text text-anchor="start" x="50" y="-98.9" font-family="Arial" font-size="14.00" fill="#000000">parent_id    </text>
<text text-anchor="start" x="142.5582" y="-98.9" font-family="Arial" font-size="14.00" fill="#666666">[varchar(255)]</text>
</g>
<!-- go_terms_annotation&#45;&gt;go_terms -->
<g id="edge1" class="edge">
<title>go_terms_annotation:go_term_id&#45;&gt;go_terms:id</title>
<path fill="none" stroke="#000000" d="M369.1614,-605.6101C299.3201,-576.5656 384.7133,-222.5 301,-222.5"/>
<polygon fill="#000000" stroke="#000000" points="369.1795,-605.6135 378.1511,-611.9192 374.0898,-606.5567 379,-607.5 379,-607.5 379,-607.5 374.0898,-606.5567 379.8489,-603.0808 369.1795,-605.6135 369.1795,-605.6135"/>
<text text-anchor="start" x="111.719" y="-617.5" font-family="Arial" font-size="10.00" fill="#000000">FOREIGN KEY (go_term_id) REFERENCES go_terms (id)</text>
</g>
<!-- transcripts -->
<g id="node3" class="node">
<title>transcripts</title>
<polygon fill="#efefef" stroke="transparent" points="406,-282.5 406,-317.5 661,-317.5 661,-282.5 406,-282.5"/>
<polygon fill="none" stroke="#000000" points="406,-282.5 406,-317.5 661,-317.5 661,-282.5 406,-282.5"/>
<text text-anchor="start" x="428.2152" y="-295.3" font-family="Arial Bold" font-size="18.00" fill="#000000">transcripts</text>
<text text-anchor="start" x="511.2168" y="-295.3" font-family="Arial" font-size="14.00" fill="#000000">    </text>
<text text-anchor="start" x="545.4216" y="-295.3" font-family="Arial" font-size="14.00" fill="#666666">[BASE TABLE]</text>
<polygon fill="none" stroke="#000000" points="406,-252.5 406,-282.5 661,-282.5 661,-252.5 406,-252.5"/>
<text text-anchor="start" x="413" y="-263.9" font-family="Arial" font-size="14.00" fill="#000000">id    </text>
<text text-anchor="start" x="458.094" y="-263.9" font-family="Arial" font-size="14.00" fill="#666666">[binary(16)]</text>
<polygon fill="none" stroke="#000000" points="406,-222.5 406,-252.5 661,-252.5 661,-222.5 406,-222.5"/>
<text text-anchor="start" x="413" y="-233.9" font-family="Arial" font-size="14.00" fill="#000000">transcript_id    </text>
<text text-anchor="start" x="523.4334" y="-233.9" font-family="Arial" font-size="14.00" fill="#666666">[varchar(255)]</text>
<polygon fill="none" stroke="#000000" points="406,-192.5 406,-222.5 661,-222.5 661,-192.5 406,-192.5"/>
<text text-anchor="start" x="413" y="-203.9" font-family="Arial" font-size="14.00" fill="#000000">transcript_type    </text>
<text text-anchor="start" x="539" y="-203.9" font-family="Arial" font-size="14.00" fill="#666666">[varchar(255)]</text>
<polygon fill="none" stroke="#000000" points="406,-162.5 406,-192.5 661,-192.5 661,-162.5 406,-162.5"/>
<text text-anchor="start" x="413" y="-173.9" font-family="Arial" font-size="14.00" fill="#000000">start    </text>
<text text-anchor="start" x="474.4292" y="-173.9" font-family="Arial" font-size="14.00" fill="#666666">[int]</text>
<polygon fill="none" stroke="#000000" points="406,-132.5 406,-162.5 661,-162.5 661,-132.5 406,-132.5"/>
<text text-anchor="start" x="413" y="-143.9" font-family="Arial" font-size="14.00" fill="#000000">end    </text>
<text text-anchor="start" x="470.5526" y="-143.9" font-family="Arial" font-size="14.00" fill="#666666">[int]</text>
<polygon fill="none" stroke="#000000" points="406,-102.5 406,-132.5 661,-132.5 661,-102.5 406,-102.5"/>
<text text-anchor="start" x="413" y="-113.9" font-family="Arial" font-size="14.00" fill="#000000">strand    </text>
<text text-anchor="start" x="486.1038" y="-113.9" font-family="Arial" font-size="14.00" fill="#666666">[char(1)]</text>
<polygon fill="none" stroke="#000000" points="406,-72.5 406,-102.5 661,-102.5 661,-72.5 406,-72.5"/>
<text text-anchor="start" x="412.5386" y="-83.9" font-family="Arial" font-size="14.00" fill="#000000">annotation_version_id    </text>
<text text-anchor="start" x="583.6788" y="-83.9" font-family="Arial" font-size="14.00" fill="#666666">[binary(16)]</text>
<polygon fill="none" stroke="#000000" points="406,-42.5 406,-72.5 661,-72.5 661,-42.5 406,-42.5"/>
<text text-anchor="start" x="413" y="-53.9" font-family="Arial" font-size="14.00" fill="#000000">gene_id    </text>
<text text-anchor="start" x="497.007" y="-53.9" font-family="Arial" font-size="14.00" fill="#666666">[binary(16)]</text>
</g>
<!-- go_terms_annotation&#45;&gt;transcripts -->
<g id="edge2" class="edge">
<title>go_terms_annotation:transcript_id&#45;&gt;transcripts:id</title>
<path fill="none" stroke="#000000" d="M368.8318,-576.7881C301.2745,-566.814 328.3689,-454.5055 379,-397 462.495,-302.1684 577.505,-455.8316 661,-361 688.4608,-329.8107 702.5556,-267.5 661,-267.5"/>
<polygon fill="#000000" stroke="#000000" points="369.0244,-576.8015 378.6857,-581.989 374.0122,-577.1508 379,-577.5 379,-577.5 379,-577.5 374.0122,-577.1508 379.3143,-573.011 369.0244,-576.8015 369.0244,-576.8015"/>
<text text-anchor="start" x="103.28" y="-587.5" font-family="Arial" font-size="10.00" fill="#000000">FOREIGN KEY (transcript_id) REFERENCES transcripts (id)</text>
</g>
<!-- users -->
<g id="node4" class="node">
<title>users</title>
<polygon fill="#efefef" stroke="transparent" points="765,-207.5 765,-242.5 950,-242.5 950,-207.5 765,-207.5"/>
<polygon fill="none" stroke="#000000" points="765,-207.5 765,-242.5 950,-242.5 950,-207.5 765,-207.5"/>
<text text-anchor="start" x="771.7137" y="-220.3" font-family="Arial Bold" font-size="18.00" fill="#000000">users</text>
<text text-anchor="start" x="815.7183" y="-220.3" font-family="Arial" font-size="14.00" fill="#000000">    </text>
<text text-anchor="start" x="849.9231" y="-220.3" font-family="Arial" font-size="14.00" fill="#666666">[BASE TABLE]</text>
<polygon fill="none" stroke="#000000" points="765,-177.5 765,-207.5 950,-207.5 950,-177.5 765,-177.5"/>
<text text-anchor="start" x="772" y="-188.9" font-family="Arial" font-size="14.00" fill="#000000">id    </text>
<text text-anchor="start" x="817.094" y="-188.9" font-family="Arial" font-size="14.00" fill="#666666">[binary(16)]</text>
<polygon fill="none" stroke="#000000" points="765,-147.5 765,-177.5 950,-177.5 950,-147.5 765,-147.5"/>
<text text-anchor="start" x="772" y="-158.9" font-family="Arial" font-size="14.00" fill="#000000">orc_id    </text>
<text text-anchor="start" x="844.3198" y="-158.9" font-family="Arial" font-size="14.00" fill="#666666">[varchar(255)]</text>
<polygon fill="none" stroke="#000000" points="765,-117.5 765,-147.5 950,-147.5 950,-117.5 765,-117.5"/>
<text text-anchor="start" x="772" y="-128.9" font-family="Arial" font-size="14.00" fill="#000000">email    </text>
<text text-anchor="start" x="839.6438" y="-128.9" font-family="Arial" font-size="14.00" fill="#666666">[varchar(255)]</text>
</g>
<!-- go_terms_annotation&#45;&gt;users -->
<g id="edge3" class="edge">
<title>go_terms_annotation:assigned_by&#45;&gt;users:id</title>
<path fill="none" stroke="#000000" d="M699.0327,-456.831C801.8706,-442.2001 646.0639,-192.5 765,-192.5"/>
<polygon fill="#000000" stroke="#000000" points="698.9778,-456.8345 688.7005,-453.01 693.9889,-457.1673 689,-457.5 689,-457.5 689,-457.5 693.9889,-457.1673 689.2995,-461.99 698.9778,-456.8345 698.9778,-456.8345"/>
<text text-anchor="start" x="696.271" y="-467.5" font-family="Arial" font-size="10.00" fill="#000000">FOREIGN KEY (assigned_by) REFERENCES users (id)</text>
</g>
</g>
</svg>
