<?xml version="1.0" encoding="UTF-8" standalone="no"?>
<!DOCTYPE svg PUBLIC "-//W3C//DTD SVG 1.1//EN"
 "http://www.w3.org/Graphics/SVG/1.1/DTD/svg11.dtd">
<!-- Generated by graphviz version 2.40.1 (20161225.0304)
 -->
<!-- Title: go_terms_annotation Pages: 1 -->
<svg width="973pt" height="712pt"
 viewBox="0.00 0.00 972.50 712.00" xmlns="http://www.w3.org/2000/svg" xmlns:xlink="http://www.w3.org/1999/xlink">
<g id="graph0" class="graph" transform="scale(1 1) rotate(0) translate(4 708)">
<title>go_terms_annotation</title>
<polygon fill="#ffffff" stroke="transparent" points="-4,4 -4,-708 968.5,-708 968.5,4 -4,4"/>
<!-- go_terms_annotation -->
<g id="node1" class="node">
<title>go_terms_annotation</title>
<polygon fill="#efefef" stroke="transparent" points="365,-622.5 365,-657.5 675,-657.5 675,-622.5 365,-622.5"/>
<polygon fill="none" stroke="#000000" points="365,-622.5 365,-657.5 675,-657.5 675,-622.5 365,-622.5"/>
<text text-anchor="start" x="371.6862" y="-635.3" font-family="Arial Bold" font-size="18.00" fill="#000000">go_terms_annotation</text>
<text text-anchor="start" x="540.7458" y="-635.3" font-family="Arial" font-size="14.00" fill="#000000">    </text>
<text text-anchor="start" x="574.9506" y="-635.3" font-family="Arial" font-size="14.00" fill="#666666">[BASE TABLE]</text>
<polygon fill="none" stroke="#000000" points="365,-592.5 365,-622.5 675,-622.5 675,-592.5 365,-592.5"/>
<text text-anchor="start" x="372" y="-603.9" font-family="Arial" font-size="14.00" fill="#000000">go_term_id </text>
<text text-anchor="start" x="445.9046" y="-603.9" font-family="Arial" font-size="14.00" fill="#666666">[varchar(255)]</text>
<polygon fill="none" stroke="#000000" points="365,-562.5 365,-592.5 675,-592.5 675,-562.5 365,-562.5"/>
<text text-anchor="start" x="372" y="-573.9" font-family="Arial" font-size="14.00" fill="#000000">transcript_id </text>
<text text-anchor="start" x="452.1192" y="-573.9" font-family="Arial" font-size="14.00" fill="#666666">[binary(16)]</text>
<polygon fill="none" stroke="#000000" points="365,-532.5 365,-562.5 675,-562.5 675,-532.5 365,-532.5"/>
<text text-anchor="start" x="372" y="-543.9" font-family="Arial" font-size="14.00" fill="#000000">evidence_code </text>
<text text-anchor="start" x="470.0406" y="-543.9" font-family="Arial" font-size="14.00" fill="#666666">[char(3)]</text>
<polygon fill="none" stroke="#000000" points="365,-502.5 365,-532.5 675,-532.5 675,-502.5 365,-502.5"/>
<text text-anchor="start" x="372" y="-513.9" font-family="Arial" font-size="14.00" fill="#000000">created_at </text>
<text text-anchor="start" x="442.028" y="-513.9" font-family="Arial" font-size="14.00" fill="#666666">[datetime]</text>
<polygon fill="none" stroke="#000000" points="365,-472.5 365,-502.5 675,-502.5 675,-472.5 365,-472.5"/>
<text text-anchor="start" x="372" y="-483.9" font-family="Arial" font-size="14.00" fill="#000000">updated_at </text>
<text text-anchor="start" x="445.9326" y="-483.9" font-family="Arial" font-size="14.00" fill="#666666">[datetime]</text>
<polygon fill="none" stroke="#000000" points="365,-442.5 365,-472.5 675,-472.5 675,-442.5 365,-442.5"/>
<text text-anchor="start" x="372" y="-453.9" font-family="Arial" font-size="14.00" fill="#000000">assisgned_by </text>
<text text-anchor="start" x="461.4754" y="-453.9" font-family="Arial" font-size="14.00" fill="#666666">[binary(16)]</text>
<polygon fill="none" stroke="#000000" stroke-width="3" points="363.5,-441.5 363.5,-659.5 676.5,-659.5 676.5,-441.5 363.5,-441.5"/>
</g>
<!-- go_terms -->
<g id="node2" class="node">
<title>go_terms</title>
<polygon fill="#efefef" stroke="transparent" points="43,-222.5 43,-257.5 301,-257.5 301,-222.5 43,-222.5"/>
<polygon fill="none" stroke="#000000" points="43,-222.5 43,-257.5 301,-257.5 301,-222.5 43,-222.5"/>
<text text-anchor="start" x="70.7103" y="-235.3" font-family="Arial Bold" font-size="18.00" fill="#000000">go_terms</text>
<text text-anchor="start" x="145.7217" y="-235.3" font-family="Arial" font-size="14.00" fill="#000000">    </text>
<text text-anchor="start" x="179.9265" y="-235.3" font-family="Arial" font-size="14.00" fill="#666666">[BASE TABLE]</text>
<polygon fill="none" stroke="#000000" points="43,-192.5 43,-222.5 301,-222.5 301,-192.5 43,-192.5"/>
<text text-anchor="start" x="50" y="-203.9" font-family="Arial" font-size="14.00" fill="#000000">id    </text>
<text text-anchor="start" x="95.094" y="-203.9" font-family="Arial" font-size="14.00" fill="#666666">[varchar(255)]</text>
<polygon fill="none" stroke="#000000" points="43,-162.5 43,-192.5 301,-192.5 301,-162.5 43,-162.5"/>
<text text-anchor="start" x="50" y="-173.9" font-family="Arial" font-size="14.00" fill="#000000">name    </text>
<text text-anchor="start" x="119.2132" y="-173.9" font-family="Arial" font-size="14.00" fill="#666666">[varchar(255)]</text>
<polygon fill="none" stroke="#000000" points="43,-132.5 43,-162.5 301,-162.5 301,-132.5 43,-132.5"/>
<text text-anchor="start" x="49.9459" y="-143.9" font-family="Arial" font-size="14.00" fill="#000000">namespace    </text>
<text text-anchor="start" x="156.5069" y="-143.9" font-family="Arial" font-size="14.00" fill="#666666">[enum(&#39;BP&#39;,&#39;CC&#39;,&#39;MF&#39;)]</text>
<polygon fill="none" stroke="#000000" points="43,-102.5 43,-132.5 301,-132.5 301,-102.5 43,-102.5"/>
<text text-anchor="start" x="50" y="-113.9" font-family="Arial" font-size="14.00" fill="#000000">definition    </text>
<text text-anchor="start" x="140.2188" y="-113.9" font-family="Arial" font-size="14.00" fill="#666666">[text]</text>
</g>
<!-- go_terms_annotation&#45;&gt;go_terms -->
<g id="edge1" class="edge">
<title>go_terms_annotation:go_term_id&#45;&gt;go_terms:id</title>
<path fill="none" stroke="#000000" d="M354.9349,-605.5365C284.1527,-575.3604 387.3273,-207.5 301,-207.5"/>
<polygon fill="#000000" stroke="#000000" points="355.185,-605.5852 364.1383,-611.9167 360.0925,-606.5426 365,-607.5 365,-607.5 365,-607.5 360.0925,-606.5426 365.8617,-603.0833 355.185,-605.5852 355.185,-605.5852"/>
<text text-anchor="start" x="97.719" y="-617.5" font-family="Arial" font-size="10.00" fill="#000000">FOREIGN KEY (go_term_id) REFERENCES go_terms (id)</text>
</g>
<!-- transcripts -->
<g id="node3" class="node">
<title>transcripts</title>
<polygon fill="#efefef" stroke="transparent" points="406,-282.5 406,-317.5 633,-317.5 633,-282.5 406,-282.5"/>
<polygon fill="none" stroke="#000000" points="406,-282.5 406,-317.5 633,-317.5 633,-282.5 406,-282.5"/>
<text text-anchor="start" x="414.2152" y="-295.3" font-family="Arial Bold" font-size="18.00" fill="#000000">transcripts</text>
<text text-anchor="start" x="497.2168" y="-295.3" font-family="Arial" font-size="14.00" fill="#000000">    </text>
<text text-anchor="start" x="531.4216" y="-295.3" font-family="Arial" font-size="14.00" fill="#666666">[BASE TABLE]</text>
<polygon fill="none" stroke="#000000" points="406,-252.5 406,-282.5 633,-282.5 633,-252.5 406,-252.5"/>
<text text-anchor="start" x="413" y="-263.9" font-family="Arial" font-size="14.00" fill="#000000">id    </text>
<text text-anchor="start" x="458.094" y="-263.9" font-family="Arial" font-size="14.00" fill="#666666">[binary(16)]</text>
<polygon fill="none" stroke="#000000" points="406,-222.5 406,-252.5 633,-252.5 633,-222.5 406,-222.5"/>
<text text-anchor="start" x="413" y="-233.9" font-family="Arial" font-size="14.00" fill="#000000">transcript_id    </text>
<text text-anchor="start" x="523.4334" y="-233.9" font-family="Arial" font-size="14.00" fill="#666666">[varchar(255)]</text>
<polygon fill="none" stroke="#000000" points="406,-192.5 406,-222.5 633,-222.5 633,-192.5 406,-192.5"/>
<text text-anchor="start" x="413" y="-203.9" font-family="Arial" font-size="14.00" fill="#000000">gene_model_id    </text>
<text text-anchor="start" x="542.9046" y="-203.9" font-family="Arial" font-size="14.00" fill="#666666">[binary(16)]</text>
<polygon fill="none" stroke="#000000" points="406,-162.5 406,-192.5 633,-192.5 633,-162.5 406,-162.5"/>
<text text-anchor="start" x="413" y="-173.9" font-family="Arial" font-size="14.00" fill="#000000">gene_id    </text>
<text text-anchor="start" x="497.007" y="-173.9" font-family="Arial" font-size="14.00" fill="#666666">[binary(16)]</text>
<polygon fill="none" stroke="#000000" points="406,-132.5 406,-162.5 633,-162.5 633,-132.5 406,-132.5"/>
<text text-anchor="start" x="412.9404" y="-143.9" font-family="Arial" font-size="14.00" fill="#000000">transcript_type    </text>
<text text-anchor="start" x="538.9404" y="-143.9" font-family="Arial" font-size="14.00" fill="#666666">[varchar(255)]</text>
<polygon fill="none" stroke="#000000" points="406,-102.5 406,-132.5 633,-132.5 633,-102.5 406,-102.5"/>
<text text-anchor="start" x="413" y="-113.9" font-family="Arial" font-size="14.00" fill="#000000">start    </text>
<text text-anchor="start" x="474.4292" y="-113.9" font-family="Arial" font-size="14.00" fill="#666666">[int]</text>
<polygon fill="none" stroke="#000000" points="406,-72.5 406,-102.5 633,-102.5 633,-72.5 406,-72.5"/>
<text text-anchor="start" x="413" y="-83.9" font-family="Arial" font-size="14.00" fill="#000000">end    </text>
<text text-anchor="start" x="470.5526" y="-83.9" font-family="Arial" font-size="14.00" fill="#666666">[int]</text>
<polygon fill="none" stroke="#000000" points="406,-42.5 406,-72.5 633,-72.5 633,-42.5 406,-42.5"/>
<text text-anchor="start" x="413" y="-53.9" font-family="Arial" font-size="14.00" fill="#000000">strand    </text>
<text text-anchor="start" x="486.1038" y="-53.9" font-family="Arial" font-size="14.00" fill="#666666">[char(1)]</text>
</g>
<!-- go_terms_annotation&#45;&gt;transcripts -->
<g id="edge2" class="edge">
<title>go_terms_annotation:transcript_id&#45;&gt;transcripts:id</title>
<path fill="none" stroke="#000000" d="M354.8329,-576.7891C287.2914,-566.8288 314.5577,-454.6712 365,-397 444.1219,-306.5391 553.8781,-451.4609 633,-361 660.3584,-329.7209 674.5556,-267.5 633,-267.5"/>
<polygon fill="#000000" stroke="#000000" points="355.0244,-576.8024 364.6861,-581.989 360.0122,-577.1512 365,-577.5 365,-577.5 365,-577.5 360.0122,-577.1512 365.3139,-573.011 355.0244,-576.8024 355.0244,-576.8024"/>
<text text-anchor="start" x="89.28" y="-587.5" font-family="Arial" font-size="10.00" fill="#000000">FOREIGN KEY (transcript_id) REFERENCES transcripts (id)</text>
</g>
<!-- users -->
<g id="node4" class="node">
<title>users</title>
<polygon fill="#efefef" stroke="transparent" points="737,-207.5 737,-242.5 922,-242.5 922,-207.5 737,-207.5"/>
<polygon fill="none" stroke="#000000" points="737,-207.5 737,-242.5 922,-242.5 922,-207.5 737,-207.5"/>
<text text-anchor="start" x="743.7137" y="-220.3" font-family="Arial Bold" font-size="18.00" fill="#000000">users</text>
<text text-anchor="start" x="787.7183" y="-220.3" font-family="Arial" font-size="14.00" fill="#000000">    </text>
<text text-anchor="start" x="821.9231" y="-220.3" font-family="Arial" font-size="14.00" fill="#666666">[BASE TABLE]</text>
<polygon fill="none" stroke="#000000" points="737,-177.5 737,-207.5 922,-207.5 922,-177.5 737,-177.5"/>
<text text-anchor="start" x="744" y="-188.9" font-family="Arial" font-size="14.00" fill="#000000">id    </text>
<text text-anchor="start" x="789.094" y="-188.9" font-family="Arial" font-size="14.00" fill="#666666">[binary(16)]</text>
<polygon fill="none" stroke="#000000" points="737,-147.5 737,-177.5 922,-177.5 922,-147.5 737,-147.5"/>
<text text-anchor="start" x="744" y="-158.9" font-family="Arial" font-size="14.00" fill="#000000">orc_id    </text>
<text text-anchor="start" x="816.3198" y="-158.9" font-family="Arial" font-size="14.00" fill="#666666">[varchar(255)]</text>
<polygon fill="none" stroke="#000000" points="737,-117.5 737,-147.5 922,-147.5 922,-117.5 737,-117.5"/>
<text text-anchor="start" x="744" y="-128.9" font-family="Arial" font-size="14.00" fill="#000000">email    </text>
<text text-anchor="start" x="811.6438" y="-128.9" font-family="Arial" font-size="14.00" fill="#666666">[varchar(255)]</text>
</g>
<!-- go_terms_annotation&#45;&gt;users -->
<g id="edge3" class="edge">
<title>go_terms_annotation:assisgned_by&#45;&gt;users:id</title>
<path fill="none" stroke="#000000" d="M685.1749,-456.7861C785.3407,-441.6979 619.7035,-192.5 737,-192.5"/>
<polygon fill="#000000" stroke="#000000" points="684.9755,-456.8 674.685,-453.011 679.9877,-457.15 675,-457.5 675,-457.5 675,-457.5 679.9877,-457.15 675.315,-461.989 684.9755,-456.8 684.9755,-456.8"/>
<text text-anchor="start" x="681.771" y="-467.5" font-family="Arial" font-size="10.00" fill="#000000">FOREIGN KEY (assisgned_by) REFERENCES users (id)</text>
</g>
</g>
</svg>
