<?xml version="1.0" encoding="UTF-8" standalone="no"?>
<!DOCTYPE svg PUBLIC "-//W3C//DTD SVG 1.1//EN"
 "http://www.w3.org/Graphics/SVG/1.1/DTD/svg11.dtd">
<!-- Generated by graphviz version 2.40.1 (20161225.0304)
 -->
<!-- Title: go_terms Pages: 1 -->
<svg width="704pt" height="622pt"
 viewBox="0.00 0.00 704.21 622.00" xmlns="http://www.w3.org/2000/svg" xmlns:xlink="http://www.w3.org/1999/xlink">
<g id="graph0" class="graph" transform="scale(1 1) rotate(0) translate(4 618)">
<title>go_terms</title>
<polygon fill="#ffffff" stroke="transparent" points="-4,4 -4,-618 700.2063,-618 700.2063,4 -4,4"/>
<!-- go_terms -->
<g id="node1" class="node">
<title>go_terms</title>
<polygon fill="#efefef" stroke="transparent" points="315,-195.5 315,-230.5 542,-230.5 542,-195.5 315,-195.5"/>
<polygon fill="none" stroke="#000000" points="315,-195.5 315,-230.5 542,-230.5 542,-195.5 315,-195.5"/>
<text text-anchor="start" x="327.2103" y="-208.3" font-family="Arial Bold" font-size="18.00" fill="#000000">go_terms</text>
<text text-anchor="start" x="402.2217" y="-208.3" font-family="Arial" font-size="14.00" fill="#000000">    </text>
<text text-anchor="start" x="436.4265" y="-208.3" font-family="Arial" font-size="14.00" fill="#666666">[BASE TABLE]</text>
<polygon fill="none" stroke="#000000" points="315,-165.5 315,-195.5 542,-195.5 542,-165.5 315,-165.5"/>
<text text-anchor="start" x="322" y="-176.9" font-family="Arial" font-size="14.00" fill="#000000">id </text>
<text text-anchor="start" x="336.7798" y="-176.9" font-family="Arial" font-size="14.00" fill="#666666">[varchar(255)]</text>
<polygon fill="none" stroke="#000000" points="315,-135.5 315,-165.5 542,-165.5 542,-135.5 315,-135.5"/>
<text text-anchor="start" x="322" y="-146.9" font-family="Arial" font-size="14.00" fill="#000000">name </text>
<text text-anchor="start" x="360.899" y="-146.9" font-family="Arial" font-size="14.00" fill="#666666">[varchar(255)]</text>
<polygon fill="none" stroke="#000000" points="315,-105.5 315,-135.5 542,-135.5 542,-105.5 315,-105.5"/>
<text text-anchor="start" x="321.603" y="-116.9" font-family="Arial" font-size="14.00" fill="#000000">namespace </text>
<text text-anchor="start" x="397.8498" y="-116.9" font-family="Arial" font-size="14.00" fill="#666666">[enum(&#39;BP&#39;,&#39;CC&#39;,&#39;MF&#39;)]</text>
<polygon fill="none" stroke="#000000" points="315,-75.5 315,-105.5 542,-105.5 542,-75.5 315,-75.5"/>
<text text-anchor="start" x="322" y="-86.9" font-family="Arial" font-size="14.00" fill="#000000">definition </text>
<text text-anchor="start" x="381.9046" y="-86.9" font-family="Arial" font-size="14.00" fill="#666666">[text]</text>
<polygon fill="none" stroke="#000000" points="315,-45.5 315,-75.5 542,-75.5 542,-45.5 315,-45.5"/>
<text text-anchor="start" x="322" y="-56.9" font-family="Arial" font-size="14.00" fill="#000000">parent_id </text>
<text text-anchor="start" x="384.244" y="-56.9" font-family="Arial" font-size="14.00" fill="#666666">[varchar(255)]</text>
<polygon fill="none" stroke="#000000" stroke-width="3" points="313,-44.5 313,-232.5 543,-232.5 543,-44.5 313,-44.5"/>
</g>
<!-- go_terms&#45;&gt;go_terms -->
<g id="edge1" class="edge">
<title>go_terms:parent_id&#45;&gt;go_terms:id</title>
<path fill="none" stroke="#000000" d="M430.8685,-85.7764C437.9496,-200.7473 437.3268,-439 429,-439 420.4395,-439 420.0215,-295.7514 427.746,-195.5637"/>
<polygon fill="#000000" stroke="#000000" points="430.863,-85.6918 434.6966,-75.4178 430.5347,-80.7026 430.2063,-75.7134 430.2063,-75.7134 430.2063,-75.7134 430.5347,-80.7026 425.716,-76.0089 430.863,-85.6918 430.863,-85.6918"/>
<text text-anchor="start" x="437.0898" y="-85.7134" font-family="Arial" font-size="10.00" fill="#000000">FOREIGN KEY (parent_id) REFERENCES go_terms (id)</text>
</g>
<!-- go_terms_annotation -->
<g id="node2" class="node">
<title>go_terms_annotation</title>
<polygon fill="#efefef" stroke="transparent" points="274,-535.5 274,-570.5 584,-570.5 584,-535.5 274,-535.5"/>
<polygon fill="none" stroke="#000000" points="274,-535.5 274,-570.5 584,-570.5 584,-535.5 274,-535.5"/>
<text text-anchor="start" x="280.6862" y="-548.3" font-family="Arial Bold" font-size="18.00" fill="#000000">go_terms_annotation</text>
<text text-anchor="start" x="449.7458" y="-548.3" font-family="Arial" font-size="14.00" fill="#000000">    </text>
<text text-anchor="start" x="483.9506" y="-548.3" font-family="Arial" font-size="14.00" fill="#666666">[BASE TABLE]</text>
<polygon fill="none" stroke="#000000" points="274,-505.5 274,-535.5 584,-535.5 584,-505.5 274,-505.5"/>
<text text-anchor="start" x="281" y="-516.9" font-family="Arial" font-size="14.00" fill="#000000">go_term_id    </text>
<text text-anchor="start" x="385.2188" y="-516.9" font-family="Arial" font-size="14.00" fill="#666666">[varchar(255)]</text>
<polygon fill="none" stroke="#000000" points="274,-475.5 274,-505.5 584,-505.5 584,-475.5 274,-475.5"/>
<text text-anchor="start" x="281" y="-486.9" font-family="Arial" font-size="14.00" fill="#000000">transcript_id    </text>
<text text-anchor="start" x="391.4334" y="-486.9" font-family="Arial" font-size="14.00" fill="#666666">[binary(16)]</text>
<polygon fill="none" stroke="#000000" points="274,-445.5 274,-475.5 584,-475.5 584,-445.5 274,-445.5"/>
<text text-anchor="start" x="281" y="-456.9" font-family="Arial" font-size="14.00" fill="#000000">evidence_code    </text>
<text text-anchor="start" x="409.3548" y="-456.9" font-family="Arial" font-size="14.00" fill="#666666">[char(3)]</text>
<polygon fill="none" stroke="#000000" points="274,-415.5 274,-445.5 584,-445.5 584,-415.5 274,-415.5"/>
<text text-anchor="start" x="281" y="-426.9" font-family="Arial" font-size="14.00" fill="#000000">created_at    </text>
<text text-anchor="start" x="381.3422" y="-426.9" font-family="Arial" font-size="14.00" fill="#666666">[datetime]</text>
<polygon fill="none" stroke="#000000" points="274,-385.5 274,-415.5 584,-415.5 584,-385.5 274,-385.5"/>
<text text-anchor="start" x="281" y="-396.9" font-family="Arial" font-size="14.00" fill="#000000">updated_at    </text>
<text text-anchor="start" x="385.2468" y="-396.9" font-family="Arial" font-size="14.00" fill="#666666">[datetime]</text>
<polygon fill="none" stroke="#000000" points="274,-355.5 274,-385.5 584,-385.5 584,-355.5 274,-355.5"/>
<text text-anchor="start" x="281" y="-366.9" font-family="Arial" font-size="14.00" fill="#000000">assigned_by    </text>
<text text-anchor="start" x="393.7896" y="-366.9" font-family="Arial" font-size="14.00" fill="#666666">[binary(16)]</text>
</g>
<!-- go_terms_annotation&#45;&gt;go_terms -->
<g id="edge2" class="edge">
<title>go_terms_annotation:go_term_id&#45;&gt;go_terms:id</title>
<path fill="none" stroke="#000000" d="M263.7535,-519.8802C184.2838,-509.817 215.6566,-379.7046 274,-313 353.1219,-222.5391 462.8781,-367.4609 542,-277 570.2362,-244.7173 584.8889,-180.5 542,-180.5"/>
<polygon fill="#000000" stroke="#000000" points="264.0182,-519.8961 273.7283,-524.9918 269.0091,-520.1981 274,-520.5 274,-520.5 274,-520.5 269.0091,-520.1981 274.2717,-516.0082 264.0182,-519.8961 264.0182,-519.8961"/>
<text text-anchor="start" x="6.719" y="-530.5" font-family="Arial" font-size="10.00" fill="#000000">FOREIGN KEY (go_term_id) REFERENCES go_terms (id)</text>
</g>
</g>
</svg>
