<?xml version="1.0" encoding="UTF-8" standalone="no"?>
<!DOCTYPE svg PUBLIC "-//W3C//DTD SVG 1.1//EN"
 "http://www.w3.org/Graphics/SVG/1.1/DTD/svg11.dtd">
<!-- Generated by graphviz version 2.40.1 (20161225.0304)
 -->
<!-- Title: kegg_reaction Pages: 1 -->
<svg width="868pt" height="442pt"
 viewBox="0.00 0.00 867.50 442.00" xmlns="http://www.w3.org/2000/svg" xmlns:xlink="http://www.w3.org/1999/xlink">
<g id="graph0" class="graph" transform="scale(1 1) rotate(0) translate(4 438)">
<title>kegg_reaction</title>
<polygon fill="#ffffff" stroke="transparent" points="-4,4 -4,-438 863.5,-438 863.5,4 -4,4"/>
<!-- kegg_reaction -->
<g id="node1" class="node">
<title>kegg_reaction</title>
<polygon fill="#efefef" stroke="transparent" points="305,-135.5 305,-170.5 559,-170.5 559,-135.5 305,-135.5"/>
<polygon fill="none" stroke="#000000" points="305,-135.5 305,-170.5 559,-170.5 559,-135.5 305,-135.5"/>
<text text-anchor="start" x="311.6969" y="-148.3" font-family="Arial Bold" font-size="18.00" fill="#000000">kegg_reaction</text>
<text text-anchor="start" x="424.7351" y="-148.3" font-family="Arial" font-size="14.00" fill="#000000">    </text>
<text text-anchor="start" x="458.9399" y="-148.3" font-family="Arial" font-size="14.00" fill="#666666">[BASE TABLE]</text>
<polygon fill="none" stroke="#000000" points="305,-105.5 305,-135.5 559,-135.5 559,-105.5 305,-105.5"/>
<text text-anchor="start" x="312" y="-116.9" font-family="Arial" font-size="14.00" fill="#000000">id </text>
<text text-anchor="start" x="326.7798" y="-116.9" font-family="Arial" font-size="14.00" fill="#666666">[varchar(255)]</text>
<polygon fill="none" stroke="#000000" points="305,-75.5 305,-105.5 559,-105.5 559,-75.5 305,-75.5"/>
<text text-anchor="start" x="312" y="-86.9" font-family="Arial" font-size="14.00" fill="#000000">name </text>
<text text-anchor="start" x="350.899" y="-86.9" font-family="Arial" font-size="14.00" fill="#666666">[varchar(255)]</text>
<polygon fill="none" stroke="#000000" points="305,-45.5 305,-75.5 559,-75.5 559,-45.5 305,-45.5"/>
<text text-anchor="start" x="312" y="-56.9" font-family="Arial" font-size="14.00" fill="#000000">description </text>
<text text-anchor="start" x="383.568" y="-56.9" font-family="Arial" font-size="14.00" fill="#666666">[text]</text>
<polygon fill="none" stroke="#000000" stroke-width="3" points="303.5,-44.5 303.5,-172.5 560.5,-172.5 560.5,-44.5 303.5,-44.5"/>
</g>
<!-- kegg_reaction_orthology -->
<g id="node2" class="node">
<title>kegg_reaction_orthology</title>
<polygon fill="#efefef" stroke="transparent" points="43,-355.5 43,-390.5 381,-390.5 381,-355.5 43,-355.5"/>
<polygon fill="none" stroke="#000000" points="43,-355.5 43,-390.5 381,-390.5 381,-355.5 43,-355.5"/>
<text text-anchor="start" x="49.684" y="-368.3" font-family="Arial Bold" font-size="18.00" fill="#000000">kegg_reaction_orthology</text>
<text text-anchor="start" x="246.748" y="-368.3" font-family="Arial" font-size="14.00" fill="#000000">    </text>
<text text-anchor="start" x="280.9528" y="-368.3" font-family="Arial" font-size="14.00" fill="#666666">[BASE TABLE]</text>
<polygon fill="none" stroke="#000000" points="43,-325.5 43,-355.5 381,-355.5 381,-325.5 43,-325.5"/>
<text text-anchor="start" x="50" y="-336.9" font-family="Arial" font-size="14.00" fill="#000000">kegg_reaction_id    </text>
<text text-anchor="start" x="190.7952" y="-336.9" font-family="Arial" font-size="14.00" fill="#666666">[varchar(255)]</text>
<polygon fill="none" stroke="#000000" points="43,-295.5 43,-325.5 381,-325.5 381,-295.5 43,-295.5"/>
<text text-anchor="start" x="50" y="-306.9" font-family="Arial" font-size="14.00" fill="#000000">kegg_orthology_id    </text>
<text text-anchor="start" x="198.5778" y="-306.9" font-family="Arial" font-size="14.00" fill="#666666">[varchar(255)]</text>
</g>
<!-- kegg_reaction_orthology&#45;&gt;kegg_reaction -->
<g id="edge1" class="edge">
<title>kegg_reaction_orthology:kegg_reaction_id&#45;&gt;kegg_reaction:id</title>
<path fill="none" stroke="#000000" d="M391.1425,-338.8893C416.1859,-329.6262 399.6837,-282.524 381,-253 361.0134,-221.4172 324.9866,-248.5828 305,-217 282.0652,-180.7584 262.1111,-120.5 305,-120.5"/>
<polygon fill="#000000" stroke="#000000" points="390.8762,-338.9315 380.2942,-336.0557 385.9381,-339.7157 381,-340.5 381,-340.5 381,-340.5 385.9381,-339.7157 381.7058,-344.9443 390.8762,-338.9315 390.8762,-338.9315"/>
<text text-anchor="start" x="388.093" y="-350.5" font-family="Arial" font-size="10.00" fill="#000000">FOREIGN KEY (kegg_reaction_id) REFERENCES kegg_reaction (id)</text>
</g>
<!-- kegg_reaction_pathway -->
<g id="node3" class="node">
<title>kegg_reaction_pathway</title>
<polygon fill="#efefef" stroke="transparent" points="486,-355.5 486,-390.5 817,-390.5 817,-355.5 486,-355.5"/>
<polygon fill="none" stroke="#000000" points="486,-355.5 486,-390.5 817,-390.5 817,-355.5 486,-355.5"/>
<text text-anchor="start" x="492.6832" y="-368.3" font-family="Arial Bold" font-size="18.00" fill="#000000">kegg_reaction_pathway</text>
<text text-anchor="start" x="682.7488" y="-368.3" font-family="Arial" font-size="14.00" fill="#000000">    </text>
<text text-anchor="start" x="716.9536" y="-368.3" font-family="Arial" font-size="14.00" fill="#666666">[BASE TABLE]</text>
<polygon fill="none" stroke="#000000" points="486,-325.5 486,-355.5 817,-355.5 817,-325.5 486,-325.5"/>
<text text-anchor="start" x="493" y="-336.9" font-family="Arial" font-size="14.00" fill="#000000">kegg_reaction_id    </text>
<text text-anchor="start" x="633.7952" y="-336.9" font-family="Arial" font-size="14.00" fill="#666666">[varchar(255)]</text>
<polygon fill="none" stroke="#000000" points="486,-295.5 486,-325.5 817,-325.5 817,-295.5 486,-295.5"/>
<text text-anchor="start" x="493" y="-306.9" font-family="Arial" font-size="14.00" fill="#000000">kegg_pathway_id    </text>
<text text-anchor="start" x="636.1346" y="-306.9" font-family="Arial" font-size="14.00" fill="#666666">[varchar(255)]</text>
</g>
<!-- kegg_reaction_pathway&#45;&gt;kegg_reaction -->
<g id="edge2" class="edge">
<title>kegg_reaction_pathway:kegg_reaction_id&#45;&gt;kegg_reaction:id</title>
<path fill="none" stroke="#000000" d="M475.8647,-338.8938C450.8616,-329.6559 467.5498,-282.6705 486,-253 505.1029,-222.2799 539.8971,-247.7201 559,-217 581.6482,-180.5786 601.8889,-120.5 559,-120.5"/>
<polygon fill="#000000" stroke="#000000" points="476.1233,-338.9347 485.2956,-344.9445 481.0616,-339.7174 486,-340.5 486,-340.5 486,-340.5 481.0616,-339.7174 486.7044,-336.0555 476.1233,-338.9347 476.1233,-338.9347"/>
<text text-anchor="start" x="493.093" y="-324.5" font-family="Arial" font-size="10.00" fill="#000000">FOREIGN KEY (kegg_reaction_id) REFERENCES kegg_reaction (id)</text>
</g>
</g>
</svg>
