<?xml version="1.0" encoding="UTF-8" standalone="no"?>
<!DOCTYPE svg PUBLIC "-//W3C//DTD SVG 1.1//EN"
 "http://www.w3.org/Graphics/SVG/1.1/DTD/svg11.dtd">
<!-- Generated by graphviz version 2.40.1 (20161225.0304)
 -->
<!-- Title: kegg_orthologies Pages: 1 -->
<svg width="1354pt" height="502pt"
 viewBox="0.00 0.00 1354.00 502.00" xmlns="http://www.w3.org/2000/svg" xmlns:xlink="http://www.w3.org/1999/xlink">
<g id="graph0" class="graph" transform="scale(1 1) rotate(0) translate(4 498)">
<title>kegg_orthologies</title>
<polygon fill="#ffffff" stroke="transparent" points="-4,4 -4,-498 1350,-498 1350,4 -4,4"/>
<!-- kegg_orthologies -->
<g id="node1" class="node">
<title>kegg_orthologies</title>
<polygon fill="#efefef" stroke="transparent" points="552,-135.5 552,-170.5 830,-170.5 830,-135.5 552,-135.5"/>
<polygon fill="none" stroke="#000000" points="552,-135.5 552,-170.5 830,-170.5 830,-135.5 552,-135.5"/>
<text text-anchor="start" x="558.6936" y="-148.3" font-family="Arial Bold" font-size="18.00" fill="#000000">kegg_orthologies</text>
<text text-anchor="start" x="695.7384" y="-148.3" font-family="Arial" font-size="14.00" fill="#000000">    </text>
<text text-anchor="start" x="729.9432" y="-148.3" font-family="Arial" font-size="14.00" fill="#666666">[BASE TABLE]</text>
<polygon fill="none" stroke="#000000" points="552,-105.5 552,-135.5 830,-135.5 830,-105.5 552,-105.5"/>
<text text-anchor="start" x="559" y="-116.9" font-family="Arial" font-size="14.00" fill="#000000">id </text>
<text text-anchor="start" x="573.7798" y="-116.9" font-family="Arial" font-size="14.00" fill="#666666">[varchar(255)]</text>
<polygon fill="none" stroke="#000000" points="552,-75.5 552,-105.5 830,-105.5 830,-75.5 552,-75.5"/>
<text text-anchor="start" x="559" y="-86.9" font-family="Arial" font-size="14.00" fill="#000000">name </text>
<text text-anchor="start" x="597.899" y="-86.9" font-family="Arial" font-size="14.00" fill="#666666">[varchar(255)]</text>
<polygon fill="none" stroke="#000000" points="552,-45.5 552,-75.5 830,-75.5 830,-45.5 552,-45.5"/>
<text text-anchor="start" x="559" y="-56.9" font-family="Arial" font-size="14.00" fill="#000000">description </text>
<text text-anchor="start" x="630.568" y="-56.9" font-family="Arial" font-size="14.00" fill="#666666">[text]</text>
<polygon fill="none" stroke="#000000" stroke-width="3" points="550.5,-44.5 550.5,-172.5 831.5,-172.5 831.5,-44.5 550.5,-44.5"/>
</g>
<!-- kegg_orthologies_annotation -->
<g id="node2" class="node">
<title>kegg_orthologies_annotation</title>
<polygon fill="#efefef" stroke="transparent" points="43,-415.5 43,-450.5 415,-450.5 415,-415.5 43,-415.5"/>
<polygon fill="none" stroke="#000000" points="43,-415.5 43,-450.5 415,-450.5 415,-415.5 43,-415.5"/>
<text text-anchor="start" x="49.6695" y="-428.3" font-family="Arial Bold" font-size="18.00" fill="#000000">kegg_orthologies_annotation</text>
<text text-anchor="start" x="280.7625" y="-428.3" font-family="Arial" font-size="14.00" fill="#000000">    </text>
<text text-anchor="start" x="314.9673" y="-428.3" font-family="Arial" font-size="14.00" fill="#666666">[BASE TABLE]</text>
<polygon fill="none" stroke="#000000" points="43,-385.5 43,-415.5 415,-415.5 415,-385.5 43,-385.5"/>
<text text-anchor="start" x="50" y="-396.9" font-family="Arial" font-size="14.00" fill="#000000">kegg_orthology_id    </text>
<text text-anchor="start" x="198.5778" y="-396.9" font-family="Arial" font-size="14.00" fill="#666666">[varchar(255)]</text>
<polygon fill="none" stroke="#000000" points="43,-355.5 43,-385.5 415,-385.5 415,-355.5 43,-355.5"/>
<text text-anchor="start" x="50" y="-366.9" font-family="Arial" font-size="14.00" fill="#000000">transcript_id    </text>
<text text-anchor="start" x="160.4334" y="-366.9" font-family="Arial" font-size="14.00" fill="#666666">[binary(16)]</text>
<polygon fill="none" stroke="#000000" points="43,-325.5 43,-355.5 415,-355.5 415,-325.5 43,-325.5"/>
<text text-anchor="start" x="50" y="-336.9" font-family="Arial" font-size="14.00" fill="#000000">created_at    </text>
<text text-anchor="start" x="150.3422" y="-336.9" font-family="Arial" font-size="14.00" fill="#666666">[datetime]</text>
<polygon fill="none" stroke="#000000" points="43,-295.5 43,-325.5 415,-325.5 415,-295.5 43,-295.5"/>
<text text-anchor="start" x="50" y="-306.9" font-family="Arial" font-size="14.00" fill="#000000">updated_at    </text>
<text text-anchor="start" x="154.2468" y="-306.9" font-family="Arial" font-size="14.00" fill="#666666">[datetime]</text>
</g>
<!-- kegg_orthologies_annotation&#45;&gt;kegg_orthologies -->
<g id="edge1" class="edge">
<title>kegg_orthologies_annotation:kegg_orthology_id&#45;&gt;kegg_orthologies:id</title>
<path fill="none" stroke="#000000" d="M425.0448,-399.8062C479.6623,-391.5926 438.0839,-312.1554 467,-253 497.7255,-190.143 482.0353,-120.5 552,-120.5"/>
<polygon fill="#000000" stroke="#000000" points="424.9762,-399.8109 414.6899,-396.0107 419.9881,-400.1554 415,-400.5 415,-400.5 415,-400.5 419.9881,-400.1554 415.3101,-404.9893 424.9762,-399.8109 424.9762,-399.8109"/>
<text text-anchor="start" x="421.645" y="-410.5" font-family="Arial" font-size="10.00" fill="#000000">FOREIGN KEY (kegg_orthology_id) REFERENCES kegg_orthologies (id)</text>
</g>
<!-- kegg_orthology_pathway -->
<g id="node3" class="node">
<title>kegg_orthology_pathway</title>
<polygon fill="#efefef" stroke="transparent" points="520,-385.5 520,-420.5 861,-420.5 861,-385.5 520,-385.5"/>
<polygon fill="none" stroke="#000000" points="520,-385.5 520,-420.5 861,-420.5 861,-385.5 520,-385.5"/>
<text text-anchor="start" x="526.6801" y="-398.3" font-family="Arial Bold" font-size="18.00" fill="#000000">kegg_orthology_pathway</text>
<text text-anchor="start" x="726.7519" y="-398.3" font-family="Arial" font-size="14.00" fill="#000000">    </text>
<text text-anchor="start" x="760.9567" y="-398.3" font-family="Arial" font-size="14.00" fill="#666666">[BASE TABLE]</text>
<polygon fill="none" stroke="#000000" points="520,-355.5 520,-385.5 861,-385.5 861,-355.5 520,-355.5"/>
<text text-anchor="start" x="527" y="-366.9" font-family="Arial" font-size="14.00" fill="#000000">kegg_orthology_id    </text>
<text text-anchor="start" x="675.5778" y="-366.9" font-family="Arial" font-size="14.00" fill="#666666">[varchar(255)]</text>
<polygon fill="none" stroke="#000000" points="520,-325.5 520,-355.5 861,-355.5 861,-325.5 520,-325.5"/>
<text text-anchor="start" x="527" y="-336.9" font-family="Arial" font-size="14.00" fill="#000000">kegg_pathway_id    </text>
<text text-anchor="start" x="670.1346" y="-336.9" font-family="Arial" font-size="14.00" fill="#666666">[varchar(255)]</text>
</g>
<!-- kegg_orthology_pathway&#45;&gt;kegg_orthologies -->
<g id="edge2" class="edge">
<title>kegg_orthology_pathway:kegg_orthology_id&#45;&gt;kegg_orthologies:id</title>
<path fill="none" stroke="#000000" d="M870.9081,-368.9401C896.9748,-359.5731 883.0701,-310.2819 861,-283 772.6779,-173.8208 640.3221,-326.1792 552,-217 525.0257,-183.6557 509.1111,-120.5 552,-120.5"/>
<polygon fill="#000000" stroke="#000000" points="870.8783,-368.9447 860.3001,-366.0548 865.9392,-369.7224 861,-370.5 861,-370.5 861,-370.5 865.9392,-369.7224 861.6999,-374.9452 870.8783,-368.9447 870.8783,-368.9447"/>
<text text-anchor="start" x="867.645" y="-380.5" font-family="Arial" font-size="10.00" fill="#000000">FOREIGN KEY (kegg_orthology_id) REFERENCES kegg_orthologies (id)</text>
</g>
<!-- kegg_reaction_orthology -->
<g id="node4" class="node">
<title>kegg_reaction_orthology</title>
<polygon fill="#efefef" stroke="transparent" points="965,-385.5 965,-420.5 1303,-420.5 1303,-385.5 965,-385.5"/>
<polygon fill="none" stroke="#000000" points="965,-385.5 965,-420.5 1303,-420.5 1303,-385.5 965,-385.5"/>
<text text-anchor="start" x="971.684" y="-398.3" font-family="Arial Bold" font-size="18.00" fill="#000000">kegg_reaction_orthology</text>
<text text-anchor="start" x="1168.748" y="-398.3" font-family="Arial" font-size="14.00" fill="#000000">    </text>
<text text-anchor="start" x="1202.9528" y="-398.3" font-family="Arial" font-size="14.00" fill="#666666">[BASE TABLE]</text>
<polygon fill="none" stroke="#000000" points="965,-355.5 965,-385.5 1303,-385.5 1303,-355.5 965,-355.5"/>
<text text-anchor="start" x="972" y="-366.9" font-family="Arial" font-size="14.00" fill="#000000">kegg_reaction_id    </text>
<text text-anchor="start" x="1112.7952" y="-366.9" font-family="Arial" font-size="14.00" fill="#666666">[varchar(255)]</text>
<polygon fill="none" stroke="#000000" points="965,-325.5 965,-355.5 1303,-355.5 1303,-325.5 965,-325.5"/>
<text text-anchor="start" x="972" y="-336.9" font-family="Arial" font-size="14.00" fill="#000000">kegg_orthology_id    </text>
<text text-anchor="start" x="1120.5778" y="-336.9" font-family="Arial" font-size="14.00" fill="#666666">[varchar(255)]</text>
</g>
<!-- kegg_reaction_orthology&#45;&gt;kegg_orthologies -->
<g id="edge3" class="edge">
<title>kegg_reaction_orthology:kegg_orthology_id&#45;&gt;kegg_orthologies:id</title>
<path fill="none" stroke="#000000" d="M954.6467,-339.4545C922.3519,-332.1739 934.5396,-288.2972 913,-253 876.8029,-193.6834 899.4888,-120.5 830,-120.5"/>
<polygon fill="#000000" stroke="#000000" points="955.0506,-339.4952 964.5478,-344.9772 960.0253,-339.9976 965,-340.5 965,-340.5 965,-340.5 960.0253,-339.9976 965.4522,-336.0228 955.0506,-339.4952 955.0506,-339.4952"/>
<text text-anchor="start" x="971.645" y="-350.5" font-family="Arial" font-size="10.00" fill="#000000">FOREIGN KEY (kegg_orthology_id) REFERENCES kegg_orthologies (id)</text>
</g>
</g>
</svg>
