<?xml version="1.0" encoding="UTF-8" standalone="no"?>
<!DOCTYPE svg PUBLIC "-//W3C//DTD SVG 1.1//EN"
 "http://www.w3.org/Graphics/SVG/1.1/DTD/svg11.dtd">
<!-- Generated by graphviz version 2.40.1 (20161225.0304)
 -->
<!-- Title: kegg_reaction Pages: 1 -->
<svg width="720pt" height="502pt"
 viewBox="0.00 0.00 720.00 502.00" xmlns="http://www.w3.org/2000/svg" xmlns:xlink="http://www.w3.org/1999/xlink">
<g id="graph0" class="graph" transform="scale(1 1) rotate(0) translate(4 498)">
<title>kegg_reaction</title>
<polygon fill="#ffffff" stroke="transparent" points="-4,4 -4,-498 716,-498 716,4 -4,4"/>
<!-- kegg_reaction -->
<g id="node1" class="node">
<title>kegg_reaction</title>
<polygon fill="#efefef" stroke="transparent" points="90,-135.5 90,-170.5 344,-170.5 344,-135.5 90,-135.5"/>
<polygon fill="none" stroke="#000000" points="90,-135.5 90,-170.5 344,-170.5 344,-135.5 90,-135.5"/>
<text text-anchor="start" x="96.6969" y="-148.3" font-family="Arial Bold" font-size="18.00" fill="#000000">kegg_reaction</text>
<text text-anchor="start" x="209.7351" y="-148.3" font-family="Arial" font-size="14.00" fill="#000000">    </text>
<text text-anchor="start" x="243.9399" y="-148.3" font-family="Arial" font-size="14.00" fill="#666666">[BASE TABLE]</text>
<polygon fill="none" stroke="#000000" points="90,-105.5 90,-135.5 344,-135.5 344,-105.5 90,-105.5"/>
<text text-anchor="start" x="97" y="-116.9" font-family="Arial" font-size="14.00" fill="#000000">id </text>
<text text-anchor="start" x="111.7798" y="-116.9" font-family="Arial" font-size="14.00" fill="#666666">[varchar(255)]</text>
<polygon fill="none" stroke="#000000" points="90,-75.5 90,-105.5 344,-105.5 344,-75.5 90,-75.5"/>
<text text-anchor="start" x="97" y="-86.9" font-family="Arial" font-size="14.00" fill="#000000">name </text>
<text text-anchor="start" x="135.899" y="-86.9" font-family="Arial" font-size="14.00" fill="#666666">[varchar(255)]</text>
<polygon fill="none" stroke="#000000" points="90,-45.5 90,-75.5 344,-75.5 344,-45.5 90,-45.5"/>
<text text-anchor="start" x="97" y="-56.9" font-family="Arial" font-size="14.00" fill="#000000">description </text>
<text text-anchor="start" x="168.568" y="-56.9" font-family="Arial" font-size="14.00" fill="#666666">[text]</text>
<polygon fill="none" stroke="#000000" stroke-width="3" points="88.5,-44.5 88.5,-172.5 345.5,-172.5 345.5,-44.5 88.5,-44.5"/>
</g>
<!-- kegg_reaction_annotation -->
<g id="node2" class="node">
<title>kegg_reaction_annotation</title>
<polygon fill="#efefef" stroke="transparent" points="43,-415.5 43,-450.5 391,-450.5 391,-415.5 43,-415.5"/>
<polygon fill="none" stroke="#000000" points="43,-415.5 43,-450.5 391,-450.5 391,-415.5 43,-415.5"/>
<text text-anchor="start" x="49.6728" y="-428.3" font-family="Arial Bold" font-size="18.00" fill="#000000">kegg_reaction_annotation</text>
<text text-anchor="start" x="256.7592" y="-428.3" font-family="Arial" font-size="14.00" fill="#000000">    </text>
<text text-anchor="start" x="290.964" y="-428.3" font-family="Arial" font-size="14.00" fill="#666666">[BASE TABLE]</text>
<polygon fill="none" stroke="#000000" points="43,-385.5 43,-415.5 391,-415.5 391,-385.5 43,-385.5"/>
<text text-anchor="start" x="50" y="-396.9" font-family="Arial" font-size="14.00" fill="#000000">kegg_reaction_id    </text>
<text text-anchor="start" x="190.7952" y="-396.9" font-family="Arial" font-size="14.00" fill="#666666">[varchar(255)]</text>
<polygon fill="none" stroke="#000000" points="43,-355.5 43,-385.5 391,-385.5 391,-355.5 43,-355.5"/>
<text text-anchor="start" x="50" y="-366.9" font-family="Arial" font-size="14.00" fill="#000000">transcript_id    </text>
<text text-anchor="start" x="160.4334" y="-366.9" font-family="Arial" font-size="14.00" fill="#666666">[binary(16)]</text>
<polygon fill="none" stroke="#000000" points="43,-325.5 43,-355.5 391,-355.5 391,-325.5 43,-325.5"/>
<text text-anchor="start" x="50" y="-336.9" font-family="Arial" font-size="14.00" fill="#000000">created_at    </text>
<text text-anchor="start" x="150.3422" y="-336.9" font-family="Arial" font-size="14.00" fill="#666666">[datetime]</text>
<polygon fill="none" stroke="#000000" points="43,-295.5 43,-325.5 391,-325.5 391,-295.5 43,-295.5"/>
<text text-anchor="start" x="50" y="-306.9" font-family="Arial" font-size="14.00" fill="#000000">updated_at    </text>
<text text-anchor="start" x="154.2468" y="-306.9" font-family="Arial" font-size="14.00" fill="#666666">[datetime]</text>
</g>
<!-- kegg_reaction_annotation&#45;&gt;kegg_reaction -->
<g id="edge1" class="edge">
<title>kegg_reaction_annotation:kegg_reaction_id&#45;&gt;kegg_reaction:id</title>
<path fill="none" stroke="#000000" d="M401.3063,-399.839C514.4598,-384.8652 466.6118,-120.5 344,-120.5"/>
<polygon fill="#000000" stroke="#000000" points="400.9795,-399.8599 390.7119,-396.0092 395.9897,-400.1799 391,-400.5 391,-400.5 391,-400.5 395.9897,-400.1799 391.2881,-404.9908 400.9795,-399.8599 400.9795,-399.8599"/>
<text text-anchor="start" x="398.093" y="-410.5" font-family="Arial" font-size="10.00" fill="#000000">FOREIGN KEY (kegg_reaction_id) REFERENCES kegg_reaction (id)</text>
</g>
</g>
</svg>
