<?xml version="1.0" encoding="UTF-8" standalone="no"?>
<!DOCTYPE svg PUBLIC "-//W3C//DTD SVG 1.1//EN"
 "http://www.w3.org/Graphics/SVG/1.1/DTD/svg11.dtd">
<!-- Generated by graphviz version 2.40.1 (20161225.0304)
 -->
<!-- Title: kegg_orthologies Pages: 1 -->
<svg width="763pt" height="502pt"
 viewBox="0.00 0.00 763.00 502.00" xmlns="http://www.w3.org/2000/svg" xmlns:xlink="http://www.w3.org/1999/xlink">
<g id="graph0" class="graph" transform="scale(1 1) rotate(0) translate(4 498)">
<title>kegg_orthologies</title>
<polygon fill="#ffffff" stroke="transparent" points="-4,4 -4,-498 759,-498 759,4 -4,4"/>
<!-- kegg_orthologies -->
<g id="node1" class="node">
<title>kegg_orthologies</title>
<polygon fill="#efefef" stroke="transparent" points="90,-135.5 90,-170.5 368,-170.5 368,-135.5 90,-135.5"/>
<polygon fill="none" stroke="#000000" points="90,-135.5 90,-170.5 368,-170.5 368,-135.5 90,-135.5"/>
<text text-anchor="start" x="96.6936" y="-148.3" font-family="Arial Bold" font-size="18.00" fill="#000000">kegg_orthologies</text>
<text text-anchor="start" x="233.7384" y="-148.3" font-family="Arial" font-size="14.00" fill="#000000">    </text>
<text text-anchor="start" x="267.9432" y="-148.3" font-family="Arial" font-size="14.00" fill="#666666">[BASE TABLE]</text>
<polygon fill="none" stroke="#000000" points="90,-105.5 90,-135.5 368,-135.5 368,-105.5 90,-105.5"/>
<text text-anchor="start" x="97" y="-116.9" font-family="Arial" font-size="14.00" fill="#000000">id </text>
<text text-anchor="start" x="111.7798" y="-116.9" font-family="Arial" font-size="14.00" fill="#666666">[varchar(255)]</text>
<polygon fill="none" stroke="#000000" points="90,-75.5 90,-105.5 368,-105.5 368,-75.5 90,-75.5"/>
<text text-anchor="start" x="97" y="-86.9" font-family="Arial" font-size="14.00" fill="#000000">name </text>
<text text-anchor="start" x="135.899" y="-86.9" font-family="Arial" font-size="14.00" fill="#666666">[varchar(255)]</text>
<polygon fill="none" stroke="#000000" points="90,-45.5 90,-75.5 368,-75.5 368,-45.5 90,-45.5"/>
<text text-anchor="start" x="97" y="-56.9" font-family="Arial" font-size="14.00" fill="#000000">description </text>
<text text-anchor="start" x="168.568" y="-56.9" font-family="Arial" font-size="14.00" fill="#666666">[text]</text>
<polygon fill="none" stroke="#000000" stroke-width="3" points="88.5,-44.5 88.5,-172.5 369.5,-172.5 369.5,-44.5 88.5,-44.5"/>
</g>
<!-- kegg_orthologies_annotation -->
<g id="node2" class="node">
<title>kegg_orthologies_annotation</title>
<polygon fill="#efefef" stroke="transparent" points="43,-415.5 43,-450.5 415,-450.5 415,-415.5 43,-415.5"/>
<polygon fill="none" stroke="#000000" points="43,-415.5 43,-450.5 415,-450.5 415,-415.5 43,-415.5"/>
<text text-anchor="start" x="49.6695" y="-428.3" font-family="Arial Bold" font-size="18.00" fill="#000000">kegg_orthologies_annotation</text>
<text text-anchor="start" x="280.7625" y="-428.3" font-family="Arial" font-size="14.00" fill="#000000">    </text>
<text text-anchor="start" x="314.9673" y="-428.3" font-family="Arial" font-size="14.00" fill="#666666">[BASE TABLE]</text>
<polygon fill="none" stroke="#000000" points="43,-385.5 43,-415.5 415,-415.5 415,-385.5 43,-385.5"/>
<text text-anchor="start" x="50" y="-396.9" font-family="Arial" font-size="14.00" fill="#000000">kegg_orthology_id    </text>
<text text-anchor="start" x="198.5778" y="-396.9" font-family="Arial" font-size="14.00" fill="#666666">[varchar(255)]</text>
<polygon fill="none" stroke="#000000" points="43,-355.5 43,-385.5 415,-385.5 415,-355.5 43,-355.5"/>
<text text-anchor="start" x="50" y="-366.9" font-family="Arial" font-size="14.00" fill="#000000">transcript_id    </text>
<text text-anchor="start" x="160.4334" y="-366.9" font-family="Arial" font-size="14.00" fill="#666666">[binary(16)]</text>
<polygon fill="none" stroke="#000000" points="43,-325.5 43,-355.5 415,-355.5 415,-325.5 43,-325.5"/>
<text text-anchor="start" x="50" y="-336.9" font-family="Arial" font-size="14.00" fill="#000000">created_at    </text>
<text text-anchor="start" x="150.3422" y="-336.9" font-family="Arial" font-size="14.00" fill="#666666">[datetime]</text>
<polygon fill="none" stroke="#000000" points="43,-295.5 43,-325.5 415,-325.5 415,-295.5 43,-295.5"/>
<text text-anchor="start" x="50" y="-306.9" font-family="Arial" font-size="14.00" fill="#000000">updated_at    </text>
<text text-anchor="start" x="154.2468" y="-306.9" font-family="Arial" font-size="14.00" fill="#666666">[datetime]</text>
</g>
<!-- kegg_orthologies_annotation&#45;&gt;kegg_orthologies -->
<g id="edge1" class="edge">
<title>kegg_orthologies_annotation:kegg_orthology_id&#45;&gt;kegg_orthologies:id</title>
<path fill="none" stroke="#000000" d="M425.3063,-399.839C538.4598,-384.8652 490.6118,-120.5 368,-120.5"/>
<polygon fill="#000000" stroke="#000000" points="424.9795,-399.8599 414.7119,-396.0092 419.9897,-400.1799 415,-400.5 415,-400.5 415,-400.5 419.9897,-400.1799 415.2881,-404.9908 424.9795,-399.8599 424.9795,-399.8599"/>
<text text-anchor="start" x="421.645" y="-410.5" font-family="Arial" font-size="10.00" fill="#000000">FOREIGN KEY (kegg_orthology_id) REFERENCES kegg_orthologies (id)</text>
</g>
</g>
</svg>
