<?xml version="1.0" encoding="UTF-8" standalone="no"?>
<!DOCTYPE svg PUBLIC "-//W3C//DTD SVG 1.1//EN"
 "http://www.w3.org/Graphics/SVG/1.1/DTD/svg11.dtd">
<!-- Generated by graphviz version 2.40.1 (20161225.0304)
 -->
<!-- Title: kegg_orthologies_annotation Pages: 1 -->
<svg width="1003pt" height="652pt"
 viewBox="0.00 0.00 1003.00 652.00" xmlns="http://www.w3.org/2000/svg" xmlns:xlink="http://www.w3.org/1999/xlink">
<g id="graph0" class="graph" transform="scale(1 1) rotate(0) translate(4 648)">
<title>kegg_orthologies_annotation</title>
<polygon fill="#ffffff" stroke="transparent" points="-4,4 -4,-648 999,-648 999,4 -4,4"/>
<!-- kegg_orthologies_annotation -->
<g id="node1" class="node">
<title>kegg_orthologies_annotation</title>
<polygon fill="#efefef" stroke="transparent" points="340,-562.5 340,-597.5 712,-597.5 712,-562.5 340,-562.5"/>
<polygon fill="none" stroke="#000000" points="340,-562.5 340,-597.5 712,-597.5 712,-562.5 340,-562.5"/>
<text text-anchor="start" x="346.6695" y="-575.3" font-family="Arial Bold" font-size="18.00" fill="#000000">kegg_orthologies_annotation</text>
<text text-anchor="start" x="577.7625" y="-575.3" font-family="Arial" font-size="14.00" fill="#000000">    </text>
<text text-anchor="start" x="611.9673" y="-575.3" font-family="Arial" font-size="14.00" fill="#666666">[BASE TABLE]</text>
<polygon fill="none" stroke="#000000" points="340,-532.5 340,-562.5 712,-562.5 712,-532.5 340,-532.5"/>
<text text-anchor="start" x="347" y="-543.9" font-family="Arial" font-size="14.00" fill="#000000">kegg_orthology_id </text>
<text text-anchor="start" x="465.2636" y="-543.9" font-family="Arial" font-size="14.00" fill="#666666">[varchar(255)]</text>
<polygon fill="none" stroke="#000000" points="340,-502.5 340,-532.5 712,-532.5 712,-502.5 340,-502.5"/>
<text text-anchor="start" x="347" y="-513.9" font-family="Arial" font-size="14.00" fill="#000000">transcript_id </text>
<text text-anchor="start" x="427.1192" y="-513.9" font-family="Arial" font-size="14.00" fill="#666666">[binary(16)]</text>
<polygon fill="none" stroke="#000000" points="340,-472.5 340,-502.5 712,-502.5 712,-472.5 340,-472.5"/>
<text text-anchor="start" x="347" y="-483.9" font-family="Arial" font-size="14.00" fill="#000000">created_at </text>
<text text-anchor="start" x="417.028" y="-483.9" font-family="Arial" font-size="14.00" fill="#666666">[datetime]</text>
<polygon fill="none" stroke="#000000" points="340,-442.5 340,-472.5 712,-472.5 712,-442.5 340,-442.5"/>
<text text-anchor="start" x="347" y="-453.9" font-family="Arial" font-size="14.00" fill="#000000">updated_at </text>
<text text-anchor="start" x="420.9326" y="-453.9" font-family="Arial" font-size="14.00" fill="#666666">[datetime]</text>
<polygon fill="none" stroke="#000000" stroke-width="3" points="338.5,-441.5 338.5,-599.5 713.5,-599.5 713.5,-441.5 338.5,-441.5"/>
</g>
<!-- kegg_orthologies -->
<g id="node2" class="node">
<title>kegg_orthologies</title>
<polygon fill="#efefef" stroke="transparent" points="208,-207.5 208,-242.5 486,-242.5 486,-207.5 208,-207.5"/>
<polygon fill="none" stroke="#000000" points="208,-207.5 208,-242.5 486,-242.5 486,-207.5 208,-207.5"/>
<text text-anchor="start" x="214.6936" y="-220.3" font-family="Arial Bold" font-size="18.00" fill="#000000">kegg_orthologies</text>
<text text-anchor="start" x="351.7384" y="-220.3" font-family="Arial" font-size="14.00" fill="#000000">    </text>
<text text-anchor="start" x="385.9432" y="-220.3" font-family="Arial" font-size="14.00" fill="#666666">[BASE TABLE]</text>
<polygon fill="none" stroke="#000000" points="208,-177.5 208,-207.5 486,-207.5 486,-177.5 208,-177.5"/>
<text text-anchor="start" x="215" y="-188.9" font-family="Arial" font-size="14.00" fill="#000000">id    </text>
<text text-anchor="start" x="260.094" y="-188.9" font-family="Arial" font-size="14.00" fill="#666666">[varchar(255)]</text>
<polygon fill="none" stroke="#000000" points="208,-147.5 208,-177.5 486,-177.5 486,-147.5 208,-147.5"/>
<text text-anchor="start" x="215" y="-158.9" font-family="Arial" font-size="14.00" fill="#000000">name    </text>
<text text-anchor="start" x="284.2132" y="-158.9" font-family="Arial" font-size="14.00" fill="#666666">[varchar(255)]</text>
<polygon fill="none" stroke="#000000" points="208,-117.5 208,-147.5 486,-147.5 486,-117.5 208,-117.5"/>
<text text-anchor="start" x="215" y="-128.9" font-family="Arial" font-size="14.00" fill="#000000">description    </text>
<text text-anchor="start" x="316.8822" y="-128.9" font-family="Arial" font-size="14.00" fill="#666666">[text]</text>
</g>
<!-- kegg_orthologies_annotation&#45;&gt;kegg_orthologies -->
<g id="edge1" class="edge">
<title>kegg_orthologies_annotation:kegg_orthology_id&#45;&gt;kegg_orthologies:id</title>
<path fill="none" stroke="#000000" d="M329.9414,-546.7072C277.1544,-537.685 311.9075,-453.6476 340,-397 376.2149,-323.9738 449.7851,-359.0262 486,-286 504.4625,-248.771 527.5556,-192.5 486,-192.5"/>
<polygon fill="#000000" stroke="#000000" points="330.0309,-546.7141 339.6464,-551.9861 335.0155,-547.1071 340,-547.5 340,-547.5 340,-547.5 335.0155,-547.1071 340.3536,-543.0139 330.0309,-546.7141 330.0309,-546.7141"/>
<text text-anchor="start" x="6.645" y="-557.5" font-family="Arial" font-size="10.00" fill="#000000">FOREIGN KEY (kegg_orthology_id) REFERENCES kegg_orthologies (id)</text>
</g>
<!-- transcripts -->
<g id="node3" class="node">
<title>transcripts</title>
<polygon fill="#efefef" stroke="transparent" points="591,-282.5 591,-317.5 818,-317.5 818,-282.5 591,-282.5"/>
<polygon fill="none" stroke="#000000" points="591,-282.5 591,-317.5 818,-317.5 818,-282.5 591,-282.5"/>
<text text-anchor="start" x="599.2152" y="-295.3" font-family="Arial Bold" font-size="18.00" fill="#000000">transcripts</text>
<text text-anchor="start" x="682.2168" y="-295.3" font-family="Arial" font-size="14.00" fill="#000000">    </text>
<text text-anchor="start" x="716.4216" y="-295.3" font-family="Arial" font-size="14.00" fill="#666666">[BASE TABLE]</text>
<polygon fill="none" stroke="#000000" points="591,-252.5 591,-282.5 818,-282.5 818,-252.5 591,-252.5"/>
<text text-anchor="start" x="598" y="-263.9" font-family="Arial" font-size="14.00" fill="#000000">id    </text>
<text text-anchor="start" x="643.094" y="-263.9" font-family="Arial" font-size="14.00" fill="#666666">[binary(16)]</text>
<polygon fill="none" stroke="#000000" points="591,-222.5 591,-252.5 818,-252.5 818,-222.5 591,-222.5"/>
<text text-anchor="start" x="598" y="-233.9" font-family="Arial" font-size="14.00" fill="#000000">transcript_id    </text>
<text text-anchor="start" x="708.4334" y="-233.9" font-family="Arial" font-size="14.00" fill="#666666">[varchar(255)]</text>
<polygon fill="none" stroke="#000000" points="591,-192.5 591,-222.5 818,-222.5 818,-192.5 591,-192.5"/>
<text text-anchor="start" x="598" y="-203.9" font-family="Arial" font-size="14.00" fill="#000000">gene_model_id    </text>
<text text-anchor="start" x="727.9046" y="-203.9" font-family="Arial" font-size="14.00" fill="#666666">[binary(16)]</text>
<polygon fill="none" stroke="#000000" points="591,-162.5 591,-192.5 818,-192.5 818,-162.5 591,-162.5"/>
<text text-anchor="start" x="598" y="-173.9" font-family="Arial" font-size="14.00" fill="#000000">gene_id    </text>
<text text-anchor="start" x="682.007" y="-173.9" font-family="Arial" font-size="14.00" fill="#666666">[binary(16)]</text>
<polygon fill="none" stroke="#000000" points="591,-132.5 591,-162.5 818,-162.5 818,-132.5 591,-132.5"/>
<text text-anchor="start" x="597.9404" y="-143.9" font-family="Arial" font-size="14.00" fill="#000000">transcript_type    </text>
<text text-anchor="start" x="723.9404" y="-143.9" font-family="Arial" font-size="14.00" fill="#666666">[varchar(255)]</text>
<polygon fill="none" stroke="#000000" points="591,-102.5 591,-132.5 818,-132.5 818,-102.5 591,-102.5"/>
<text text-anchor="start" x="598" y="-113.9" font-family="Arial" font-size="14.00" fill="#000000">start    </text>
<text text-anchor="start" x="659.4292" y="-113.9" font-family="Arial" font-size="14.00" fill="#666666">[int]</text>
<polygon fill="none" stroke="#000000" points="591,-72.5 591,-102.5 818,-102.5 818,-72.5 591,-72.5"/>
<text text-anchor="start" x="598" y="-83.9" font-family="Arial" font-size="14.00" fill="#000000">end    </text>
<text text-anchor="start" x="655.5526" y="-83.9" font-family="Arial" font-size="14.00" fill="#666666">[int]</text>
<polygon fill="none" stroke="#000000" points="591,-42.5 591,-72.5 818,-72.5 818,-42.5 591,-42.5"/>
<text text-anchor="start" x="598" y="-53.9" font-family="Arial" font-size="14.00" fill="#000000">strand    </text>
<text text-anchor="start" x="671.1038" y="-53.9" font-family="Arial" font-size="14.00" fill="#666666">[char(1)]</text>
</g>
<!-- kegg_orthologies_annotation&#45;&gt;transcripts -->
<g id="edge2" class="edge">
<title>kegg_orthologies_annotation:transcript_id&#45;&gt;transcripts:id</title>
<path fill="none" stroke="#000000" d="M721.951,-516.4484C762.562,-507.0567 741.8291,-436.9961 712,-397 678.4565,-352.0235 624.5435,-405.9765 591,-361 566.1563,-327.6885 549.4444,-267.5 591,-267.5"/>
<polygon fill="#000000" stroke="#000000" points="721.9446,-516.449 711.527,-513.0249 716.9723,-516.9745 712,-517.5 712,-517.5 712,-517.5 716.9723,-516.9745 712.473,-521.9751 721.9446,-516.449 721.9446,-516.449"/>
<text text-anchor="start" x="719.28" y="-527.5" font-family="Arial" font-size="10.00" fill="#000000">FOREIGN KEY (transcript_id) REFERENCES transcripts (id)</text>
</g>
</g>
</svg>
