<?xml version="1.0" encoding="UTF-8" standalone="no"?>
<!DOCTYPE svg PUBLIC "-//W3C//DTD SVG 1.1//EN"
 "http://www.w3.org/Graphics/SVG/1.1/DTD/svg11.dtd">
<!-- Generated by graphviz version 2.40.1 (20161225.0304)
 -->
<!-- Title: kegg_pathway_relations Pages: 1 -->
<svg width="726pt" height="442pt"
 viewBox="0.00 0.00 725.50 442.00" xmlns="http://www.w3.org/2000/svg" xmlns:xlink="http://www.w3.org/1999/xlink">
<g id="graph0" class="graph" transform="scale(1 1) rotate(0) translate(4 438)">
<title>kegg_pathway_relations</title>
<polygon fill="#ffffff" stroke="transparent" points="-4,4 -4,-438 721.5,-438 721.5,4 -4,4"/>
<!-- kegg_pathway_relations -->
<g id="node1" class="node">
<title>kegg_pathway_relations</title>
<polygon fill="#efefef" stroke="transparent" points="46.5,-352.5 46.5,-387.5 381.5,-387.5 381.5,-352.5 46.5,-352.5"/>
<polygon fill="none" stroke="#000000" points="46.5,-352.5 46.5,-387.5 381.5,-387.5 381.5,-352.5 46.5,-352.5"/>
<text text-anchor="start" x="53.1861" y="-365.3" font-family="Arial Bold" font-size="18.00" fill="#000000">kegg_pathway_relations</text>
<text text-anchor="start" x="247.2459" y="-365.3" font-family="Arial" font-size="14.00" fill="#000000">    </text>
<text text-anchor="start" x="281.4507" y="-365.3" font-family="Arial" font-size="14.00" fill="#666666">[BASE TABLE]</text>
<polygon fill="none" stroke="#000000" points="46.5,-322.5 46.5,-352.5 381.5,-352.5 381.5,-322.5 46.5,-322.5"/>
<text text-anchor="start" x="53.5" y="-333.9" font-family="Arial" font-size="14.00" fill="#000000">parent_pathway_id </text>
<text text-anchor="start" x="175.6542" y="-333.9" font-family="Arial" font-size="14.00" fill="#666666">[varchar(255)]</text>
<polygon fill="none" stroke="#000000" points="46.5,-292.5 46.5,-322.5 381.5,-322.5 381.5,-292.5 46.5,-292.5"/>
<text text-anchor="start" x="53.5" y="-303.9" font-family="Arial" font-size="14.00" fill="#000000">child_pathway_id </text>
<text text-anchor="start" x="164.751" y="-303.9" font-family="Arial" font-size="14.00" fill="#666666">[varchar(255)]</text>
<polygon fill="none" stroke="#000000" stroke-width="3" points="44.5,-291.5 44.5,-389.5 382.5,-389.5 382.5,-291.5 44.5,-291.5"/>
</g>
<!-- kegg_pathways -->
<g id="node2" class="node">
<title>kegg_pathways</title>
<polygon fill="#efefef" stroke="transparent" points="81.5,-132.5 81.5,-167.5 347.5,-167.5 347.5,-132.5 81.5,-132.5"/>
<polygon fill="none" stroke="#000000" points="81.5,-132.5 81.5,-167.5 347.5,-167.5 347.5,-132.5 81.5,-132.5"/>
<text text-anchor="start" x="88.193" y="-145.3" font-family="Arial Bold" font-size="18.00" fill="#000000">kegg_pathways</text>
<text text-anchor="start" x="213.239" y="-145.3" font-family="Arial" font-size="14.00" fill="#000000">    </text>
<text text-anchor="start" x="247.4438" y="-145.3" font-family="Arial" font-size="14.00" fill="#666666">[BASE TABLE]</text>
<polygon fill="none" stroke="#000000" points="81.5,-102.5 81.5,-132.5 347.5,-132.5 347.5,-102.5 81.5,-102.5"/>
<text text-anchor="start" x="88.5" y="-113.9" font-family="Arial" font-size="14.00" fill="#000000">id    </text>
<text text-anchor="start" x="133.594" y="-113.9" font-family="Arial" font-size="14.00" fill="#666666">[varchar(255)]</text>
<polygon fill="none" stroke="#000000" points="81.5,-72.5 81.5,-102.5 347.5,-102.5 347.5,-72.5 81.5,-72.5"/>
<text text-anchor="start" x="88.5" y="-83.9" font-family="Arial" font-size="14.00" fill="#000000">name    </text>
<text text-anchor="start" x="157.7132" y="-83.9" font-family="Arial" font-size="14.00" fill="#666666">[varchar(255)]</text>
<polygon fill="none" stroke="#000000" points="81.5,-42.5 81.5,-72.5 347.5,-72.5 347.5,-42.5 81.5,-42.5"/>
<text text-anchor="start" x="88.5" y="-53.9" font-family="Arial" font-size="14.00" fill="#000000">description    </text>
<text text-anchor="start" x="190.3822" y="-53.9" font-family="Arial" font-size="14.00" fill="#666666">[text]</text>
</g>
<!-- kegg_pathway_relations&#45;&gt;kegg_pathways -->
<g id="edge1" class="edge">
<title>kegg_pathway_relations:parent_pathway_id&#45;&gt;kegg_pathways:id</title>
<path fill="none" stroke="#000000" d="M391.4287,-335.9819C419.0699,-326.4393 405.6909,-274.2673 381.5,-247 292.3789,-146.545 170.6211,-311.455 81.5,-211 53.9218,-179.9145 39.9444,-117.5 81.5,-117.5"/>
<polygon fill="#000000" stroke="#000000" points="391.3851,-335.9884 380.8198,-333.0517 386.4426,-336.7442 381.5,-337.5 381.5,-337.5 381.5,-337.5 386.4426,-336.7442 382.1802,-341.9483 391.3851,-335.9884 391.3851,-335.9884"/>
<text text-anchor="start" x="388.0885" y="-347.5" font-family="Arial" font-size="10.00" fill="#000000">FOREIGN KEY (parent_pathway_id) REFERENCES kegg_pathways (id)</text>
</g>
<!-- kegg_pathway_relations&#45;&gt;kegg_pathways -->
<g id="edge2" class="edge">
<title>kegg_pathway_relations:child_pathway_id&#45;&gt;kegg_pathways:id</title>
<path fill="none" stroke="#000000" d="M213.6971,-282.4806C204.2268,-227.9664 113.5885,-268.2972 81.5,-211 61.1948,-174.7431 39.9444,-117.5 81.5,-117.5"/>
<polygon fill="#000000" stroke="#000000" points="213.7012,-282.532 210.0144,-292.8595 214.1006,-287.516 214.5,-292.5 214.5,-292.5 214.5,-292.5 214.1006,-287.516 218.9856,-292.1405 213.7012,-282.532 213.7012,-282.532"/>
<text text-anchor="start" x="221.9825" y="-302.5" font-family="Arial" font-size="10.00" fill="#000000">FOREIGN KEY (child_pathway_id) REFERENCES kegg_pathways (id)</text>
</g>
</g>
</svg>
