<?xml version="1.0" encoding="UTF-8" standalone="no"?>
<!DOCTYPE svg PUBLIC "-//W3C//DTD SVG 1.1//EN"
 "http://www.w3.org/Graphics/SVG/1.1/DTD/svg11.dtd">
<!-- Generated by graphviz version 2.40.1 (20161225.0304)
 -->
<!-- Title: kegg_reaction_pathway Pages: 1 -->
<svg width="990pt" height="442pt"
 viewBox="0.00 0.00 990.00 442.00" xmlns="http://www.w3.org/2000/svg" xmlns:xlink="http://www.w3.org/1999/xlink">
<g id="graph0" class="graph" transform="scale(1 1) rotate(0) translate(4 438)">
<title>kegg_reaction_pathway</title>
<polygon fill="#ffffff" stroke="transparent" points="-4,4 -4,-438 986,-438 986,4 -4,4"/>
<!-- kegg_reaction_pathway -->
<g id="node1" class="node">
<title>kegg_reaction_pathway</title>
<polygon fill="#efefef" stroke="transparent" points="321,-352.5 321,-387.5 652,-387.5 652,-352.5 321,-352.5"/>
<polygon fill="none" stroke="#000000" points="321,-352.5 321,-387.5 652,-387.5 652,-352.5 321,-352.5"/>
<text text-anchor="start" x="327.6832" y="-365.3" font-family="Arial Bold" font-size="18.00" fill="#000000">kegg_reaction_pathway</text>
<text text-anchor="start" x="517.7488" y="-365.3" font-family="Arial" font-size="14.00" fill="#000000">    </text>
<text text-anchor="start" x="551.9536" y="-365.3" font-family="Arial" font-size="14.00" fill="#666666">[BASE TABLE]</text>
<polygon fill="none" stroke="#000000" points="321,-322.5 321,-352.5 652,-352.5 652,-322.5 321,-322.5"/>
<text text-anchor="start" x="328" y="-333.9" font-family="Arial" font-size="14.00" fill="#000000">kegg_reaction_id </text>
<text text-anchor="start" x="438.481" y="-333.9" font-family="Arial" font-size="14.00" fill="#666666">[varchar(255)]</text>
<polygon fill="none" stroke="#000000" points="321,-292.5 321,-322.5 652,-322.5 652,-292.5 321,-292.5"/>
<text text-anchor="start" x="328" y="-303.9" font-family="Arial" font-size="14.00" fill="#000000">kegg_pathway_id </text>
<text text-anchor="start" x="440.8204" y="-303.9" font-family="Arial" font-size="14.00" fill="#666666">[varchar(255)]</text>
<polygon fill="none" stroke="#000000" stroke-width="3" points="319,-291.5 319,-389.5 653,-389.5 653,-291.5 319,-291.5"/>
</g>
<!-- kegg_reaction -->
<g id="node2" class="node">
<title>kegg_reaction</title>
<polygon fill="#efefef" stroke="transparent" points="178,-132.5 178,-167.5 432,-167.5 432,-132.5 178,-132.5"/>
<polygon fill="none" stroke="#000000" points="178,-132.5 178,-167.5 432,-167.5 432,-132.5 178,-132.5"/>
<text text-anchor="start" x="184.6969" y="-145.3" font-family="Arial Bold" font-size="18.00" fill="#000000">kegg_reaction</text>
<text text-anchor="start" x="297.7351" y="-145.3" font-family="Arial" font-size="14.00" fill="#000000">    </text>
<text text-anchor="start" x="331.9399" y="-145.3" font-family="Arial" font-size="14.00" fill="#666666">[BASE TABLE]</text>
<polygon fill="none" stroke="#000000" points="178,-102.5 178,-132.5 432,-132.5 432,-102.5 178,-102.5"/>
<text text-anchor="start" x="185" y="-113.9" font-family="Arial" font-size="14.00" fill="#000000">id    </text>
<text text-anchor="start" x="230.094" y="-113.9" font-family="Arial" font-size="14.00" fill="#666666">[varchar(255)]</text>
<polygon fill="none" stroke="#000000" points="178,-72.5 178,-102.5 432,-102.5 432,-72.5 178,-72.5"/>
<text text-anchor="start" x="185" y="-83.9" font-family="Arial" font-size="14.00" fill="#000000">name    </text>
<text text-anchor="start" x="254.2132" y="-83.9" font-family="Arial" font-size="14.00" fill="#666666">[varchar(255)]</text>
<polygon fill="none" stroke="#000000" points="178,-42.5 178,-72.5 432,-72.5 432,-42.5 178,-42.5"/>
<text text-anchor="start" x="185" y="-53.9" font-family="Arial" font-size="14.00" fill="#000000">description    </text>
<text text-anchor="start" x="286.8822" y="-53.9" font-family="Arial" font-size="14.00" fill="#666666">[text]</text>
</g>
<!-- kegg_reaction_pathway&#45;&gt;kegg_reaction -->
<g id="edge1" class="edge">
<title>kegg_reaction_pathway:kegg_reaction_id&#45;&gt;kegg_reaction:id</title>
<path fill="none" stroke="#000000" d="M310.7947,-335.9193C284.0819,-326.4211 299.6589,-276.3569 321,-247 351.4956,-205.0501 401.5044,-252.9499 432,-211 456.4348,-177.3874 473.5556,-117.5 432,-117.5"/>
<polygon fill="#000000" stroke="#000000" points="311.1178,-335.9692 320.3111,-341.947 316.0589,-336.7346 321,-337.5 321,-337.5 321,-337.5 316.0589,-336.7346 321.6889,-333.053 311.1178,-335.9692 311.1178,-335.9692"/>
<text text-anchor="start" x="7.093" y="-347.5" font-family="Arial" font-size="10.00" fill="#000000">FOREIGN KEY (kegg_reaction_id) REFERENCES kegg_reaction (id)</text>
</g>
<!-- kegg_pathways -->
<g id="node3" class="node">
<title>kegg_pathways</title>
<polygon fill="#efefef" stroke="transparent" points="536,-132.5 536,-167.5 802,-167.5 802,-132.5 536,-132.5"/>
<polygon fill="none" stroke="#000000" points="536,-132.5 536,-167.5 802,-167.5 802,-132.5 536,-132.5"/>
<text text-anchor="start" x="542.693" y="-145.3" font-family="Arial Bold" font-size="18.00" fill="#000000">kegg_pathways</text>
<text text-anchor="start" x="667.739" y="-145.3" font-family="Arial" font-size="14.00" fill="#000000">    </text>
<text text-anchor="start" x="701.9438" y="-145.3" font-family="Arial" font-size="14.00" fill="#666666">[BASE TABLE]</text>
<polygon fill="none" stroke="#000000" points="536,-102.5 536,-132.5 802,-132.5 802,-102.5 536,-102.5"/>
<text text-anchor="start" x="543" y="-113.9" font-family="Arial" font-size="14.00" fill="#000000">id    </text>
<text text-anchor="start" x="588.094" y="-113.9" font-family="Arial" font-size="14.00" fill="#666666">[varchar(255)]</text>
<polygon fill="none" stroke="#000000" points="536,-72.5 536,-102.5 802,-102.5 802,-72.5 536,-72.5"/>
<text text-anchor="start" x="543" y="-83.9" font-family="Arial" font-size="14.00" fill="#000000">name    </text>
<text text-anchor="start" x="612.2132" y="-83.9" font-family="Arial" font-size="14.00" fill="#666666">[varchar(255)]</text>
<polygon fill="none" stroke="#000000" points="536,-42.5 536,-72.5 802,-72.5 802,-42.5 536,-42.5"/>
<text text-anchor="start" x="543" y="-53.9" font-family="Arial" font-size="14.00" fill="#000000">description    </text>
<text text-anchor="start" x="644.8822" y="-53.9" font-family="Arial" font-size="14.00" fill="#666666">[text]</text>
</g>
<!-- kegg_reaction_pathway&#45;&gt;kegg_pathways -->
<g id="edge2" class="edge">
<title>kegg_reaction_pathway:kegg_pathway_id&#45;&gt;kegg_pathways:id</title>
<path fill="none" stroke="#000000" d="M661.9587,-304.8683C675.3478,-295.7789 665.4566,-265.2659 652,-247 619.9822,-203.5392 568.0178,-254.4608 536,-211 511.3523,-177.5433 494.4444,-117.5 536,-117.5"/>
<polygon fill="#000000" stroke="#000000" points="661.6681,-304.945 650.8502,-303.1494 656.8341,-306.2225 652,-307.5 652,-307.5 652,-307.5 656.8341,-306.2225 653.1498,-311.8506 661.6681,-304.945 661.6681,-304.945"/>
<text text-anchor="start" x="658.922" y="-317.5" font-family="Arial" font-size="10.00" fill="#000000">FOREIGN KEY (kegg_pathway_id) REFERENCES kegg_pathways (id)</text>
</g>
</g>
</svg>
