<?xml version="1.0" encoding="UTF-8" standalone="no"?>
<!DOCTYPE svg PUBLIC "-//W3C//DTD SVG 1.1//EN"
 "http://www.w3.org/Graphics/SVG/1.1/DTD/svg11.dtd">
<!-- Generated by graphviz version 2.40.1 (20161225.0304)
 -->
<!-- Title: kegg_reaction_annotation Pages: 1 -->
<svg width="960pt" height="652pt"
 viewBox="0.00 0.00 960.00 652.00" xmlns="http://www.w3.org/2000/svg" xmlns:xlink="http://www.w3.org/1999/xlink">
<g id="graph0" class="graph" transform="scale(1 1) rotate(0) translate(4 648)">
<title>kegg_reaction_annotation</title>
<polygon fill="#ffffff" stroke="transparent" points="-4,4 -4,-648 956,-648 956,4 -4,4"/>
<!-- kegg_reaction_annotation -->
<g id="node1" class="node">
<title>kegg_reaction_annotation</title>
<polygon fill="#efefef" stroke="transparent" points="321,-562.5 321,-597.5 669,-597.5 669,-562.5 321,-562.5"/>
<polygon fill="none" stroke="#000000" points="321,-562.5 321,-597.5 669,-597.5 669,-562.5 321,-562.5"/>
<text text-anchor="start" x="327.6728" y="-575.3" font-family="Arial Bold" font-size="18.00" fill="#000000">kegg_reaction_annotation</text>
<text text-anchor="start" x="534.7592" y="-575.3" font-family="Arial" font-size="14.00" fill="#000000">    </text>
<text text-anchor="start" x="568.964" y="-575.3" font-family="Arial" font-size="14.00" fill="#666666">[BASE TABLE]</text>
<polygon fill="none" stroke="#000000" points="321,-532.5 321,-562.5 669,-562.5 669,-532.5 321,-532.5"/>
<text text-anchor="start" x="328" y="-543.9" font-family="Arial" font-size="14.00" fill="#000000">kegg_reaction_id </text>
<text text-anchor="start" x="438.481" y="-543.9" font-family="Arial" font-size="14.00" fill="#666666">[varchar(255)]</text>
<polygon fill="none" stroke="#000000" points="321,-502.5 321,-532.5 669,-532.5 669,-502.5 321,-502.5"/>
<text text-anchor="start" x="328" y="-513.9" font-family="Arial" font-size="14.00" fill="#000000">transcript_id </text>
<text text-anchor="start" x="408.1192" y="-513.9" font-family="Arial" font-size="14.00" fill="#666666">[binary(16)]</text>
<polygon fill="none" stroke="#000000" points="321,-472.5 321,-502.5 669,-502.5 669,-472.5 321,-472.5"/>
<text text-anchor="start" x="328" y="-483.9" font-family="Arial" font-size="14.00" fill="#000000">created_at </text>
<text text-anchor="start" x="398.028" y="-483.9" font-family="Arial" font-size="14.00" fill="#666666">[datetime]</text>
<polygon fill="none" stroke="#000000" points="321,-442.5 321,-472.5 669,-472.5 669,-442.5 321,-442.5"/>
<text text-anchor="start" x="328" y="-453.9" font-family="Arial" font-size="14.00" fill="#000000">updated_at </text>
<text text-anchor="start" x="401.9326" y="-453.9" font-family="Arial" font-size="14.00" fill="#666666">[datetime]</text>
<polygon fill="none" stroke="#000000" stroke-width="3" points="319.5,-441.5 319.5,-599.5 670.5,-599.5 670.5,-441.5 319.5,-441.5"/>
</g>
<!-- kegg_reaction -->
<g id="node2" class="node">
<title>kegg_reaction</title>
<polygon fill="#efefef" stroke="transparent" points="195,-207.5 195,-242.5 449,-242.5 449,-207.5 195,-207.5"/>
<polygon fill="none" stroke="#000000" points="195,-207.5 195,-242.5 449,-242.5 449,-207.5 195,-207.5"/>
<text text-anchor="start" x="201.6969" y="-220.3" font-family="Arial Bold" font-size="18.00" fill="#000000">kegg_reaction</text>
<text text-anchor="start" x="314.7351" y="-220.3" font-family="Arial" font-size="14.00" fill="#000000">    </text>
<text text-anchor="start" x="348.9399" y="-220.3" font-family="Arial" font-size="14.00" fill="#666666">[BASE TABLE]</text>
<polygon fill="none" stroke="#000000" points="195,-177.5 195,-207.5 449,-207.5 449,-177.5 195,-177.5"/>
<text text-anchor="start" x="202" y="-188.9" font-family="Arial" font-size="14.00" fill="#000000">id    </text>
<text text-anchor="start" x="247.094" y="-188.9" font-family="Arial" font-size="14.00" fill="#666666">[varchar(255)]</text>
<polygon fill="none" stroke="#000000" points="195,-147.5 195,-177.5 449,-177.5 449,-147.5 195,-147.5"/>
<text text-anchor="start" x="202" y="-158.9" font-family="Arial" font-size="14.00" fill="#000000">name    </text>
<text text-anchor="start" x="271.2132" y="-158.9" font-family="Arial" font-size="14.00" fill="#666666">[varchar(255)]</text>
<polygon fill="none" stroke="#000000" points="195,-117.5 195,-147.5 449,-147.5 449,-117.5 195,-117.5"/>
<text text-anchor="start" x="202" y="-128.9" font-family="Arial" font-size="14.00" fill="#000000">description    </text>
<text text-anchor="start" x="303.8822" y="-128.9" font-family="Arial" font-size="14.00" fill="#666666">[text]</text>
</g>
<!-- kegg_reaction_annotation&#45;&gt;kegg_reaction -->
<g id="edge1" class="edge">
<title>kegg_reaction_annotation:kegg_reaction_id&#45;&gt;kegg_reaction:id</title>
<path fill="none" stroke="#000000" d="M310.9579,-546.715C258.3553,-537.7806 294.7441,-454.522 321,-397 352.2675,-328.4984 417.7325,-354.5016 449,-286 466.2554,-248.1964 490.5556,-192.5 449,-192.5"/>
<polygon fill="#000000" stroke="#000000" points="311.0304,-546.7206 320.6493,-551.9863 316.0152,-547.1103 321,-547.5 321,-547.5 321,-547.5 316.0152,-547.1103 321.3507,-543.0137 311.0304,-546.7206 311.0304,-546.7206"/>
<text text-anchor="start" x="7.093" y="-557.5" font-family="Arial" font-size="10.00" fill="#000000">FOREIGN KEY (kegg_reaction_id) REFERENCES kegg_reaction (id)</text>
</g>
<!-- transcripts -->
<g id="node3" class="node">
<title>transcripts</title>
<polygon fill="#efefef" stroke="transparent" points="554,-282.5 554,-317.5 781,-317.5 781,-282.5 554,-282.5"/>
<polygon fill="none" stroke="#000000" points="554,-282.5 554,-317.5 781,-317.5 781,-282.5 554,-282.5"/>
<text text-anchor="start" x="562.2152" y="-295.3" font-family="Arial Bold" font-size="18.00" fill="#000000">transcripts</text>
<text text-anchor="start" x="645.2168" y="-295.3" font-family="Arial" font-size="14.00" fill="#000000">    </text>
<text text-anchor="start" x="679.4216" y="-295.3" font-family="Arial" font-size="14.00" fill="#666666">[BASE TABLE]</text>
<polygon fill="none" stroke="#000000" points="554,-252.5 554,-282.5 781,-282.5 781,-252.5 554,-252.5"/>
<text text-anchor="start" x="561" y="-263.9" font-family="Arial" font-size="14.00" fill="#000000">id    </text>
<text text-anchor="start" x="606.094" y="-263.9" font-family="Arial" font-size="14.00" fill="#666666">[binary(16)]</text>
<polygon fill="none" stroke="#000000" points="554,-222.5 554,-252.5 781,-252.5 781,-222.5 554,-222.5"/>
<text text-anchor="start" x="561" y="-233.9" font-family="Arial" font-size="14.00" fill="#000000">transcript_id    </text>
<text text-anchor="start" x="671.4334" y="-233.9" font-family="Arial" font-size="14.00" fill="#666666">[varchar(255)]</text>
<polygon fill="none" stroke="#000000" points="554,-192.5 554,-222.5 781,-222.5 781,-192.5 554,-192.5"/>
<text text-anchor="start" x="561" y="-203.9" font-family="Arial" font-size="14.00" fill="#000000">gene_model_id    </text>
<text text-anchor="start" x="690.9046" y="-203.9" font-family="Arial" font-size="14.00" fill="#666666">[binary(16)]</text>
<polygon fill="none" stroke="#000000" points="554,-162.5 554,-192.5 781,-192.5 781,-162.5 554,-162.5"/>
<text text-anchor="start" x="561" y="-173.9" font-family="Arial" font-size="14.00" fill="#000000">gene_id    </text>
<text text-anchor="start" x="645.007" y="-173.9" font-family="Arial" font-size="14.00" fill="#666666">[binary(16)]</text>
<polygon fill="none" stroke="#000000" points="554,-132.5 554,-162.5 781,-162.5 781,-132.5 554,-132.5"/>
<text text-anchor="start" x="560.9404" y="-143.9" font-family="Arial" font-size="14.00" fill="#000000">transcript_type    </text>
<text text-anchor="start" x="686.9404" y="-143.9" font-family="Arial" font-size="14.00" fill="#666666">[varchar(255)]</text>
<polygon fill="none" stroke="#000000" points="554,-102.5 554,-132.5 781,-132.5 781,-102.5 554,-102.5"/>
<text text-anchor="start" x="561" y="-113.9" font-family="Arial" font-size="14.00" fill="#000000">start    </text>
<text text-anchor="start" x="622.4292" y="-113.9" font-family="Arial" font-size="14.00" fill="#666666">[int]</text>
<polygon fill="none" stroke="#000000" points="554,-72.5 554,-102.5 781,-102.5 781,-72.5 554,-72.5"/>
<text text-anchor="start" x="561" y="-83.9" font-family="Arial" font-size="14.00" fill="#000000">end    </text>
<text text-anchor="start" x="618.5526" y="-83.9" font-family="Arial" font-size="14.00" fill="#666666">[int]</text>
<polygon fill="none" stroke="#000000" points="554,-42.5 554,-72.5 781,-72.5 781,-42.5 554,-42.5"/>
<text text-anchor="start" x="561" y="-53.9" font-family="Arial" font-size="14.00" fill="#000000">strand    </text>
<text text-anchor="start" x="634.1038" y="-53.9" font-family="Arial" font-size="14.00" fill="#666666">[char(1)]</text>
</g>
<!-- kegg_reaction_annotation&#45;&gt;transcripts -->
<g id="edge2" class="edge">
<title>kegg_reaction_annotation:transcript_id&#45;&gt;transcripts:id</title>
<path fill="none" stroke="#000000" d="M678.947,-516.4514C719.523,-507.0855 698.5444,-437.2069 669,-397 637.287,-353.8418 585.713,-404.1582 554,-361 529.3934,-327.513 512.4444,-267.5 554,-267.5"/>
<polygon fill="#000000" stroke="#000000" points="678.9449,-516.4515 668.5282,-513.0248 673.9724,-516.9757 669,-517.5 669,-517.5 669,-517.5 673.9724,-516.9757 669.4718,-521.9752 678.9449,-516.4515 678.9449,-516.4515"/>
<text text-anchor="start" x="676.28" y="-527.5" font-family="Arial" font-size="10.00" fill="#000000">FOREIGN KEY (transcript_id) REFERENCES transcripts (id)</text>
</g>
</g>
</svg>
