<?xml version="1.0" encoding="UTF-8" standalone="no"?>
<!DOCTYPE svg PUBLIC "-//W3C//DTD SVG 1.1//EN"
 "http://www.w3.org/Graphics/SVG/1.1/DTD/svg11.dtd">
<!-- Generated by graphviz version 2.40.1 (20161225.0304)
 -->
<!-- Title: kegg_pathways Pages: 1 -->
<svg width="1309pt" height="442pt"
 viewBox="0.00 0.00 1309.00 442.00" xmlns="http://www.w3.org/2000/svg" xmlns:xlink="http://www.w3.org/1999/xlink">
<g id="graph0" class="graph" transform="scale(1 1) rotate(0) translate(4 438)">
<title>kegg_pathways</title>
<polygon fill="#ffffff" stroke="transparent" points="-4,4 -4,-438 1305,-438 1305,4 -4,4"/>
<!-- kegg_pathways -->
<g id="node1" class="node">
<title>kegg_pathways</title>
<polygon fill="#efefef" stroke="transparent" points="523.5,-135.5 523.5,-170.5 789.5,-170.5 789.5,-135.5 523.5,-135.5"/>
<polygon fill="none" stroke="#000000" points="523.5,-135.5 523.5,-170.5 789.5,-170.5 789.5,-135.5 523.5,-135.5"/>
<text text-anchor="start" x="530.193" y="-148.3" font-family="Arial Bold" font-size="18.00" fill="#000000">kegg_pathways</text>
<text text-anchor="start" x="655.239" y="-148.3" font-family="Arial" font-size="14.00" fill="#000000">    </text>
<text text-anchor="start" x="689.4438" y="-148.3" font-family="Arial" font-size="14.00" fill="#666666">[BASE TABLE]</text>
<polygon fill="none" stroke="#000000" points="523.5,-105.5 523.5,-135.5 789.5,-135.5 789.5,-105.5 523.5,-105.5"/>
<text text-anchor="start" x="530.5" y="-116.9" font-family="Arial" font-size="14.00" fill="#000000">id </text>
<text text-anchor="start" x="545.2798" y="-116.9" font-family="Arial" font-size="14.00" fill="#666666">[varchar(255)]</text>
<polygon fill="none" stroke="#000000" points="523.5,-75.5 523.5,-105.5 789.5,-105.5 789.5,-75.5 523.5,-75.5"/>
<text text-anchor="start" x="530.5" y="-86.9" font-family="Arial" font-size="14.00" fill="#000000">name </text>
<text text-anchor="start" x="569.399" y="-86.9" font-family="Arial" font-size="14.00" fill="#666666">[varchar(255)]</text>
<polygon fill="none" stroke="#000000" points="523.5,-45.5 523.5,-75.5 789.5,-75.5 789.5,-45.5 523.5,-45.5"/>
<text text-anchor="start" x="530.5" y="-56.9" font-family="Arial" font-size="14.00" fill="#000000">description </text>
<text text-anchor="start" x="602.068" y="-56.9" font-family="Arial" font-size="14.00" fill="#666666">[text]</text>
<polygon fill="none" stroke="#000000" stroke-width="3" points="522,-44.5 522,-172.5 791,-172.5 791,-44.5 522,-44.5"/>
</g>
<!-- kegg_orthology_pathway -->
<g id="node2" class="node">
<title>kegg_orthology_pathway</title>
<polygon fill="#efefef" stroke="transparent" points="43.5,-355.5 43.5,-390.5 384.5,-390.5 384.5,-355.5 43.5,-355.5"/>
<polygon fill="none" stroke="#000000" points="43.5,-355.5 43.5,-390.5 384.5,-390.5 384.5,-355.5 43.5,-355.5"/>
<text text-anchor="start" x="50.1801" y="-368.3" font-family="Arial Bold" font-size="18.00" fill="#000000">kegg_orthology_pathway</text>
<text text-anchor="start" x="250.2519" y="-368.3" font-family="Arial" font-size="14.00" fill="#000000">    </text>
<text text-anchor="start" x="284.4567" y="-368.3" font-family="Arial" font-size="14.00" fill="#666666">[BASE TABLE]</text>
<polygon fill="none" stroke="#000000" points="43.5,-325.5 43.5,-355.5 384.5,-355.5 384.5,-325.5 43.5,-325.5"/>
<text text-anchor="start" x="50.5" y="-336.9" font-family="Arial" font-size="14.00" fill="#000000">kegg_orthology_id    </text>
<text text-anchor="start" x="199.0778" y="-336.9" font-family="Arial" font-size="14.00" fill="#666666">[varchar(255)]</text>
<polygon fill="none" stroke="#000000" points="43.5,-295.5 43.5,-325.5 384.5,-325.5 384.5,-295.5 43.5,-295.5"/>
<text text-anchor="start" x="50.5" y="-306.9" font-family="Arial" font-size="14.00" fill="#000000">kegg_pathway_id    </text>
<text text-anchor="start" x="193.6346" y="-306.9" font-family="Arial" font-size="14.00" fill="#666666">[varchar(255)]</text>
</g>
<!-- kegg_orthology_pathway&#45;&gt;kegg_pathways -->
<g id="edge1" class="edge">
<title>kegg_orthology_pathway:kegg_pathway_id&#45;&gt;kegg_pathways:id</title>
<path fill="none" stroke="#000000" d="M393.353,-305.8033C426.3789,-276.5449 499.7949,-120.5 523.5,-120.5"/>
<polygon fill="#000000" stroke="#000000" points="393.3338,-305.8134 382.391,-306.5248 388.9169,-308.1567 384.5,-310.5 384.5,-310.5 384.5,-310.5 388.9169,-308.1567 386.609,-314.4752 393.3338,-305.8134 393.3338,-305.8134"/>
<text text-anchor="start" x="391.422" y="-320.5" font-family="Arial" font-size="10.00" fill="#000000">FOREIGN KEY (kegg_pathway_id) REFERENCES kegg_pathways (id)</text>
</g>
<!-- kegg_pathway_relations -->
<g id="node3" class="node">
<title>kegg_pathway_relations</title>
<polygon fill="#efefef" stroke="transparent" points="488.5,-355.5 488.5,-390.5 823.5,-390.5 823.5,-355.5 488.5,-355.5"/>
<polygon fill="none" stroke="#000000" points="488.5,-355.5 488.5,-390.5 823.5,-390.5 823.5,-355.5 488.5,-355.5"/>
<text text-anchor="start" x="495.1861" y="-368.3" font-family="Arial Bold" font-size="18.00" fill="#000000">kegg_pathway_relations</text>
<text text-anchor="start" x="689.2459" y="-368.3" font-family="Arial" font-size="14.00" fill="#000000">    </text>
<text text-anchor="start" x="723.4507" y="-368.3" font-family="Arial" font-size="14.00" fill="#666666">[BASE TABLE]</text>
<polygon fill="none" stroke="#000000" points="488.5,-325.5 488.5,-355.5 823.5,-355.5 823.5,-325.5 488.5,-325.5"/>
<text text-anchor="start" x="495.5" y="-336.9" font-family="Arial" font-size="14.00" fill="#000000">parent_pathway_id    </text>
<text text-anchor="start" x="647.9684" y="-336.9" font-family="Arial" font-size="14.00" fill="#666666">[varchar(255)]</text>
<polygon fill="none" stroke="#000000" points="488.5,-295.5 488.5,-325.5 823.5,-325.5 823.5,-295.5 488.5,-295.5"/>
<text text-anchor="start" x="495.5" y="-306.9" font-family="Arial" font-size="14.00" fill="#000000">child_pathway_id    </text>
<text text-anchor="start" x="637.0652" y="-306.9" font-family="Arial" font-size="14.00" fill="#666666">[varchar(255)]</text>
</g>
<!-- kegg_pathway_relations&#45;&gt;kegg_pathways -->
<g id="edge2" class="edge">
<title>kegg_pathway_relations:parent_pathway_id&#45;&gt;kegg_pathways:id</title>
<path fill="none" stroke="#000000" d="M833.4429,-338.9106C859.7127,-329.3715 846.7881,-279.2498 823.5,-253 734.3789,-152.545 612.6211,-317.455 523.5,-217 495.0369,-184.9171 480.6111,-120.5 523.5,-120.5"/>
<polygon fill="#000000" stroke="#000000" points="833.3746,-338.9214 822.7896,-336.0564 828.4373,-339.7107 823.5,-340.5 823.5,-340.5 823.5,-340.5 828.4373,-339.7107 824.2104,-344.9436 833.3746,-338.9214 833.3746,-338.9214"/>
<text text-anchor="start" x="830.0885" y="-350.5" font-family="Arial" font-size="10.00" fill="#000000">FOREIGN KEY (parent_pathway_id) REFERENCES kegg_pathways (id)</text>
</g>
<!-- kegg_pathway_relations&#45;&gt;kegg_pathways -->
<g id="edge3" class="edge">
<title>kegg_pathway_relations:child_pathway_id&#45;&gt;kegg_pathways:id</title>
<path fill="none" stroke="#000000" d="M655.6389,-285.2638C645.8698,-231.9747 555.6726,-273.3477 523.5,-217 502.2341,-179.7546 480.6111,-120.5 523.5,-120.5"/>
<polygon fill="#000000" stroke="#000000" points="655.6616,-285.5352 652.0158,-295.8773 656.0808,-290.5176 656.5,-295.5 656.5,-295.5 656.5,-295.5 656.0808,-290.5176 660.9842,-295.1227 655.6616,-285.5352 655.6616,-285.5352"/>
<text text-anchor="start" x="499.4825" y="-279.5" font-family="Arial" font-size="10.00" fill="#000000">FOREIGN KEY (child_pathway_id) REFERENCES kegg_pathways (id)</text>
</g>
<!-- kegg_reaction_pathway -->
<g id="node4" class="node">
<title>kegg_reaction_pathway</title>
<polygon fill="#efefef" stroke="transparent" points="927.5,-355.5 927.5,-390.5 1258.5,-390.5 1258.5,-355.5 927.5,-355.5"/>
<polygon fill="none" stroke="#000000" points="927.5,-355.5 927.5,-390.5 1258.5,-390.5 1258.5,-355.5 927.5,-355.5"/>
<text text-anchor="start" x="934.1832" y="-368.3" font-family="Arial Bold" font-size="18.00" fill="#000000">kegg_reaction_pathway</text>
<text text-anchor="start" x="1124.2488" y="-368.3" font-family="Arial" font-size="14.00" fill="#000000">    </text>
<text text-anchor="start" x="1158.4536" y="-368.3" font-family="Arial" font-size="14.00" fill="#666666">[BASE TABLE]</text>
<polygon fill="none" stroke="#000000" points="927.5,-325.5 927.5,-355.5 1258.5,-355.5 1258.5,-325.5 927.5,-325.5"/>
<text text-anchor="start" x="934.5" y="-336.9" font-family="Arial" font-size="14.00" fill="#000000">kegg_reaction_id    </text>
<text text-anchor="start" x="1075.2952" y="-336.9" font-family="Arial" font-size="14.00" fill="#666666">[varchar(255)]</text>
<polygon fill="none" stroke="#000000" points="927.5,-295.5 927.5,-325.5 1258.5,-325.5 1258.5,-295.5 927.5,-295.5"/>
<text text-anchor="start" x="934.5" y="-306.9" font-family="Arial" font-size="14.00" fill="#000000">kegg_pathway_id    </text>
<text text-anchor="start" x="1077.6346" y="-306.9" font-family="Arial" font-size="14.00" fill="#666666">[varchar(255)]</text>
</g>
<!-- kegg_reaction_pathway&#45;&gt;kegg_pathways -->
<g id="edge4" class="edge">
<title>kegg_reaction_pathway:kegg_pathway_id&#45;&gt;kegg_pathways:id</title>
<path fill="none" stroke="#000000" d="M917.631,-308.2338C870.9036,-286.7971 838.3205,-120.5 789.5,-120.5"/>
<polygon fill="#000000" stroke="#000000" points="917.7536,-308.2619 926.4929,-314.8859 922.6268,-309.381 927.5,-310.5 927.5,-310.5 927.5,-310.5 922.6268,-309.381 928.5071,-306.1141 917.7536,-308.2619 917.7536,-308.2619"/>
<text text-anchor="start" x="934.422" y="-320.5" font-family="Arial" font-size="10.00" fill="#000000">FOREIGN KEY (kegg_pathway_id) REFERENCES kegg_pathways (id)</text>
</g>
</g>
</svg>
