<?xml version="1.0" encoding="UTF-8" standalone="no"?>
<!DOCTYPE svg PUBLIC "-//W3C//DTD SVG 1.1//EN"
 "http://www.w3.org/Graphics/SVG/1.1/DTD/svg11.dtd">
<!-- Generated by graphviz version 2.40.1 (20161225.0304)
 -->
<!-- Title: kegg_orthology_pathway Pages: 1 -->
<svg width="1019pt" height="442pt"
 viewBox="0.00 0.00 1019.00 442.00" xmlns="http://www.w3.org/2000/svg" xmlns:xlink="http://www.w3.org/1999/xlink">
<g id="graph0" class="graph" transform="scale(1 1) rotate(0) translate(4 438)">
<title>kegg_orthology_pathway</title>
<polygon fill="#ffffff" stroke="transparent" points="-4,4 -4,-438 1015,-438 1015,4 -4,4"/>
<!-- kegg_orthology_pathway -->
<g id="node1" class="node">
<title>kegg_orthology_pathway</title>
<polygon fill="#efefef" stroke="transparent" points="340,-352.5 340,-387.5 681,-387.5 681,-352.5 340,-352.5"/>
<polygon fill="none" stroke="#000000" points="340,-352.5 340,-387.5 681,-387.5 681,-352.5 340,-352.5"/>
<text text-anchor="start" x="346.6801" y="-365.3" font-family="Arial Bold" font-size="18.00" fill="#000000">kegg_orthology_pathway</text>
<text text-anchor="start" x="546.7519" y="-365.3" font-family="Arial" font-size="14.00" fill="#000000">    </text>
<text text-anchor="start" x="580.9567" y="-365.3" font-family="Arial" font-size="14.00" fill="#666666">[BASE TABLE]</text>
<polygon fill="none" stroke="#000000" points="340,-322.5 340,-352.5 681,-352.5 681,-322.5 340,-322.5"/>
<text text-anchor="start" x="347" y="-333.9" font-family="Arial" font-size="14.00" fill="#000000">kegg_orthology_id </text>
<text text-anchor="start" x="465.2636" y="-333.9" font-family="Arial" font-size="14.00" fill="#666666">[varchar(255)]</text>
<polygon fill="none" stroke="#000000" points="340,-292.5 340,-322.5 681,-322.5 681,-292.5 340,-292.5"/>
<text text-anchor="start" x="347" y="-303.9" font-family="Arial" font-size="14.00" fill="#000000">kegg_pathway_id </text>
<text text-anchor="start" x="459.8204" y="-303.9" font-family="Arial" font-size="14.00" fill="#666666">[varchar(255)]</text>
<polygon fill="none" stroke="#000000" stroke-width="3" points="338,-291.5 338,-389.5 682,-389.5 682,-291.5 338,-291.5"/>
</g>
<!-- kegg_orthologies -->
<g id="node2" class="node">
<title>kegg_orthologies</title>
<polygon fill="#efefef" stroke="transparent" points="184,-132.5 184,-167.5 462,-167.5 462,-132.5 184,-132.5"/>
<polygon fill="none" stroke="#000000" points="184,-132.5 184,-167.5 462,-167.5 462,-132.5 184,-132.5"/>
<text text-anchor="start" x="190.6936" y="-145.3" font-family="Arial Bold" font-size="18.00" fill="#000000">kegg_orthologies</text>
<text text-anchor="start" x="327.7384" y="-145.3" font-family="Arial" font-size="14.00" fill="#000000">    </text>
<text text-anchor="start" x="361.9432" y="-145.3" font-family="Arial" font-size="14.00" fill="#666666">[BASE TABLE]</text>
<polygon fill="none" stroke="#000000" points="184,-102.5 184,-132.5 462,-132.5 462,-102.5 184,-102.5"/>
<text text-anchor="start" x="191" y="-113.9" font-family="Arial" font-size="14.00" fill="#000000">id    </text>
<text text-anchor="start" x="236.094" y="-113.9" font-family="Arial" font-size="14.00" fill="#666666">[varchar(255)]</text>
<polygon fill="none" stroke="#000000" points="184,-72.5 184,-102.5 462,-102.5 462,-72.5 184,-72.5"/>
<text text-anchor="start" x="191" y="-83.9" font-family="Arial" font-size="14.00" fill="#000000">name    </text>
<text text-anchor="start" x="260.2132" y="-83.9" font-family="Arial" font-size="14.00" fill="#666666">[varchar(255)]</text>
<polygon fill="none" stroke="#000000" points="184,-42.5 184,-72.5 462,-72.5 462,-42.5 184,-42.5"/>
<text text-anchor="start" x="191" y="-53.9" font-family="Arial" font-size="14.00" fill="#000000">description    </text>
<text text-anchor="start" x="292.8822" y="-53.9" font-family="Arial" font-size="14.00" fill="#666666">[text]</text>
</g>
<!-- kegg_orthology_pathway&#45;&gt;kegg_orthologies -->
<g id="edge1" class="edge">
<title>kegg_orthology_pathway:kegg_orthology_id&#45;&gt;kegg_orthologies:id</title>
<path fill="none" stroke="#000000" d="M329.7836,-335.911C303.0058,-326.365 318.2691,-276.0696 340,-247 373.849,-201.7198 428.151,-256.2802 462,-211 486.881,-177.7164 503.5556,-117.5 462,-117.5"/>
<polygon fill="#000000" stroke="#000000" points="330.1188,-335.9631 339.3084,-341.9465 335.0594,-336.7315 340,-337.5 340,-337.5 340,-337.5 335.0594,-336.7315 340.6916,-333.0535 330.1188,-335.9631 330.1188,-335.9631"/>
<text text-anchor="start" x="6.645" y="-347.5" font-family="Arial" font-size="10.00" fill="#000000">FOREIGN KEY (kegg_orthology_id) REFERENCES kegg_orthologies (id)</text>
</g>
<!-- kegg_pathways -->
<g id="node3" class="node">
<title>kegg_pathways</title>
<polygon fill="#efefef" stroke="transparent" points="566,-132.5 566,-167.5 832,-167.5 832,-132.5 566,-132.5"/>
<polygon fill="none" stroke="#000000" points="566,-132.5 566,-167.5 832,-167.5 832,-132.5 566,-132.5"/>
<text text-anchor="start" x="572.693" y="-145.3" font-family="Arial Bold" font-size="18.00" fill="#000000">kegg_pathways</text>
<text text-anchor="start" x="697.739" y="-145.3" font-family="Arial" font-size="14.00" fill="#000000">    </text>
<text text-anchor="start" x="731.9438" y="-145.3" font-family="Arial" font-size="14.00" fill="#666666">[BASE TABLE]</text>
<polygon fill="none" stroke="#000000" points="566,-102.5 566,-132.5 832,-132.5 832,-102.5 566,-102.5"/>
<text text-anchor="start" x="573" y="-113.9" font-family="Arial" font-size="14.00" fill="#000000">id    </text>
<text text-anchor="start" x="618.094" y="-113.9" font-family="Arial" font-size="14.00" fill="#666666">[varchar(255)]</text>
<polygon fill="none" stroke="#000000" points="566,-72.5 566,-102.5 832,-102.5 832,-72.5 566,-72.5"/>
<text text-anchor="start" x="573" y="-83.9" font-family="Arial" font-size="14.00" fill="#000000">name    </text>
<text text-anchor="start" x="642.2132" y="-83.9" font-family="Arial" font-size="14.00" fill="#666666">[varchar(255)]</text>
<polygon fill="none" stroke="#000000" points="566,-42.5 566,-72.5 832,-72.5 832,-42.5 566,-42.5"/>
<text text-anchor="start" x="573" y="-53.9" font-family="Arial" font-size="14.00" fill="#000000">description    </text>
<text text-anchor="start" x="674.8822" y="-53.9" font-family="Arial" font-size="14.00" fill="#666666">[text]</text>
</g>
<!-- kegg_orthology_pathway&#45;&gt;kegg_pathways -->
<g id="edge2" class="edge">
<title>kegg_orthology_pathway:kegg_pathway_id&#45;&gt;kegg_pathways:id</title>
<path fill="none" stroke="#000000" d="M690.957,-304.8695C704.3407,-295.7841 694.4341,-265.2824 681,-247 649.287,-203.8418 597.713,-254.1582 566,-211 541.3934,-177.513 524.4444,-117.5 566,-117.5"/>
<polygon fill="#000000" stroke="#000000" points="690.6683,-304.9457 679.8506,-303.1493 685.8341,-306.2228 681,-307.5 681,-307.5 681,-307.5 685.8341,-306.2228 682.1494,-311.8507 690.6683,-304.9457 690.6683,-304.9457"/>
<text text-anchor="start" x="687.922" y="-317.5" font-family="Arial" font-size="10.00" fill="#000000">FOREIGN KEY (kegg_pathway_id) REFERENCES kegg_pathways (id)</text>
</g>
</g>
</svg>
