<?xml version="1.0" encoding="UTF-8" standalone="no"?>
<!DOCTYPE svg PUBLIC "-//W3C//DTD SVG 1.1//EN"
 "http://www.w3.org/Graphics/SVG/1.1/DTD/svg11.dtd">
<!-- Generated by graphviz version 2.40.1 (20161225.0304)
 -->
<!-- Title: kegg_pathways_annotation Pages: 1 -->
<svg width="981pt" height="652pt"
 viewBox="0.00 0.00 981.00 652.00" xmlns="http://www.w3.org/2000/svg" xmlns:xlink="http://www.w3.org/1999/xlink">
<g id="graph0" class="graph" transform="scale(1 1) rotate(0) translate(4 648)">
<title>kegg_pathways_annotation</title>
<polygon fill="#ffffff" stroke="transparent" points="-4,4 -4,-648 977,-648 977,4 -4,4"/>
<!-- kegg_pathways_annotation -->
<g id="node1" class="node">
<title>kegg_pathways_annotation</title>
<polygon fill="#efefef" stroke="transparent" points="330,-562.5 330,-597.5 690,-597.5 690,-562.5 330,-562.5"/>
<polygon fill="none" stroke="#000000" points="330,-562.5 330,-597.5 690,-597.5 690,-562.5 330,-562.5"/>
<text text-anchor="start" x="336.6689" y="-575.3" font-family="Arial Bold" font-size="18.00" fill="#000000">kegg_pathways_annotation</text>
<text text-anchor="start" x="555.7631" y="-575.3" font-family="Arial" font-size="14.00" fill="#000000">    </text>
<text text-anchor="start" x="589.9679" y="-575.3" font-family="Arial" font-size="14.00" fill="#666666">[BASE TABLE]</text>
<polygon fill="none" stroke="#000000" points="330,-532.5 330,-562.5 690,-562.5 690,-532.5 330,-532.5"/>
<text text-anchor="start" x="337" y="-543.9" font-family="Arial" font-size="14.00" fill="#000000">kegg_pathway_id </text>
<text text-anchor="start" x="449.8204" y="-543.9" font-family="Arial" font-size="14.00" fill="#666666">[varchar(255)]</text>
<polygon fill="none" stroke="#000000" points="330,-502.5 330,-532.5 690,-532.5 690,-502.5 330,-502.5"/>
<text text-anchor="start" x="337" y="-513.9" font-family="Arial" font-size="14.00" fill="#000000">transcript_id </text>
<text text-anchor="start" x="417.1192" y="-513.9" font-family="Arial" font-size="14.00" fill="#666666">[binary(16)]</text>
<polygon fill="none" stroke="#000000" points="330,-472.5 330,-502.5 690,-502.5 690,-472.5 330,-472.5"/>
<text text-anchor="start" x="337" y="-483.9" font-family="Arial" font-size="14.00" fill="#000000">created_at </text>
<text text-anchor="start" x="407.028" y="-483.9" font-family="Arial" font-size="14.00" fill="#666666">[datetime]</text>
<polygon fill="none" stroke="#000000" points="330,-442.5 330,-472.5 690,-472.5 690,-442.5 330,-442.5"/>
<text text-anchor="start" x="337" y="-453.9" font-family="Arial" font-size="14.00" fill="#000000">updated_at </text>
<text text-anchor="start" x="410.9326" y="-453.9" font-family="Arial" font-size="14.00" fill="#666666">[datetime]</text>
<polygon fill="none" stroke="#000000" stroke-width="3" points="328.5,-441.5 328.5,-599.5 691.5,-599.5 691.5,-441.5 328.5,-441.5"/>
</g>
<!-- kegg_pathways -->
<g id="node2" class="node">
<title>kegg_pathways</title>
<polygon fill="#efefef" stroke="transparent" points="201,-207.5 201,-242.5 467,-242.5 467,-207.5 201,-207.5"/>
<polygon fill="none" stroke="#000000" points="201,-207.5 201,-242.5 467,-242.5 467,-207.5 201,-207.5"/>
<text text-anchor="start" x="207.693" y="-220.3" font-family="Arial Bold" font-size="18.00" fill="#000000">kegg_pathways</text>
<text text-anchor="start" x="332.739" y="-220.3" font-family="Arial" font-size="14.00" fill="#000000">    </text>
<text text-anchor="start" x="366.9438" y="-220.3" font-family="Arial" font-size="14.00" fill="#666666">[BASE TABLE]</text>
<polygon fill="none" stroke="#000000" points="201,-177.5 201,-207.5 467,-207.5 467,-177.5 201,-177.5"/>
<text text-anchor="start" x="208" y="-188.9" font-family="Arial" font-size="14.00" fill="#000000">id    </text>
<text text-anchor="start" x="253.094" y="-188.9" font-family="Arial" font-size="14.00" fill="#666666">[varchar(255)]</text>
<polygon fill="none" stroke="#000000" points="201,-147.5 201,-177.5 467,-177.5 467,-147.5 201,-147.5"/>
<text text-anchor="start" x="208" y="-158.9" font-family="Arial" font-size="14.00" fill="#000000">name    </text>
<text text-anchor="start" x="277.2132" y="-158.9" font-family="Arial" font-size="14.00" fill="#666666">[varchar(255)]</text>
<polygon fill="none" stroke="#000000" points="201,-117.5 201,-147.5 467,-147.5 467,-117.5 201,-117.5"/>
<text text-anchor="start" x="208" y="-128.9" font-family="Arial" font-size="14.00" fill="#000000">description    </text>
<text text-anchor="start" x="309.8822" y="-128.9" font-family="Arial" font-size="14.00" fill="#666666">[text]</text>
</g>
<!-- kegg_pathways_annotation&#45;&gt;kegg_pathways -->
<g id="edge1" class="edge">
<title>kegg_pathways_annotation:kegg_pathway_id&#45;&gt;kegg_pathways:id</title>
<path fill="none" stroke="#000000" d="M319.9493,-546.711C267.2505,-537.7317 302.7859,-454.0749 330,-397 363.7282,-326.2635 433.2718,-356.7365 467,-286 484.8852,-248.4902 508.5556,-192.5 467,-192.5"/>
<polygon fill="#000000" stroke="#000000" points="320.0307,-546.7173 329.6478,-551.9862 325.0153,-547.1086 330,-547.5 330,-547.5 330,-547.5 325.0153,-547.1086 330.3522,-543.0138 320.0307,-546.7173 320.0307,-546.7173"/>
<text text-anchor="start" x="6.922" y="-557.5" font-family="Arial" font-size="10.00" fill="#000000">FOREIGN KEY (kegg_pathway_id) REFERENCES kegg_pathways (id)</text>
</g>
<!-- transcripts -->
<g id="node3" class="node">
<title>transcripts</title>
<polygon fill="#efefef" stroke="transparent" points="572,-282.5 572,-317.5 799,-317.5 799,-282.5 572,-282.5"/>
<polygon fill="none" stroke="#000000" points="572,-282.5 572,-317.5 799,-317.5 799,-282.5 572,-282.5"/>
<text text-anchor="start" x="580.2152" y="-295.3" font-family="Arial Bold" font-size="18.00" fill="#000000">transcripts</text>
<text text-anchor="start" x="663.2168" y="-295.3" font-family="Arial" font-size="14.00" fill="#000000">    </text>
<text text-anchor="start" x="697.4216" y="-295.3" font-family="Arial" font-size="14.00" fill="#666666">[BASE TABLE]</text>
<polygon fill="none" stroke="#000000" points="572,-252.5 572,-282.5 799,-282.5 799,-252.5 572,-252.5"/>
<text text-anchor="start" x="579" y="-263.9" font-family="Arial" font-size="14.00" fill="#000000">id    </text>
<text text-anchor="start" x="624.094" y="-263.9" font-family="Arial" font-size="14.00" fill="#666666">[binary(16)]</text>
<polygon fill="none" stroke="#000000" points="572,-222.5 572,-252.5 799,-252.5 799,-222.5 572,-222.5"/>
<text text-anchor="start" x="579" y="-233.9" font-family="Arial" font-size="14.00" fill="#000000">transcript_id    </text>
<text text-anchor="start" x="689.4334" y="-233.9" font-family="Arial" font-size="14.00" fill="#666666">[varchar(255)]</text>
<polygon fill="none" stroke="#000000" points="572,-192.5 572,-222.5 799,-222.5 799,-192.5 572,-192.5"/>
<text text-anchor="start" x="579" y="-203.9" font-family="Arial" font-size="14.00" fill="#000000">gene_model_id    </text>
<text text-anchor="start" x="708.9046" y="-203.9" font-family="Arial" font-size="14.00" fill="#666666">[binary(16)]</text>
<polygon fill="none" stroke="#000000" points="572,-162.5 572,-192.5 799,-192.5 799,-162.5 572,-162.5"/>
<text text-anchor="start" x="579" y="-173.9" font-family="Arial" font-size="14.00" fill="#000000">gene_id    </text>
<text text-anchor="start" x="663.007" y="-173.9" font-family="Arial" font-size="14.00" fill="#666666">[binary(16)]</text>
<polygon fill="none" stroke="#000000" points="572,-132.5 572,-162.5 799,-162.5 799,-132.5 572,-132.5"/>
<text text-anchor="start" x="578.9404" y="-143.9" font-family="Arial" font-size="14.00" fill="#000000">transcript_type    </text>
<text text-anchor="start" x="704.9404" y="-143.9" font-family="Arial" font-size="14.00" fill="#666666">[varchar(255)]</text>
<polygon fill="none" stroke="#000000" points="572,-102.5 572,-132.5 799,-132.5 799,-102.5 572,-102.5"/>
<text text-anchor="start" x="579" y="-113.9" font-family="Arial" font-size="14.00" fill="#000000">start    </text>
<text text-anchor="start" x="640.4292" y="-113.9" font-family="Arial" font-size="14.00" fill="#666666">[int]</text>
<polygon fill="none" stroke="#000000" points="572,-72.5 572,-102.5 799,-102.5 799,-72.5 572,-72.5"/>
<text text-anchor="start" x="579" y="-83.9" font-family="Arial" font-size="14.00" fill="#000000">end    </text>
<text text-anchor="start" x="636.5526" y="-83.9" font-family="Arial" font-size="14.00" fill="#666666">[int]</text>
<polygon fill="none" stroke="#000000" points="572,-42.5 572,-72.5 799,-72.5 799,-42.5 572,-42.5"/>
<text text-anchor="start" x="579" y="-53.9" font-family="Arial" font-size="14.00" fill="#000000">strand    </text>
<text text-anchor="start" x="652.1038" y="-53.9" font-family="Arial" font-size="14.00" fill="#666666">[char(1)]</text>
</g>
<!-- kegg_pathways_annotation&#45;&gt;transcripts -->
<g id="edge2" class="edge">
<title>kegg_pathways_annotation:transcript_id&#45;&gt;transcripts:id</title>
<path fill="none" stroke="#000000" d="M699.949,-516.4498C740.543,-507.0708 719.6903,-437.0993 690,-397 657.3724,-352.9335 604.6276,-405.0665 572,-361 547.2719,-327.6026 530.4444,-267.5 572,-267.5"/>
<polygon fill="#000000" stroke="#000000" points="699.9448,-516.4502 689.5276,-513.0249 694.9724,-516.9751 690,-517.5 690,-517.5 690,-517.5 694.9724,-516.9751 690.4724,-521.9751 699.9448,-516.4502 699.9448,-516.4502"/>
<text text-anchor="start" x="697.28" y="-527.5" font-family="Arial" font-size="10.00" fill="#000000">FOREIGN KEY (transcript_id) REFERENCES transcripts (id)</text>
</g>
</g>
</svg>
