<?xml version="1.0" encoding="UTF-8" standalone="no"?>
<!DOCTYPE svg PUBLIC "-//W3C//DTD SVG 1.1//EN"
 "http://www.w3.org/Graphics/SVG/1.1/DTD/svg11.dtd">
<!-- Generated by graphviz version 2.40.1 (20161225.0304)
 -->
<!-- Title: kog_annotations Pages: 1 -->
<svg width="1084pt" height="592pt"
 viewBox="0.00 0.00 1083.50 592.00" xmlns="http://www.w3.org/2000/svg" xmlns:xlink="http://www.w3.org/1999/xlink">
<g id="graph0" class="graph" transform="scale(1 1) rotate(0) translate(4 588)">
<title>kog_annotations</title>
<polygon fill="#ffffff" stroke="transparent" points="-4,4 -4,-588 1079.5,-588 1079.5,4 -4,4"/>
<!-- kog_annotations -->
<g id="node1" class="node">
<title>kog_annotations</title>
<polygon fill="#efefef" stroke="transparent" points="509,-502.5 509,-537.5 782,-537.5 782,-502.5 509,-502.5"/>
<polygon fill="none" stroke="#000000" points="509,-502.5 509,-537.5 782,-537.5 782,-502.5 509,-502.5"/>
<text text-anchor="start" x="515.6857" y="-515.3" font-family="Arial Bold" font-size="18.00" fill="#000000">kog_annotations</text>
<text text-anchor="start" x="647.7463" y="-515.3" font-family="Arial" font-size="14.00" fill="#000000">    </text>
<text text-anchor="start" x="681.9511" y="-515.3" font-family="Arial" font-size="14.00" fill="#666666">[BASE TABLE]</text>
<polygon fill="none" stroke="#000000" points="509,-472.5 509,-502.5 782,-502.5 782,-472.5 509,-472.5"/>
<text text-anchor="start" x="516" y="-483.9" font-family="Arial" font-size="14.00" fill="#000000">kog_id </text>
<text text-anchor="start" x="561.1276" y="-483.9" font-family="Arial" font-size="14.00" fill="#666666">[varchar(255)]</text>
<polygon fill="none" stroke="#000000" points="509,-442.5 509,-472.5 782,-472.5 782,-442.5 509,-442.5"/>
<text text-anchor="start" x="516" y="-453.9" font-family="Arial" font-size="14.00" fill="#000000">transcript_id </text>
<text text-anchor="start" x="596.1192" y="-453.9" font-family="Arial" font-size="14.00" fill="#666666">[binary(16)]</text>
<polygon fill="none" stroke="#000000" stroke-width="3" points="507,-441.5 507,-539.5 783,-539.5 783,-441.5 507,-441.5"/>
</g>
<!-- kogs -->
<g id="node2" class="node">
<title>kogs</title>
<polygon fill="#efefef" stroke="transparent" points="43,-207.5 43,-242.5 701,-242.5 701,-207.5 43,-207.5"/>
<polygon fill="none" stroke="#000000" points="43,-207.5 43,-242.5 701,-242.5 701,-207.5 43,-207.5"/>
<text text-anchor="start" x="289.2098" y="-220.3" font-family="Arial Bold" font-size="18.00" fill="#000000">kogs</text>
<text text-anchor="start" x="327.2222" y="-220.3" font-family="Arial" font-size="14.00" fill="#000000">    </text>
<text text-anchor="start" x="361.427" y="-220.3" font-family="Arial" font-size="14.00" fill="#666666">[BASE TABLE]</text>
<polygon fill="none" stroke="#000000" points="43,-177.5 43,-207.5 701,-207.5 701,-177.5 43,-177.5"/>
<text text-anchor="start" x="50" y="-188.9" font-family="Arial" font-size="14.00" fill="#000000">id    </text>
<text text-anchor="start" x="95.094" y="-188.9" font-family="Arial" font-size="14.00" fill="#666666">[varchar(255)]</text>
<polygon fill="none" stroke="#000000" points="43,-147.5 43,-177.5 701,-177.5 701,-147.5 43,-147.5"/>
<text text-anchor="start" x="49.6878" y="-158.9" font-family="Arial" font-size="14.00" fill="#000000">category    </text>
<text text-anchor="start" x="137.5742" y="-158.9" font-family="Arial" font-size="14.00" fill="#666666">[enum(&#39;A&#39;,&#39;K&#39;,&#39;L&#39;,&#39;B&#39;,&#39;J&#39;,&#39;D&#39;,&#39;Y&#39;,&#39;V&#39;,&#39;T&#39;,&#39;M&#39;,&#39;N&#39;,&#39;Z&#39;,&#39;W&#39;,&#39;U&#39;,&#39;O&#39;,&#39;E&#39;,&#39;F&#39;,&#39;H&#39;,&#39;I&#39;,&#39;G&#39;,&#39;P&#39;,&#39;C&#39;,&#39;Q&#39;,&#39;R&#39;,&#39;S&#39;,&#39;X&#39;)]</text>
<polygon fill="none" stroke="#000000" points="43,-117.5 43,-147.5 701,-147.5 701,-117.5 43,-117.5"/>
<text text-anchor="start" x="50" y="-128.9" font-family="Arial" font-size="14.00" fill="#000000">description    </text>
<text text-anchor="start" x="151.8822" y="-128.9" font-family="Arial" font-size="14.00" fill="#666666">[text]</text>
</g>
<!-- kog_annotations&#45;&gt;kogs -->
<g id="edge1" class="edge">
<title>kog_annotations:kog_id&#45;&gt;kogs:id</title>
<path fill="none" stroke="#000000" d="M498.8864,-485.9788C472.7075,-476.8273 490.862,-428.437 509,-397 558.259,-311.6237 651.741,-371.3763 701,-286 721.7673,-250.0058 742.5556,-192.5 701,-192.5"/>
<polygon fill="#000000" stroke="#000000" points="499.1112,-486.0125 508.3306,-491.9499 504.0556,-486.7563 509,-487.5 509,-487.5 509,-487.5 504.0556,-486.7563 509.6694,-483.0501 499.1112,-486.0125 499.1112,-486.0125"/>
<text text-anchor="start" x="283.274" y="-497.5" font-family="Arial" font-size="10.00" fill="#000000">FOREIGN KEY (kog_id) REFERENCES kogs (id)</text>
</g>
<!-- transcripts -->
<g id="node3" class="node">
<title>transcripts</title>
<polygon fill="#efefef" stroke="transparent" points="806,-282.5 806,-317.5 1033,-317.5 1033,-282.5 806,-282.5"/>
<polygon fill="none" stroke="#000000" points="806,-282.5 806,-317.5 1033,-317.5 1033,-282.5 806,-282.5"/>
<text text-anchor="start" x="814.2152" y="-295.3" font-family="Arial Bold" font-size="18.00" fill="#000000">transcripts</text>
<text text-anchor="start" x="897.2168" y="-295.3" font-family="Arial" font-size="14.00" fill="#000000">    </text>
<text text-anchor="start" x="931.4216" y="-295.3" font-family="Arial" font-size="14.00" fill="#666666">[BASE TABLE]</text>
<polygon fill="none" stroke="#000000" points="806,-252.5 806,-282.5 1033,-282.5 1033,-252.5 806,-252.5"/>
<text text-anchor="start" x="813" y="-263.9" font-family="Arial" font-size="14.00" fill="#000000">id    </text>
<text text-anchor="start" x="858.094" y="-263.9" font-family="Arial" font-size="14.00" fill="#666666">[binary(16)]</text>
<polygon fill="none" stroke="#000000" points="806,-222.5 806,-252.5 1033,-252.5 1033,-222.5 806,-222.5"/>
<text text-anchor="start" x="813" y="-233.9" font-family="Arial" font-size="14.00" fill="#000000">transcript_id    </text>
<text text-anchor="start" x="923.4334" y="-233.9" font-family="Arial" font-size="14.00" fill="#666666">[varchar(255)]</text>
<polygon fill="none" stroke="#000000" points="806,-192.5 806,-222.5 1033,-222.5 1033,-192.5 806,-192.5"/>
<text text-anchor="start" x="813" y="-203.9" font-family="Arial" font-size="14.00" fill="#000000">gene_model_id    </text>
<text text-anchor="start" x="942.9046" y="-203.9" font-family="Arial" font-size="14.00" fill="#666666">[binary(16)]</text>
<polygon fill="none" stroke="#000000" points="806,-162.5 806,-192.5 1033,-192.5 1033,-162.5 806,-162.5"/>
<text text-anchor="start" x="813" y="-173.9" font-family="Arial" font-size="14.00" fill="#000000">gene_id    </text>
<text text-anchor="start" x="897.007" y="-173.9" font-family="Arial" font-size="14.00" fill="#666666">[binary(16)]</text>
<polygon fill="none" stroke="#000000" points="806,-132.5 806,-162.5 1033,-162.5 1033,-132.5 806,-132.5"/>
<text text-anchor="start" x="812.9404" y="-143.9" font-family="Arial" font-size="14.00" fill="#000000">transcript_type    </text>
<text text-anchor="start" x="938.9404" y="-143.9" font-family="Arial" font-size="14.00" fill="#666666">[varchar(255)]</text>
<polygon fill="none" stroke="#000000" points="806,-102.5 806,-132.5 1033,-132.5 1033,-102.5 806,-102.5"/>
<text text-anchor="start" x="813" y="-113.9" font-family="Arial" font-size="14.00" fill="#000000">start    </text>
<text text-anchor="start" x="874.4292" y="-113.9" font-family="Arial" font-size="14.00" fill="#666666">[int]</text>
<polygon fill="none" stroke="#000000" points="806,-72.5 806,-102.5 1033,-102.5 1033,-72.5 806,-72.5"/>
<text text-anchor="start" x="813" y="-83.9" font-family="Arial" font-size="14.00" fill="#000000">end    </text>
<text text-anchor="start" x="870.5526" y="-83.9" font-family="Arial" font-size="14.00" fill="#666666">[int]</text>
<polygon fill="none" stroke="#000000" points="806,-42.5 806,-72.5 1033,-72.5 1033,-42.5 806,-42.5"/>
<text text-anchor="start" x="813" y="-53.9" font-family="Arial" font-size="14.00" fill="#000000">strand    </text>
<text text-anchor="start" x="886.1038" y="-53.9" font-family="Arial" font-size="14.00" fill="#666666">[char(1)]</text>
</g>
<!-- kog_annotations&#45;&gt;transcripts -->
<g id="edge2" class="edge">
<title>kog_annotations:transcript_id&#45;&gt;transcripts:id</title>
<path fill="none" stroke="#000000" d="M792.112,-456.3842C854.4444,-440.8131 724.7081,-267.5 806,-267.5"/>
<polygon fill="#000000" stroke="#000000" points="791.9397,-456.4031 781.5064,-453.0271 786.9698,-456.9516 782,-457.5 782,-457.5 782,-457.5 786.9698,-456.9516 782.4936,-461.9729 791.9397,-456.4031 791.9397,-456.4031"/>
<text text-anchor="start" x="789.28" y="-467.5" font-family="Arial" font-size="10.00" fill="#000000">FOREIGN KEY (transcript_id) REFERENCES transcripts (id)</text>
</g>
</g>
</svg>
