<?xml version="1.0" encoding="UTF-8" standalone="no"?>
<!DOCTYPE svg PUBLIC "-//W3C//DTD SVG 1.1//EN"
 "http://www.w3.org/Graphics/SVG/1.1/DTD/svg11.dtd">
<!-- Generated by graphviz version 2.40.1 (20161225.0304)
 -->
<!-- Title: kogs Pages: 1 -->
<svg width="737pt" height="442pt"
 viewBox="0.00 0.00 737.00 442.00" xmlns="http://www.w3.org/2000/svg" xmlns:xlink="http://www.w3.org/1999/xlink">
<g id="graph0" class="graph" transform="scale(1 1) rotate(0) translate(4 438)">
<title>kogs</title>
<polygon fill="#ffffff" stroke="transparent" points="-4,4 -4,-438 733,-438 733,4 -4,4"/>
<!-- kogs -->
<g id="node1" class="node">
<title>kogs</title>
<polygon fill="#efefef" stroke="transparent" points="46,-135.5 46,-170.5 674,-170.5 674,-135.5 46,-135.5"/>
<polygon fill="none" stroke="#000000" points="46,-135.5 46,-170.5 674,-170.5 674,-135.5 46,-135.5"/>
<text text-anchor="start" x="277.2098" y="-148.3" font-family="Arial Bold" font-size="18.00" fill="#000000">kogs</text>
<text text-anchor="start" x="315.2222" y="-148.3" font-family="Arial" font-size="14.00" fill="#000000">    </text>
<text text-anchor="start" x="349.427" y="-148.3" font-family="Arial" font-size="14.00" fill="#666666">[BASE TABLE]</text>
<polygon fill="none" stroke="#000000" points="46,-105.5 46,-135.5 674,-135.5 674,-105.5 46,-105.5"/>
<text text-anchor="start" x="53" y="-116.9" font-family="Arial" font-size="14.00" fill="#000000">id </text>
<text text-anchor="start" x="67.7798" y="-116.9" font-family="Arial" font-size="14.00" fill="#666666">[varchar(255)]</text>
<polygon fill="none" stroke="#000000" points="46,-75.5 46,-105.5 674,-105.5 674,-75.5 46,-75.5"/>
<text text-anchor="start" x="52.8449" y="-86.9" font-family="Arial" font-size="14.00" fill="#000000">category </text>
<text text-anchor="start" x="110.4171" y="-86.9" font-family="Arial" font-size="14.00" fill="#666666">[enum(&#39;A&#39;,&#39;K&#39;,&#39;L&#39;,&#39;B&#39;,&#39;J&#39;,&#39;D&#39;,&#39;Y&#39;,&#39;V&#39;,&#39;T&#39;,&#39;M&#39;,&#39;N&#39;,&#39;Z&#39;,&#39;W&#39;,&#39;U&#39;,&#39;O&#39;,&#39;E&#39;,&#39;F&#39;,&#39;H&#39;,&#39;I&#39;,&#39;G&#39;,&#39;P&#39;,&#39;C&#39;,&#39;Q&#39;,&#39;R&#39;,&#39;S&#39;,&#39;X&#39;)]</text>
<polygon fill="none" stroke="#000000" points="46,-45.5 46,-75.5 674,-75.5 674,-45.5 46,-45.5"/>
<text text-anchor="start" x="53" y="-56.9" font-family="Arial" font-size="14.00" fill="#000000">description </text>
<text text-anchor="start" x="124.568" y="-56.9" font-family="Arial" font-size="14.00" fill="#666666">[text]</text>
<polygon fill="none" stroke="#000000" stroke-width="3" points="44.5,-44.5 44.5,-172.5 675.5,-172.5 675.5,-44.5 44.5,-44.5"/>
</g>
<!-- kog_annotations -->
<g id="node2" class="node">
<title>kog_annotations</title>
<polygon fill="#efefef" stroke="transparent" points="223,-355.5 223,-390.5 496,-390.5 496,-355.5 223,-355.5"/>
<polygon fill="none" stroke="#000000" points="223,-355.5 223,-390.5 496,-390.5 496,-355.5 223,-355.5"/>
<text text-anchor="start" x="229.6857" y="-368.3" font-family="Arial Bold" font-size="18.00" fill="#000000">kog_annotations</text>
<text text-anchor="start" x="361.7463" y="-368.3" font-family="Arial" font-size="14.00" fill="#000000">    </text>
<text text-anchor="start" x="395.9511" y="-368.3" font-family="Arial" font-size="14.00" fill="#666666">[BASE TABLE]</text>
<polygon fill="none" stroke="#000000" points="223,-325.5 223,-355.5 496,-355.5 496,-325.5 223,-325.5"/>
<text text-anchor="start" x="230" y="-336.9" font-family="Arial" font-size="14.00" fill="#000000">kog_id    </text>
<text text-anchor="start" x="305.4418" y="-336.9" font-family="Arial" font-size="14.00" fill="#666666">[varchar(255)]</text>
<polygon fill="none" stroke="#000000" points="223,-295.5 223,-325.5 496,-325.5 496,-295.5 223,-295.5"/>
<text text-anchor="start" x="230" y="-306.9" font-family="Arial" font-size="14.00" fill="#000000">transcript_id    </text>
<text text-anchor="start" x="340.4334" y="-306.9" font-family="Arial" font-size="14.00" fill="#666666">[binary(16)]</text>
</g>
<!-- kog_annotations&#45;&gt;kogs -->
<g id="edge1" class="edge">
<title>kog_annotations:kog_id&#45;&gt;kogs:id</title>
<path fill="none" stroke="#000000" d="M505.9577,-338.8973C532.3134,-329.2805 519.8033,-278.7836 496,-253 427.9506,-179.2892 114.0494,-290.7108 46,-217 16.9073,-185.4869 3.1111,-120.5 46,-120.5"/>
<polygon fill="#000000" stroke="#000000" points="505.8729,-338.9108 495.2849,-336.0572 500.9365,-339.7054 496,-340.5 496,-340.5 496,-340.5 500.9365,-339.7054 496.7151,-344.9428 505.8729,-338.9108 505.8729,-338.9108"/>
<text text-anchor="start" x="503.274" y="-350.5" font-family="Arial" font-size="10.00" fill="#000000">FOREIGN KEY (kog_id) REFERENCES kogs (id)</text>
</g>
</g>
</svg>
