<?xml version="1.0" encoding="UTF-8" standalone="no"?>
<!DOCTYPE svg PUBLIC "-//W3C//DTD SVG 1.1//EN"
 "http://www.w3.org/Graphics/SVG/1.1/DTD/svg11.dtd">
<!-- Generated by graphviz version 2.40.1 (20161225.0304)
 -->
<!-- Title: nomenclatures Pages: 1 -->
<svg width="829pt" height="652pt"
 viewBox="0.00 0.00 829.00 652.00" xmlns="http://www.w3.org/2000/svg" xmlns:xlink="http://www.w3.org/1999/xlink">
<g id="graph0" class="graph" transform="scale(1 1) rotate(0) translate(4 648)">
<title>nomenclatures</title>
<polygon fill="#ffffff" stroke="transparent" points="-4,4 -4,-648 825,-648 825,4 -4,4"/>
<!-- nomenclatures -->
<g id="node1" class="node">
<title>nomenclatures</title>
<polygon fill="#efefef" stroke="transparent" points="245,-562.5 245,-597.5 558,-597.5 558,-562.5 245,-562.5"/>
<polygon fill="none" stroke="#000000" points="245,-562.5 245,-597.5 558,-597.5 558,-562.5 245,-562.5"/>
<text text-anchor="start" x="278.7039" y="-575.3" font-family="Arial Bold" font-size="18.00" fill="#000000">nomenclatures</text>
<text text-anchor="start" x="396.7281" y="-575.3" font-family="Arial" font-size="14.00" fill="#000000">    </text>
<text text-anchor="start" x="430.9329" y="-575.3" font-family="Arial" font-size="14.00" fill="#666666">[BASE TABLE]</text>
<polygon fill="none" stroke="#000000" points="245,-532.5 245,-562.5 558,-562.5 558,-532.5 245,-532.5"/>
<text text-anchor="start" x="252" y="-543.9" font-family="Arial" font-size="14.00" fill="#000000">id </text>
<text text-anchor="start" x="266.7798" y="-543.9" font-family="Arial" font-size="14.00" fill="#666666">[binary(16)]</text>
<polygon fill="none" stroke="#000000" points="245,-502.5 245,-532.5 558,-532.5 558,-502.5 245,-502.5"/>
<text text-anchor="start" x="252" y="-513.9" font-family="Arial" font-size="14.00" fill="#000000">gene_id </text>
<text text-anchor="start" x="305.6928" y="-513.9" font-family="Arial" font-size="14.00" fill="#666666">[binary(16)]</text>
<polygon fill="none" stroke="#000000" points="245,-472.5 245,-502.5 558,-502.5 558,-472.5 245,-472.5"/>
<text text-anchor="start" x="252" y="-483.9" font-family="Arial" font-size="14.00" fill="#000000">name </text>
<text text-anchor="start" x="290.899" y="-483.9" font-family="Arial" font-size="14.00" fill="#666666">[varchar(255)]</text>
<polygon fill="none" stroke="#000000" points="245,-442.5 245,-472.5 558,-472.5 558,-442.5 245,-442.5"/>
<text text-anchor="start" x="252" y="-453.9" font-family="Arial" font-size="14.00" fill="#000000">doi </text>
<text text-anchor="start" x="274.5624" y="-453.9" font-family="Arial" font-size="14.00" fill="#666666">[varchar(255)]</text>
<polygon fill="none" stroke="#000000" points="245,-412.5 245,-442.5 558,-442.5 558,-412.5 245,-412.5"/>
<text text-anchor="start" x="252" y="-423.9" font-family="Arial" font-size="14.00" fill="#000000">citation </text>
<text text-anchor="start" x="300.2328" y="-423.9" font-family="Arial" font-size="14.00" fill="#666666">[text]</text>
<polygon fill="none" stroke="#000000" points="245,-382.5 245,-412.5 558,-412.5 558,-382.5 245,-382.5"/>
<text text-anchor="start" x="251.8015" y="-393.9" font-family="Arial" font-size="14.00" fill="#000000">status </text>
<text text-anchor="start" x="293.0385" y="-393.9" font-family="Arial" font-size="14.00" fill="#666666">[enum(&#39;obsolate&#39;,&#39;provisional&#39;,&#39;published&#39;)]</text>
<polygon fill="none" stroke="#000000" points="245,-352.5 245,-382.5 558,-382.5 558,-352.5 245,-352.5"/>
<text text-anchor="start" x="252" y="-363.9" font-family="Arial" font-size="14.00" fill="#000000">assigned_by </text>
<text text-anchor="start" x="334.4754" y="-363.9" font-family="Arial" font-size="14.00" fill="#666666">[binary(16)]</text>
<polygon fill="none" stroke="#000000" points="245,-322.5 245,-352.5 558,-352.5 558,-322.5 245,-322.5"/>
<text text-anchor="start" x="252" y="-333.9" font-family="Arial" font-size="14.00" fill="#000000">created_at </text>
<text text-anchor="start" x="322.028" y="-333.9" font-family="Arial" font-size="14.00" fill="#666666">[datetime]</text>
<polygon fill="none" stroke="#000000" points="245,-292.5 245,-322.5 558,-322.5 558,-292.5 245,-292.5"/>
<text text-anchor="start" x="252" y="-303.9" font-family="Arial" font-size="14.00" fill="#000000">updated_at </text>
<text text-anchor="start" x="325.9326" y="-303.9" font-family="Arial" font-size="14.00" fill="#666666">[datetime]</text>
<polygon fill="none" stroke="#000000" stroke-width="3" points="243,-291.5 243,-599.5 559,-599.5 559,-291.5 243,-291.5"/>
</g>
<!-- genes -->
<g id="node2" class="node">
<title>genes</title>
<polygon fill="#efefef" stroke="transparent" points="112,-132.5 112,-167.5 367,-167.5 367,-132.5 112,-132.5"/>
<polygon fill="none" stroke="#000000" points="112,-132.5 112,-167.5 367,-167.5 367,-132.5 112,-132.5"/>
<text text-anchor="start" x="151.2036" y="-145.3" font-family="Arial Bold" font-size="18.00" fill="#000000">genes</text>
<text text-anchor="start" x="200.2284" y="-145.3" font-family="Arial" font-size="14.00" fill="#000000">    </text>
<text text-anchor="start" x="234.4332" y="-145.3" font-family="Arial" font-size="14.00" fill="#666666">[BASE TABLE]</text>
<polygon fill="none" stroke="#000000" points="112,-102.5 112,-132.5 367,-132.5 367,-102.5 112,-102.5"/>
<text text-anchor="start" x="119" y="-113.9" font-family="Arial" font-size="14.00" fill="#000000">id    </text>
<text text-anchor="start" x="164.094" y="-113.9" font-family="Arial" font-size="14.00" fill="#666666">[binary(16)]</text>
<polygon fill="none" stroke="#000000" points="112,-72.5 112,-102.5 367,-102.5 367,-72.5 112,-72.5"/>
<text text-anchor="start" x="119" y="-83.9" font-family="Arial" font-size="14.00" fill="#000000">gene_id    </text>
<text text-anchor="start" x="203.007" y="-83.9" font-family="Arial" font-size="14.00" fill="#666666">[varchar(255)]</text>
<polygon fill="none" stroke="#000000" points="112,-42.5 112,-72.5 367,-72.5 367,-42.5 112,-42.5"/>
<text text-anchor="start" x="118.5386" y="-53.9" font-family="Arial" font-size="14.00" fill="#000000">annotation_version_id    </text>
<text text-anchor="start" x="289.6788" y="-53.9" font-family="Arial" font-size="14.00" fill="#666666">[binary(16)]</text>
</g>
<!-- nomenclatures&#45;&gt;genes -->
<g id="edge1" class="edge">
<title>nomenclatures:gene_id&#45;&gt;genes:id</title>
<path fill="none" stroke="#000000" d="M234.8637,-517.0578C127.6247,-507.3593 175.1268,-340.47 245,-247 278.849,-201.7198 333.151,-256.2802 367,-211 391.881,-177.7164 408.5556,-117.5 367,-117.5"/>
<polygon fill="#000000" stroke="#000000" points="235.0095,-517.064 244.8038,-521.9957 240.0048,-517.282 245,-517.5 245,-517.5 245,-517.5 240.0048,-517.282 245.1962,-513.0043 235.0095,-517.064 235.0095,-517.064"/>
<text text-anchor="start" x="7.156" y="-527.5" font-family="Arial" font-size="10.00" fill="#000000">FOREIGN KEY (gene_id) REFERENCES genes (id)</text>
</g>
<!-- users -->
<g id="node3" class="node">
<title>users</title>
<polygon fill="#efefef" stroke="transparent" points="471,-132.5 471,-167.5 656,-167.5 656,-132.5 471,-132.5"/>
<polygon fill="none" stroke="#000000" points="471,-132.5 471,-167.5 656,-167.5 656,-132.5 471,-132.5"/>
<text text-anchor="start" x="477.7137" y="-145.3" font-family="Arial Bold" font-size="18.00" fill="#000000">users</text>
<text text-anchor="start" x="521.7183" y="-145.3" font-family="Arial" font-size="14.00" fill="#000000">    </text>
<text text-anchor="start" x="555.9231" y="-145.3" font-family="Arial" font-size="14.00" fill="#666666">[BASE TABLE]</text>
<polygon fill="none" stroke="#000000" points="471,-102.5 471,-132.5 656,-132.5 656,-102.5 471,-102.5"/>
<text text-anchor="start" x="478" y="-113.9" font-family="Arial" font-size="14.00" fill="#000000">id    </text>
<text text-anchor="start" x="523.094" y="-113.9" font-family="Arial" font-size="14.00" fill="#666666">[binary(16)]</text>
<polygon fill="none" stroke="#000000" points="471,-72.5 471,-102.5 656,-102.5 656,-72.5 471,-72.5"/>
<text text-anchor="start" x="478" y="-83.9" font-family="Arial" font-size="14.00" fill="#000000">orc_id    </text>
<text text-anchor="start" x="550.3198" y="-83.9" font-family="Arial" font-size="14.00" fill="#666666">[varchar(255)]</text>
<polygon fill="none" stroke="#000000" points="471,-42.5 471,-72.5 656,-72.5 656,-42.5 471,-42.5"/>
<text text-anchor="start" x="478" y="-53.9" font-family="Arial" font-size="14.00" fill="#000000">email    </text>
<text text-anchor="start" x="545.6438" y="-53.9" font-family="Arial" font-size="14.00" fill="#666666">[varchar(255)]</text>
</g>
<!-- nomenclatures&#45;&gt;users -->
<g id="edge2" class="edge">
<title>nomenclatures:assigned_by&#45;&gt;users:id</title>
<path fill="none" stroke="#000000" d="M568.1745,-366.4105C608.1801,-356.9714 585.6692,-288.3938 558,-247 534.7452,-212.2103 494.2548,-245.7897 471,-211 447.9068,-176.452 429.4444,-117.5 471,-117.5"/>
<polygon fill="#000000" stroke="#000000" points="567.9432,-366.4352 557.5208,-363.0256 562.9716,-366.9676 558,-367.5 558,-367.5 558,-367.5 562.9716,-366.9676 558.4792,-371.9744 567.9432,-366.4352 567.9432,-366.4352"/>
<text text-anchor="start" x="565.271" y="-377.5" font-family="Arial" font-size="10.00" fill="#000000">FOREIGN KEY (assigned_by) REFERENCES users (id)</text>
</g>
</g>
</svg>
