<?xml version="1.0" encoding="UTF-8" standalone="no"?>
<!DOCTYPE svg PUBLIC "-//W3C//DTD SVG 1.1//EN"
 "http://www.w3.org/Graphics/SVG/1.1/DTD/svg11.dtd">
<!-- Generated by graphviz version 2.40.1 (20161225.0304)
 -->
<!-- Title: organisms Pages: 1 -->
<svg width="669pt" height="592pt"
 viewBox="0.00 0.00 668.50 592.00" xmlns="http://www.w3.org/2000/svg" xmlns:xlink="http://www.w3.org/1999/xlink">
<g id="graph0" class="graph" transform="scale(1 1) rotate(0) translate(4 588)">
<title>organisms</title>
<polygon fill="#ffffff" stroke="transparent" points="-4,4 -4,-588 664.5,-588 664.5,4 -4,4"/>
<!-- organisms -->
<g id="node1" class="node">
<title>organisms</title>
<polygon fill="#efefef" stroke="transparent" points="73.5,-135.5 73.5,-170.5 297.5,-170.5 297.5,-135.5 73.5,-135.5"/>
<polygon fill="none" stroke="#000000" points="73.5,-135.5 73.5,-170.5 297.5,-170.5 297.5,-135.5 73.5,-135.5"/>
<text text-anchor="start" x="80.2143" y="-148.3" font-family="Arial Bold" font-size="18.00" fill="#000000">organisms</text>
<text text-anchor="start" x="163.2177" y="-148.3" font-family="Arial" font-size="14.00" fill="#000000">    </text>
<text text-anchor="start" x="197.4225" y="-148.3" font-family="Arial" font-size="14.00" fill="#666666">[BASE TABLE]</text>
<polygon fill="none" stroke="#000000" points="73.5,-105.5 73.5,-135.5 297.5,-135.5 297.5,-105.5 73.5,-105.5"/>
<text text-anchor="start" x="80.5" y="-116.9" font-family="Arial" font-size="14.00" fill="#000000">taxonomy_id </text>
<text text-anchor="start" x="163.744" y="-116.9" font-family="Arial" font-size="14.00" fill="#666666">[int unsigned]</text>
<polygon fill="none" stroke="#000000" points="73.5,-75.5 73.5,-105.5 297.5,-105.5 297.5,-75.5 73.5,-75.5"/>
<text text-anchor="start" x="80.5" y="-86.9" font-family="Arial" font-size="14.00" fill="#000000">name </text>
<text text-anchor="start" x="119.399" y="-86.9" font-family="Arial" font-size="14.00" fill="#666666">[varchar(255)]</text>
<polygon fill="none" stroke="#000000" points="73.5,-45.5 73.5,-75.5 297.5,-75.5 297.5,-45.5 73.5,-45.5"/>
<text text-anchor="start" x="80.5" y="-56.9" font-family="Arial" font-size="14.00" fill="#000000">codon_code </text>
<text text-anchor="start" x="160.6514" y="-56.9" font-family="Arial" font-size="14.00" fill="#666666">[int unsigned]</text>
<polygon fill="none" stroke="#000000" stroke-width="3" points="72,-44.5 72,-172.5 299,-172.5 299,-44.5 72,-44.5"/>
</g>
<!-- genome_versions -->
<g id="node2" class="node">
<title>genome_versions</title>
<polygon fill="#efefef" stroke="transparent" points="43.5,-505.5 43.5,-540.5 326.5,-540.5 326.5,-505.5 43.5,-505.5"/>
<polygon fill="none" stroke="#000000" points="43.5,-505.5 43.5,-540.5 326.5,-540.5 326.5,-505.5 43.5,-505.5"/>
<text text-anchor="start" x="50.1988" y="-518.3" font-family="Arial Bold" font-size="18.00" fill="#000000">genome_versions</text>
<text text-anchor="start" x="192.2332" y="-518.3" font-family="Arial" font-size="14.00" fill="#000000">    </text>
<text text-anchor="start" x="226.438" y="-518.3" font-family="Arial" font-size="14.00" fill="#666666">[BASE TABLE]</text>
<polygon fill="none" stroke="#000000" points="43.5,-475.5 43.5,-505.5 326.5,-505.5 326.5,-475.5 43.5,-475.5"/>
<text text-anchor="start" x="50.5" y="-486.9" font-family="Arial" font-size="14.00" fill="#000000">id    </text>
<text text-anchor="start" x="95.594" y="-486.9" font-family="Arial" font-size="14.00" fill="#666666">[binary(16)]</text>
<polygon fill="none" stroke="#000000" points="43.5,-445.5 43.5,-475.5 326.5,-475.5 326.5,-445.5 43.5,-445.5"/>
<text text-anchor="start" x="50.5" y="-456.9" font-family="Arial" font-size="14.00" fill="#000000">taxonomy_id    </text>
<text text-anchor="start" x="164.0582" y="-456.9" font-family="Arial" font-size="14.00" fill="#666666">[int unsigned]</text>
<polygon fill="none" stroke="#000000" points="43.5,-415.5 43.5,-445.5 326.5,-445.5 326.5,-415.5 43.5,-415.5"/>
<text text-anchor="start" x="50.5" y="-426.9" font-family="Arial" font-size="14.00" fill="#000000">major_version    </text>
<text text-anchor="start" x="172.5954" y="-426.9" font-family="Arial" font-size="14.00" fill="#666666">[int]</text>
<polygon fill="none" stroke="#000000" points="43.5,-385.5 43.5,-415.5 326.5,-415.5 326.5,-385.5 43.5,-385.5"/>
<text text-anchor="start" x="50.5" y="-396.9" font-family="Arial" font-size="14.00" fill="#000000">minor_version    </text>
<text text-anchor="start" x="172.5954" y="-396.9" font-family="Arial" font-size="14.00" fill="#666666">[int]</text>
<polygon fill="none" stroke="#000000" points="43.5,-355.5 43.5,-385.5 326.5,-385.5 326.5,-355.5 43.5,-355.5"/>
<text text-anchor="start" x="50.5" y="-366.9" font-family="Arial" font-size="14.00" fill="#000000">patch_version    </text>
<text text-anchor="start" x="171.8408" y="-366.9" font-family="Arial" font-size="14.00" fill="#666666">[int]</text>
<polygon fill="none" stroke="#000000" points="43.5,-325.5 43.5,-355.5 326.5,-355.5 326.5,-325.5 43.5,-325.5"/>
<text text-anchor="start" x="50.5" y="-336.9" font-family="Arial" font-size="14.00" fill="#000000">fasta_uri    </text>
<text text-anchor="start" x="138.3836" y="-336.9" font-family="Arial" font-size="14.00" fill="#666666">[varchar(255)]</text>
<polygon fill="none" stroke="#000000" points="43.5,-295.5 43.5,-325.5 326.5,-325.5 326.5,-295.5 43.5,-295.5"/>
<text text-anchor="start" x="50.5" y="-306.9" font-family="Arial" font-size="14.00" fill="#000000">fasta_index_uri    </text>
<text text-anchor="start" x="179.6206" y="-306.9" font-family="Arial" font-size="14.00" fill="#666666">[varchar(255)]</text>
</g>
<!-- genome_versions&#45;&gt;organisms -->
<g id="edge1" class="edge">
<title>genome_versions:taxonomy_id&#45;&gt;organisms:taxonomy_id</title>
<path fill="none" stroke="#000000" d="M336.7453,-459.8813C416.1958,-449.8348 384.5824,-319.9321 326.5,-253 252.0604,-167.2183 147.9396,-302.7817 73.5,-217 45.3902,-184.6072 30.6111,-120.5 73.5,-120.5"/>
<polygon fill="#000000" stroke="#000000" points="336.4818,-459.8971 326.2287,-456.0082 331.4909,-460.1985 326.5,-460.5 326.5,-460.5 326.5,-460.5 331.4909,-460.1985 326.7713,-464.9918 336.4818,-459.8971 336.4818,-459.8971"/>
<text text-anchor="start" x="333.212" y="-470.5" font-family="Arial" font-size="10.00" fill="#000000">FOREIGN KEY (taxonomy_id) REFERENCES organisms (taxonomy_id)</text>
</g>
</g>
</svg>
