<?xml version="1.0" encoding="UTF-8" standalone="no"?>
<!DOCTYPE svg PUBLIC "-//W3C//DTD SVG 1.1//EN"
 "http://www.w3.org/Graphics/SVG/1.1/DTD/svg11.dtd">
<!-- Generated by graphviz version 2.40.1 (20161225.0304)
 -->
<!-- Title: organisms Pages: 1 -->
<svg width="827pt" height="532pt"
 viewBox="0.00 0.00 827.00 532.00" xmlns="http://www.w3.org/2000/svg" xmlns:xlink="http://www.w3.org/1999/xlink">
<g id="graph0" class="graph" transform="scale(1 1) rotate(0) translate(4 528)">
<title>organisms</title>
<polygon fill="#ffffff" stroke="transparent" points="-4,4 -4,-528 823,-528 823,4 -4,4"/>
<!-- organisms -->
<g id="node1" class="node">
<title>organisms</title>
<polygon fill="#efefef" stroke="transparent" points="281,-135.5 281,-170.5 505,-170.5 505,-135.5 281,-135.5"/>
<polygon fill="none" stroke="#000000" points="281,-135.5 281,-170.5 505,-170.5 505,-135.5 281,-135.5"/>
<text text-anchor="start" x="287.7143" y="-148.3" font-family="Arial Bold" font-size="18.00" fill="#000000">organisms</text>
<text text-anchor="start" x="370.7177" y="-148.3" font-family="Arial" font-size="14.00" fill="#000000">    </text>
<text text-anchor="start" x="404.9225" y="-148.3" font-family="Arial" font-size="14.00" fill="#666666">[BASE TABLE]</text>
<polygon fill="none" stroke="#000000" points="281,-105.5 281,-135.5 505,-135.5 505,-105.5 281,-105.5"/>
<text text-anchor="start" x="288" y="-116.9" font-family="Arial" font-size="14.00" fill="#000000">taxonomy_id </text>
<text text-anchor="start" x="371.244" y="-116.9" font-family="Arial" font-size="14.00" fill="#666666">[int unsigned]</text>
<polygon fill="none" stroke="#000000" points="281,-75.5 281,-105.5 505,-105.5 505,-75.5 281,-75.5"/>
<text text-anchor="start" x="288" y="-86.9" font-family="Arial" font-size="14.00" fill="#000000">name </text>
<text text-anchor="start" x="326.899" y="-86.9" font-family="Arial" font-size="14.00" fill="#666666">[varchar(255)]</text>
<polygon fill="none" stroke="#000000" points="281,-45.5 281,-75.5 505,-75.5 505,-45.5 281,-45.5"/>
<text text-anchor="start" x="288" y="-56.9" font-family="Arial" font-size="14.00" fill="#000000">codon_code </text>
<text text-anchor="start" x="368.1514" y="-56.9" font-family="Arial" font-size="14.00" fill="#666666">[int unsigned]</text>
<polygon fill="none" stroke="#000000" stroke-width="3" points="279.5,-44.5 279.5,-172.5 506.5,-172.5 506.5,-44.5 279.5,-44.5"/>
</g>
<!-- gene_models -->
<g id="node2" class="node">
<title>gene_models</title>
<polygon fill="#efefef" stroke="transparent" points="85,-430.5 85,-465.5 334,-465.5 334,-430.5 85,-430.5"/>
<polygon fill="none" stroke="#000000" points="85,-430.5 85,-465.5 334,-465.5 334,-430.5 85,-430.5"/>
<text text-anchor="start" x="91.698" y="-443.3" font-family="Arial Bold" font-size="18.00" fill="#000000">gene_models</text>
<text text-anchor="start" x="199.734" y="-443.3" font-family="Arial" font-size="14.00" fill="#000000">    </text>
<text text-anchor="start" x="233.9388" y="-443.3" font-family="Arial" font-size="14.00" fill="#666666">[BASE TABLE]</text>
<polygon fill="none" stroke="#000000" points="85,-400.5 85,-430.5 334,-430.5 334,-400.5 85,-400.5"/>
<text text-anchor="start" x="92" y="-411.9" font-family="Arial" font-size="14.00" fill="#000000">id    </text>
<text text-anchor="start" x="137.094" y="-411.9" font-family="Arial" font-size="14.00" fill="#666666">[binary(16)]</text>
<polygon fill="none" stroke="#000000" points="85,-370.5 85,-400.5 334,-400.5 334,-370.5 85,-370.5"/>
<text text-anchor="start" x="92" y="-381.9" font-family="Arial" font-size="14.00" fill="#000000">taxonomy_id    </text>
<text text-anchor="start" x="205.5582" y="-381.9" font-family="Arial" font-size="14.00" fill="#666666">[int unsigned]</text>
<polygon fill="none" stroke="#000000" points="85,-340.5 85,-370.5 334,-370.5 334,-340.5 85,-340.5"/>
<text text-anchor="start" x="92" y="-351.9" font-family="Arial" font-size="14.00" fill="#000000">genome_id    </text>
<text text-anchor="start" x="195.4502" y="-351.9" font-family="Arial" font-size="14.00" fill="#666666">[binary(16)]</text>
<polygon fill="none" stroke="#000000" points="85,-310.5 85,-340.5 334,-340.5 334,-310.5 85,-310.5"/>
<text text-anchor="start" x="92" y="-321.9" font-family="Arial" font-size="14.00" fill="#000000">annotation_model_id    </text>
<text text-anchor="start" x="256.1402" y="-321.9" font-family="Arial" font-size="14.00" fill="#666666">[binary(16)]</text>
</g>
<!-- gene_models&#45;&gt;organisms -->
<g id="edge1" class="edge">
<title>gene_models:taxonomy_id&#45;&gt;organisms:taxonomy_id</title>
<path fill="none" stroke="#000000" d="M344.2785,-384.3895C381.5681,-375.3093 352.9299,-312.4863 334,-268 321.2003,-237.92 293.7997,-247.08 281,-217 264.2069,-177.5355 238.1111,-120.5 281,-120.5"/>
<polygon fill="#000000" stroke="#000000" points="343.9421,-384.4258 333.5166,-381.026 338.9711,-384.9629 334,-385.5 334,-385.5 334,-385.5 338.9711,-384.9629 334.4834,-389.974 343.9421,-384.4258 343.9421,-384.4258"/>
<text text-anchor="start" x="6.712" y="-395.5" font-family="Arial" font-size="10.00" fill="#000000">FOREIGN KEY (taxonomy_id) REFERENCES organisms (taxonomy_id)</text>
</g>
<!-- genomes -->
<g id="node3" class="node">
<title>genomes</title>
<polygon fill="#efefef" stroke="transparent" points="438,-445.5 438,-480.5 714,-480.5 714,-445.5 438,-445.5"/>
<polygon fill="none" stroke="#000000" points="438,-445.5 438,-480.5 714,-480.5 714,-445.5 438,-445.5"/>
<text text-anchor="start" x="475.2044" y="-458.3" font-family="Arial Bold" font-size="18.00" fill="#000000">genomes</text>
<text text-anchor="start" x="549.2276" y="-458.3" font-family="Arial" font-size="14.00" fill="#000000">    </text>
<text text-anchor="start" x="583.4324" y="-458.3" font-family="Arial" font-size="14.00" fill="#666666">[BASE TABLE]</text>
<polygon fill="none" stroke="#000000" points="438,-415.5 438,-445.5 714,-445.5 714,-415.5 438,-415.5"/>
<text text-anchor="start" x="445" y="-426.9" font-family="Arial" font-size="14.00" fill="#000000">id    </text>
<text text-anchor="start" x="490.094" y="-426.9" font-family="Arial" font-size="14.00" fill="#666666">[binary(16)]</text>
<polygon fill="none" stroke="#000000" points="438,-385.5 438,-415.5 714,-415.5 714,-385.5 438,-385.5"/>
<text text-anchor="start" x="445" y="-396.9" font-family="Arial" font-size="14.00" fill="#000000">genome_version    </text>
<text text-anchor="start" x="582.676" y="-396.9" font-family="Arial" font-size="14.00" fill="#666666">[varchar(255)]</text>
<polygon fill="none" stroke="#000000" points="438,-355.5 438,-385.5 714,-385.5 714,-355.5 438,-355.5"/>
<text text-anchor="start" x="444.9236" y="-366.9" font-family="Arial" font-size="14.00" fill="#000000">organism_taxonomy_id    </text>
<text text-anchor="start" x="623.8226" y="-366.9" font-family="Arial" font-size="14.00" fill="#666666">[int unsigned]</text>
<polygon fill="none" stroke="#000000" points="438,-325.5 438,-355.5 714,-355.5 714,-325.5 438,-325.5"/>
<text text-anchor="start" x="445" y="-336.9" font-family="Arial" font-size="14.00" fill="#000000">created_at    </text>
<text text-anchor="start" x="545.3422" y="-336.9" font-family="Arial" font-size="14.00" fill="#666666">[datetime]</text>
<polygon fill="none" stroke="#000000" points="438,-295.5 438,-325.5 714,-325.5 714,-295.5 438,-295.5"/>
<text text-anchor="start" x="445" y="-306.9" font-family="Arial" font-size="14.00" fill="#000000">updated_at    </text>
<text text-anchor="start" x="549.2468" y="-306.9" font-family="Arial" font-size="14.00" fill="#666666">[datetime]</text>
</g>
<!-- genomes&#45;&gt;organisms -->
<g id="edge2" class="edge">
<title>genomes:organism_taxonomy_id&#45;&gt;organisms:taxonomy_id</title>
<path fill="none" stroke="#000000" d="M427.6243,-369.3401C389.5591,-359.8653 413.1902,-294.4951 438,-253 455.3472,-223.9864 487.6528,-246.0136 505,-217 527.0092,-180.189 547.8889,-120.5 505,-120.5"/>
<polygon fill="#000000" stroke="#000000" points="428.0619,-369.3889 437.5,-374.9721 433.031,-369.9445 438,-370.5 438,-370.5 438,-370.5 433.031,-369.9445 438.5,-366.0279 428.0619,-369.3889 428.0619,-369.3889"/>
<text text-anchor="start" x="445.376" y="-380.5" font-family="Arial" font-size="10.00" fill="#000000">FOREIGN KEY (organism_taxonomy_id) REFERENCES organisms (taxonomy_id)</text>
</g>
</g>
</svg>
