<?xml version="1.0" encoding="UTF-8" standalone="no"?>
<!DOCTYPE svg PUBLIC "-//W3C//DTD SVG 1.1//EN"
 "http://www.w3.org/Graphics/SVG/1.1/DTD/svg11.dtd">
<!-- Generated by graphviz version 2.40.1 (20161225.0304)
 -->
<!-- Title: users Pages: 1 -->
<svg width="852pt" height="652pt"
 viewBox="0.00 0.00 851.50 652.00" xmlns="http://www.w3.org/2000/svg" xmlns:xlink="http://www.w3.org/1999/xlink">
<g id="graph0" class="graph" transform="scale(1 1) rotate(0) translate(4 648)">
<title>users</title>
<polygon fill="#ffffff" stroke="transparent" points="-4,4 -4,-648 847.5,-648 847.5,4 -4,4"/>
<!-- users -->
<g id="node1" class="node">
<title>users</title>
<polygon fill="#efefef" stroke="transparent" points="321,-135.5 321,-170.5 506,-170.5 506,-135.5 321,-135.5"/>
<polygon fill="none" stroke="#000000" points="321,-135.5 321,-170.5 506,-170.5 506,-135.5 321,-135.5"/>
<text text-anchor="start" x="327.7137" y="-148.3" font-family="Arial Bold" font-size="18.00" fill="#000000">users</text>
<text text-anchor="start" x="371.7183" y="-148.3" font-family="Arial" font-size="14.00" fill="#000000">    </text>
<text text-anchor="start" x="405.9231" y="-148.3" font-family="Arial" font-size="14.00" fill="#666666">[BASE TABLE]</text>
<polygon fill="none" stroke="#000000" points="321,-105.5 321,-135.5 506,-135.5 506,-105.5 321,-105.5"/>
<text text-anchor="start" x="328" y="-116.9" font-family="Arial" font-size="14.00" fill="#000000">id </text>
<text text-anchor="start" x="342.7798" y="-116.9" font-family="Arial" font-size="14.00" fill="#666666">[binary(16)]</text>
<polygon fill="none" stroke="#000000" points="321,-75.5 321,-105.5 506,-105.5 506,-75.5 321,-75.5"/>
<text text-anchor="start" x="328" y="-86.9" font-family="Arial" font-size="14.00" fill="#000000">orc_id </text>
<text text-anchor="start" x="370.0056" y="-86.9" font-family="Arial" font-size="14.00" fill="#666666">[varchar(255)]</text>
<polygon fill="none" stroke="#000000" points="321,-45.5 321,-75.5 506,-75.5 506,-45.5 321,-45.5"/>
<text text-anchor="start" x="328" y="-56.9" font-family="Arial" font-size="14.00" fill="#000000">email </text>
<text text-anchor="start" x="365.3296" y="-56.9" font-family="Arial" font-size="14.00" fill="#666666">[varchar(255)]</text>
<polygon fill="none" stroke="#000000" stroke-width="3" points="319,-44.5 319,-172.5 507,-172.5 507,-44.5 319,-44.5"/>
</g>
<!-- go_terms_annotation -->
<g id="node2" class="node">
<title>go_terms_annotation</title>
<polygon fill="#efefef" stroke="transparent" points="43,-520.5 43,-555.5 353,-555.5 353,-520.5 43,-520.5"/>
<polygon fill="none" stroke="#000000" points="43,-520.5 43,-555.5 353,-555.5 353,-520.5 43,-520.5"/>
<text text-anchor="start" x="49.6862" y="-533.3" font-family="Arial Bold" font-size="18.00" fill="#000000">go_terms_annotation</text>
<text text-anchor="start" x="218.7458" y="-533.3" font-family="Arial" font-size="14.00" fill="#000000">    </text>
<text text-anchor="start" x="252.9506" y="-533.3" font-family="Arial" font-size="14.00" fill="#666666">[BASE TABLE]</text>
<polygon fill="none" stroke="#000000" points="43,-490.5 43,-520.5 353,-520.5 353,-490.5 43,-490.5"/>
<text text-anchor="start" x="50" y="-501.9" font-family="Arial" font-size="14.00" fill="#000000">go_term_id    </text>
<text text-anchor="start" x="154.2188" y="-501.9" font-family="Arial" font-size="14.00" fill="#666666">[varchar(255)]</text>
<polygon fill="none" stroke="#000000" points="43,-460.5 43,-490.5 353,-490.5 353,-460.5 43,-460.5"/>
<text text-anchor="start" x="50" y="-471.9" font-family="Arial" font-size="14.00" fill="#000000">transcript_id    </text>
<text text-anchor="start" x="160.4334" y="-471.9" font-family="Arial" font-size="14.00" fill="#666666">[binary(16)]</text>
<polygon fill="none" stroke="#000000" points="43,-430.5 43,-460.5 353,-460.5 353,-430.5 43,-430.5"/>
<text text-anchor="start" x="50" y="-441.9" font-family="Arial" font-size="14.00" fill="#000000">evidence_code    </text>
<text text-anchor="start" x="178.3548" y="-441.9" font-family="Arial" font-size="14.00" fill="#666666">[char(3)]</text>
<polygon fill="none" stroke="#000000" points="43,-400.5 43,-430.5 353,-430.5 353,-400.5 43,-400.5"/>
<text text-anchor="start" x="50" y="-411.9" font-family="Arial" font-size="14.00" fill="#000000">created_at    </text>
<text text-anchor="start" x="150.3422" y="-411.9" font-family="Arial" font-size="14.00" fill="#666666">[datetime]</text>
<polygon fill="none" stroke="#000000" points="43,-370.5 43,-400.5 353,-400.5 353,-370.5 43,-370.5"/>
<text text-anchor="start" x="50" y="-381.9" font-family="Arial" font-size="14.00" fill="#000000">updated_at    </text>
<text text-anchor="start" x="154.2468" y="-381.9" font-family="Arial" font-size="14.00" fill="#666666">[datetime]</text>
<polygon fill="none" stroke="#000000" points="43,-340.5 43,-370.5 353,-370.5 353,-340.5 43,-340.5"/>
<text text-anchor="start" x="50" y="-351.9" font-family="Arial" font-size="14.00" fill="#000000">assigned_by    </text>
<text text-anchor="start" x="162.7896" y="-351.9" font-family="Arial" font-size="14.00" fill="#666666">[binary(16)]</text>
</g>
<!-- go_terms_annotation&#45;&gt;users -->
<g id="edge1" class="edge">
<title>go_terms_annotation:assigned_by&#45;&gt;users:id</title>
<path fill="none" stroke="#000000" d="M362.6498,-352.5923C371.6056,-344.0933 356.9205,-318.5937 353,-298 338.0089,-219.2536 240.8394,-120.5 321,-120.5"/>
<polygon fill="#000000" stroke="#000000" points="362.5748,-352.6149 351.7017,-351.1913 357.7874,-354.0574 353,-355.5 353,-355.5 353,-355.5 357.7874,-354.0574 354.2983,-359.8087 362.5748,-352.6149 362.5748,-352.6149"/>
<text text-anchor="start" x="360.271" y="-365.5" font-family="Arial" font-size="10.00" fill="#000000">FOREIGN KEY (assigned_by) REFERENCES users (id)</text>
</g>
<!-- nomenclatures -->
<g id="node3" class="node">
<title>nomenclatures</title>
<polygon fill="#efefef" stroke="transparent" points="458,-565.5 458,-600.5 801,-600.5 801,-565.5 458,-565.5"/>
<polygon fill="none" stroke="#000000" points="458,-565.5 458,-600.5 801,-600.5 801,-565.5 458,-565.5"/>
<text text-anchor="start" x="506.7039" y="-578.3" font-family="Arial Bold" font-size="18.00" fill="#000000">nomenclatures</text>
<text text-anchor="start" x="624.7281" y="-578.3" font-family="Arial" font-size="14.00" fill="#000000">    </text>
<text text-anchor="start" x="658.9329" y="-578.3" font-family="Arial" font-size="14.00" fill="#666666">[BASE TABLE]</text>
<polygon fill="none" stroke="#000000" points="458,-535.5 458,-565.5 801,-565.5 801,-535.5 458,-535.5"/>
<text text-anchor="start" x="465" y="-546.9" font-family="Arial" font-size="14.00" fill="#000000">id    </text>
<text text-anchor="start" x="510.094" y="-546.9" font-family="Arial" font-size="14.00" fill="#666666">[binary(16)]</text>
<polygon fill="none" stroke="#000000" points="458,-505.5 458,-535.5 801,-535.5 801,-505.5 458,-505.5"/>
<text text-anchor="start" x="465" y="-516.9" font-family="Arial" font-size="14.00" fill="#000000">gene_id    </text>
<text text-anchor="start" x="549.007" y="-516.9" font-family="Arial" font-size="14.00" fill="#666666">[binary(16)]</text>
<polygon fill="none" stroke="#000000" points="458,-475.5 458,-505.5 801,-505.5 801,-475.5 458,-475.5"/>
<text text-anchor="start" x="465" y="-486.9" font-family="Arial" font-size="14.00" fill="#000000">name    </text>
<text text-anchor="start" x="534.2132" y="-486.9" font-family="Arial" font-size="14.00" fill="#666666">[varchar(255)]</text>
<polygon fill="none" stroke="#000000" points="458,-445.5 458,-475.5 801,-475.5 801,-445.5 458,-445.5"/>
<text text-anchor="start" x="465" y="-456.9" font-family="Arial" font-size="14.00" fill="#000000">doi    </text>
<text text-anchor="start" x="517.8766" y="-456.9" font-family="Arial" font-size="14.00" fill="#666666">[varchar(255)]</text>
<polygon fill="none" stroke="#000000" points="458,-415.5 458,-445.5 801,-445.5 801,-415.5 458,-415.5"/>
<text text-anchor="start" x="465" y="-426.9" font-family="Arial" font-size="14.00" fill="#000000">citation    </text>
<text text-anchor="start" x="543.547" y="-426.9" font-family="Arial" font-size="14.00" fill="#666666">[text]</text>
<polygon fill="none" stroke="#000000" points="458,-385.5 458,-415.5 801,-415.5 801,-385.5 458,-385.5"/>
<text text-anchor="start" x="464.6444" y="-396.9" font-family="Arial" font-size="14.00" fill="#000000">status    </text>
<text text-anchor="start" x="536.1956" y="-396.9" font-family="Arial" font-size="14.00" fill="#666666">[enum(&#39;obsolate&#39;,&#39;provisional&#39;,&#39;published&#39;)]</text>
<polygon fill="none" stroke="#000000" points="458,-355.5 458,-385.5 801,-385.5 801,-355.5 458,-355.5"/>
<text text-anchor="start" x="465" y="-366.9" font-family="Arial" font-size="14.00" fill="#000000">assigned_by    </text>
<text text-anchor="start" x="577.7896" y="-366.9" font-family="Arial" font-size="14.00" fill="#666666">[binary(16)]</text>
<polygon fill="none" stroke="#000000" points="458,-325.5 458,-355.5 801,-355.5 801,-325.5 458,-325.5"/>
<text text-anchor="start" x="465" y="-336.9" font-family="Arial" font-size="14.00" fill="#000000">created_at    </text>
<text text-anchor="start" x="565.3422" y="-336.9" font-family="Arial" font-size="14.00" fill="#666666">[datetime]</text>
<polygon fill="none" stroke="#000000" points="458,-295.5 458,-325.5 801,-325.5 801,-295.5 458,-295.5"/>
<text text-anchor="start" x="465" y="-306.9" font-family="Arial" font-size="14.00" fill="#000000">updated_at    </text>
<text text-anchor="start" x="569.2468" y="-306.9" font-family="Arial" font-size="14.00" fill="#666666">[datetime]</text>
</g>
<!-- nomenclatures&#45;&gt;users -->
<g id="edge2" class="edge">
<title>nomenclatures:assigned_by&#45;&gt;users:id</title>
<path fill="none" stroke="#000000" d="M447.677,-369.3689C410.0325,-360.1246 436.3789,-296.2423 458,-253 469.9257,-229.1486 494.0743,-240.8514 506,-217 525.1805,-178.639 548.8889,-120.5 506,-120.5"/>
<polygon fill="#000000" stroke="#000000" points="448.0595,-369.4108 457.5098,-374.9732 453.0297,-369.9554 458,-370.5 458,-370.5 458,-370.5 453.0297,-369.9554 458.4902,-366.0268 448.0595,-369.4108 448.0595,-369.4108"/>
<text text-anchor="start" x="465.271" y="-380.5" font-family="Arial" font-size="10.00" fill="#000000">FOREIGN KEY (assigned_by) REFERENCES users (id)</text>
</g>
</g>
</svg>
