<?xml version="1.0" encoding="UTF-8" standalone="no"?>
<!DOCTYPE svg PUBLIC "-//W3C//DTD SVG 1.1//EN"
 "http://www.w3.org/Graphics/SVG/1.1/DTD/svg11.dtd">
<!-- Generated by graphviz version 2.40.1 (20161225.0304)
 -->
<!-- Title: users Pages: 1 -->
<svg width="474pt" height="562pt"
 viewBox="0.00 0.00 474.00 562.00" xmlns="http://www.w3.org/2000/svg" xmlns:xlink="http://www.w3.org/1999/xlink">
<g id="graph0" class="graph" transform="scale(1 1) rotate(0) translate(4 558)">
<title>users</title>
<polygon fill="#ffffff" stroke="transparent" points="-4,4 -4,-558 470,-558 470,4 -4,4"/>
<!-- users -->
<g id="node1" class="node">
<title>users</title>
<polygon fill="#efefef" stroke="transparent" points="175,-135.5 175,-170.5 360,-170.5 360,-135.5 175,-135.5"/>
<polygon fill="none" stroke="#000000" points="175,-135.5 175,-170.5 360,-170.5 360,-135.5 175,-135.5"/>
<text text-anchor="start" x="181.7137" y="-148.3" font-family="Arial Bold" font-size="18.00" fill="#000000">users</text>
<text text-anchor="start" x="225.7183" y="-148.3" font-family="Arial" font-size="14.00" fill="#000000">    </text>
<text text-anchor="start" x="259.9231" y="-148.3" font-family="Arial" font-size="14.00" fill="#666666">[BASE TABLE]</text>
<polygon fill="none" stroke="#000000" points="175,-105.5 175,-135.5 360,-135.5 360,-105.5 175,-105.5"/>
<text text-anchor="start" x="182" y="-116.9" font-family="Arial" font-size="14.00" fill="#000000">id </text>
<text text-anchor="start" x="196.7798" y="-116.9" font-family="Arial" font-size="14.00" fill="#666666">[binary(16)]</text>
<polygon fill="none" stroke="#000000" points="175,-75.5 175,-105.5 360,-105.5 360,-75.5 175,-75.5"/>
<text text-anchor="start" x="182" y="-86.9" font-family="Arial" font-size="14.00" fill="#000000">orc_id </text>
<text text-anchor="start" x="224.0056" y="-86.9" font-family="Arial" font-size="14.00" fill="#666666">[varchar(255)]</text>
<polygon fill="none" stroke="#000000" points="175,-45.5 175,-75.5 360,-75.5 360,-45.5 175,-45.5"/>
<text text-anchor="start" x="182" y="-56.9" font-family="Arial" font-size="14.00" fill="#000000">email </text>
<text text-anchor="start" x="219.3296" y="-56.9" font-family="Arial" font-size="14.00" fill="#666666">[varchar(255)]</text>
<polygon fill="none" stroke="#000000" stroke-width="3" points="173,-44.5 173,-172.5 361,-172.5 361,-44.5 173,-44.5"/>
</g>
<!-- go_terms_annotation -->
<g id="node2" class="node">
<title>go_terms_annotation</title>
<polygon fill="#efefef" stroke="transparent" points="113,-475.5 113,-510.5 423,-510.5 423,-475.5 113,-475.5"/>
<polygon fill="none" stroke="#000000" points="113,-475.5 113,-510.5 423,-510.5 423,-475.5 113,-475.5"/>
<text text-anchor="start" x="119.6862" y="-488.3" font-family="Arial Bold" font-size="18.00" fill="#000000">go_terms_annotation</text>
<text text-anchor="start" x="288.7458" y="-488.3" font-family="Arial" font-size="14.00" fill="#000000">    </text>
<text text-anchor="start" x="322.9506" y="-488.3" font-family="Arial" font-size="14.00" fill="#666666">[BASE TABLE]</text>
<polygon fill="none" stroke="#000000" points="113,-445.5 113,-475.5 423,-475.5 423,-445.5 113,-445.5"/>
<text text-anchor="start" x="120" y="-456.9" font-family="Arial" font-size="14.00" fill="#000000">go_term_id    </text>
<text text-anchor="start" x="224.2188" y="-456.9" font-family="Arial" font-size="14.00" fill="#666666">[varchar(255)]</text>
<polygon fill="none" stroke="#000000" points="113,-415.5 113,-445.5 423,-445.5 423,-415.5 113,-415.5"/>
<text text-anchor="start" x="120" y="-426.9" font-family="Arial" font-size="14.00" fill="#000000">transcript_id    </text>
<text text-anchor="start" x="230.4334" y="-426.9" font-family="Arial" font-size="14.00" fill="#666666">[binary(16)]</text>
<polygon fill="none" stroke="#000000" points="113,-385.5 113,-415.5 423,-415.5 423,-385.5 113,-385.5"/>
<text text-anchor="start" x="120" y="-396.9" font-family="Arial" font-size="14.00" fill="#000000">evidence_code    </text>
<text text-anchor="start" x="248.3548" y="-396.9" font-family="Arial" font-size="14.00" fill="#666666">[char(3)]</text>
<polygon fill="none" stroke="#000000" points="113,-355.5 113,-385.5 423,-385.5 423,-355.5 113,-355.5"/>
<text text-anchor="start" x="120" y="-366.9" font-family="Arial" font-size="14.00" fill="#000000">created_at    </text>
<text text-anchor="start" x="220.3422" y="-366.9" font-family="Arial" font-size="14.00" fill="#666666">[datetime]</text>
<polygon fill="none" stroke="#000000" points="113,-325.5 113,-355.5 423,-355.5 423,-325.5 113,-325.5"/>
<text text-anchor="start" x="120" y="-336.9" font-family="Arial" font-size="14.00" fill="#000000">updated_at    </text>
<text text-anchor="start" x="224.2468" y="-336.9" font-family="Arial" font-size="14.00" fill="#666666">[datetime]</text>
<polygon fill="none" stroke="#000000" points="113,-295.5 113,-325.5 423,-325.5 423,-295.5 113,-295.5"/>
<text text-anchor="start" x="120" y="-306.9" font-family="Arial" font-size="14.00" fill="#000000">assisgned_by    </text>
<text text-anchor="start" x="239.7896" y="-306.9" font-family="Arial" font-size="14.00" fill="#666666">[binary(16)]</text>
</g>
<!-- go_terms_annotation&#45;&gt;users -->
<g id="edge1" class="edge">
<title>go_terms_annotation:assisgned_by&#45;&gt;users:id</title>
<path fill="none" stroke="#000000" d="M268.9369,-285.5196C277.2804,-244.6981 339.0243,-262.4715 360,-217 377.9651,-178.055 402.8889,-120.5 360,-120.5"/>
<polygon fill="#000000" stroke="#000000" points="268.9347,-285.5438 263.5197,-295.0794 268.4674,-290.5219 268,-295.5 268,-295.5 268,-295.5 268.4674,-290.5219 272.4803,-295.9206 268.9347,-285.5438 268.9347,-285.5438"/>
<text text-anchor="start" x="6.771" y="-305.5" font-family="Arial" font-size="10.00" fill="#000000">FOREIGN KEY (assisgned_by) REFERENCES users (id)</text>
</g>
</g>
</svg>
